<svg width="40" height="40" viewBox="0 0 40 40" fill="none" xmlns="http://www.w3.org/2000/svg">
<g clip-path="url(#clip0_173_18639)">
<path d="M20 3.33337C10.8 3.33337 3.33331 10.8 3.33331 20C3.33331 29.2 10.8 36.6667 20 36.6667C29.2 36.6667 36.6666 29.2 36.6666 20C36.6666 10.8 29.2 3.33337 20 3.33337ZM20 8.33337C22.7666 8.33337 25 10.5667 25 13.3334C25 16.1 22.7666 18.3334 20 18.3334C17.2333 18.3334 15 16.1 15 13.3334C15 10.5667 17.2333 8.33337 20 8.33337ZM20 32C15.8333 32 12.15 29.8667 9.99998 26.6334C10.05 23.3167 16.6666 21.5 20 21.5C23.3166 21.5 29.95 23.3167 30 26.6334C27.85 29.8667 24.1666 32 20 32Z" fill="#467980"/>
</g>
<defs>
<clipPath id="clip0_173_18639">
<rect width="40" height="40" fill="white"/>
</clipPath>
</defs>
</svg>
