<svg width="20" height="20" viewBox="0 0 20 20" fill="none" xmlns="http://www.w3.org/2000/svg">
<circle cx="9.99984" cy="10.0001" r="8.33333" fill="white"/>
<path d="M5.8335 9.1C5.33644 9.1 4.9335 9.50294 4.9335 10C4.9335 10.4971 5.33644 10.9 5.8335 10.9V9.1ZM14.1668 10.9C14.6639 10.9 15.0668 10.4971 15.0668 10C15.0668 9.50294 14.6639 9.1 14.1668 9.1V10.9ZM5.8335 10.9H14.1668V9.1H5.8335V10.9Z" fill="#0075AC"/>
<path d="M10.9 5.83325C10.9 5.3362 10.4971 4.93325 10 4.93325C9.50294 4.93325 9.1 5.3362 9.1 5.83325L10.9 5.83325ZM9.1 14.1666C9.1 14.6636 9.50294 15.0666 10 15.0666C10.4971 15.0666 10.9 14.6636 10.9 14.1666L9.1 14.1666ZM9.1 5.83325L9.1 14.1666L10.9 14.1666L10.9 5.83325L9.1 5.83325Z" fill="#0075AC"/>
</svg>
