<svg width="25" height="24" viewBox="0 0 25 24" fill="none" xmlns="http://www.w3.org/2000/svg">
<path d="M15.5771 17.0454C15.8365 17.1167 15.9668 17.277 16.0419 17.4885C16.2273 18.0106 16.2267 18.5289 15.994 19.0377C15.9439 19.1473 15.8855 19.2804 15.7569 19.0878C15.7246 19.0393 15.6567 19.016 15.6072 18.9787C15.1485 18.6358 15.055 17.9667 15.4201 17.5275C15.5387 17.3855 15.6205 17.2497 15.5771 17.0454Z" fill="white"/>
<path d="M22.205 10.2289C22.1477 10.1443 22.1282 10.0752 22.1549 9.9678C22.2718 9.49687 22.2128 9.04431 21.9378 8.63795C21.8633 8.52774 21.8833 8.46595 21.9501 8.36965C22.455 7.64266 22.4628 6.72529 21.9673 5.99441C21.8989 5.8931 21.8961 5.83966 21.9813 5.74169C22.7405 4.86718 22.6559 3.54792 21.797 2.74466C20.9648 1.96646 19.6378 1.9776 18.8284 2.78474C18.6803 2.93226 18.6079 2.97957 18.397 2.85043C17.9205 2.55874 17.4212 2.60328 16.9502 2.90999C16.8996 2.94283 16.8656 3.01743 16.7877 2.92001C16.4342 2.48025 15.9683 2.49918 15.4812 2.61775C15.3315 2.65393 15.253 2.71628 15.3242 2.89106C15.3621 2.98403 15.3593 3.09536 15.3643 3.19889C15.3749 3.42378 15.248 3.57742 15.0504 3.58799C14.8539 3.59857 14.7181 3.45718 14.7058 3.23007C14.6763 2.67453 14.3585 2.24145 13.8536 2.06833C13.3559 1.89744 12.8265 2.05497 12.4703 2.47803C12.4324 2.52256 12.4157 2.58546 12.3356 2.59159C11.9214 2.62331 11.6214 2.86713 11.3425 3.14323C10.7079 3.77113 10.2982 4.84492 10.8137 5.8224C10.8671 5.92371 10.8187 5.99552 10.7886 6.07568C10.3823 7.16004 11.0219 8.32289 12.153 8.53943C12.2727 8.56225 12.2916 8.604 12.2961 8.71032C12.3244 9.37663 12.7831 9.96279 13.4188 10.1554C13.4973 10.1793 13.578 10.1971 13.6587 10.2183C13.1633 11.4708 13.9204 12.662 14.9936 12.9353C15.1355 12.9715 15.1717 13.0205 15.1701 13.1641C15.1628 13.9273 15.6521 14.5763 16.388 14.7778C16.4999 14.8085 16.5439 14.858 16.5795 14.9554C16.8211 15.615 17.6717 16.0453 18.3302 15.7765C18.3647 15.7626 18.3903 15.7498 18.4237 15.7748C18.5495 15.8683 18.6837 15.8416 18.8312 15.7859C18.8312 15.9168 18.8328 16.0337 18.8312 16.1505C18.8239 16.661 18.5061 17.0462 18.0029 17.1453C17.7284 17.1993 17.449 17.1575 17.1723 17.1692C16.9602 17.1781 16.8317 17.305 16.8333 17.5054C16.8344 17.7047 16.9641 17.8339 17.1779 17.8344C17.695 17.8355 18.2205 17.8906 18.7026 17.6285C18.7109 17.624 18.7276 17.6346 18.7605 17.644C18.6252 17.9714 18.3986 18.189 18.0641 18.2953C17.8743 18.3555 17.6789 18.3271 17.4857 18.3365C17.2903 18.3454 17.1662 18.4785 17.1668 18.6711C17.1673 18.8631 17.2915 18.9923 17.4896 19.0006C17.5798 19.0045 17.67 18.9984 17.7602 19.0023C18.7722 19.044 19.3305 18.3037 19.4541 17.6062C19.5565 17.0284 19.478 16.4433 19.4997 15.8616C19.5025 15.7915 19.5003 15.7208 19.5003 15.6351C19.8643 15.8522 20.2139 15.8394 20.4505 15.6195C20.7143 15.3746 20.7616 15.0027 20.5774 14.6092C20.6737 14.5758 20.7705 14.5446 20.8652 14.5079C21.3094 14.3347 21.576 14.0097 21.6501 13.5421C21.6879 13.3027 21.6823 13.0572 21.6211 12.8184C21.5916 12.7049 21.6155 12.6425 21.7252 12.5735C22.5285 12.0664 22.74 11.0215 22.205 10.2289ZM14.2354 5.97604C14.0384 6.09349 13.922 6.07958 13.7573 5.91481C13.465 5.62256 13.1834 5.58805 12.8226 5.80125C12.6234 5.9187 12.4491 5.88642 12.3406 5.71163C12.2376 5.54574 12.2827 5.38432 12.4703 5.25072C12.9045 4.94011 13.4778 4.92062 13.9343 5.21398C14.0395 5.28189 14.118 5.28467 14.2326 5.23903C15.3192 4.80651 16.5049 5.62256 16.4988 6.79265C16.496 6.98135 16.4604 7.16449 16.3969 7.34095C16.3218 7.55081 16.1626 7.6382 15.9789 7.58198C15.7902 7.52409 15.715 7.35598 15.7801 7.13165C15.9026 6.70971 15.833 6.33118 15.499 6.03226C15.1996 5.76395 14.8466 5.71552 14.4715 5.84801C14.3885 5.87695 14.3128 5.93039 14.2354 5.97604ZM16.8088 9.86872C16.6758 10.0379 16.5066 10.0463 16.3045 9.8843C16.1175 9.73456 15.9165 9.70172 15.7067 9.81528C15.5091 9.92215 15.4361 10.1008 15.4567 10.3224C15.4684 10.4471 15.5374 10.5389 15.6143 10.6302C15.7545 10.7978 15.7462 10.9714 15.5953 11.105C15.4512 11.2331 15.2686 11.2141 15.1188 11.0561C14.7921 10.7115 14.7002 10.215 14.8945 9.78633C15.101 9.33099 15.4718 9.11668 15.9471 9.08495C16.2466 9.10053 16.5027 9.19015 16.7203 9.37886C16.8985 9.5325 16.9302 9.71452 16.8088 9.86872ZM19.5075 12.8507C19.3867 12.996 19.1479 13.0127 18.9954 12.8552C18.8011 12.6542 18.5556 12.6397 18.3046 12.7427C18.024 12.8579 17.8698 13.0706 17.8359 13.3734C17.8069 13.6278 17.6021 13.7586 17.38 13.6634C17.2135 13.5922 17.1807 13.4463 17.1935 13.2804C17.2536 12.7288 17.5481 12.3391 18.0563 12.1371C18.5473 11.9422 19.0215 11.9929 19.4296 12.362C19.6127 12.5267 19.6344 12.6976 19.5075 12.8507ZM20.176 9.71898C19.9673 9.72343 19.8398 9.60375 19.8348 9.36439C19.8292 9.1061 19.7112 8.92853 19.4875 8.82221C19.2409 8.70531 19.0037 8.73871 18.7844 8.90014C18.7566 8.92073 18.7326 8.94634 18.7048 8.96694C18.5456 9.08439 18.3797 9.07715 18.2573 8.94745C18.1287 8.81107 18.1326 8.63294 18.2684 8.48098C18.5757 8.13697 19.1941 8.00615 19.6712 8.18317C20.1521 8.36185 20.4944 8.83445 20.4967 9.32264C20.4983 9.57536 20.3859 9.71452 20.176 9.71898ZM20.7227 6.19035C20.5468 6.30391 20.372 6.26995 20.249 6.05954C19.9016 5.46781 19.0739 5.17446 18.378 5.53294C18.1682 5.64093 17.9973 5.57859 17.9077 5.39211C17.8203 5.21064 17.8882 5.04698 18.1047 4.93844C18.3931 4.79315 18.7009 4.72245 19.0466 4.71076C19.7775 4.74973 20.382 5.05422 20.7928 5.70272C20.9231 5.90868 20.8952 6.07902 20.7227 6.19035Z" fill="white"/>
<path d="M14.9412 17.0413C14.733 17.0413 14.5337 17.0324 14.3361 17.0441C14.1992 17.0524 14.1624 17.009 14.1641 16.8726C14.1714 16.2408 14.1452 15.6085 14.173 14.9778C14.2092 14.1445 13.6414 13.7053 13.0898 13.5489C12.5058 13.3835 11.9236 13.2104 11.3358 13.0612C11.1432 13.0123 10.9979 12.9221 10.8648 12.7851C10.4819 12.3905 10.1662 11.9418 9.83503 11.506C9.37412 10.8986 8.93714 10.2707 8.36323 9.75862C8.04706 9.47584 7.69469 9.32666 7.25327 9.33167C5.80263 9.34892 4.35199 9.33779 2.90079 9.33835C2.63304 9.33835 2.5 9.45357 2.50334 9.67735C2.50613 9.89222 2.63694 10.0035 2.89189 10.0041C3.52369 10.0052 4.15549 10.0086 4.78674 10.0013C4.92479 9.99965 4.97544 10.0225 4.97377 10.1772C4.96431 11.0729 4.96208 11.968 4.97154 12.8636C4.97322 13.0323 4.91421 13.0496 4.77171 13.0484C4.07756 13.0418 3.38341 13.049 2.68927 13.0423C2.55511 13.0412 2.49945 13.0585 2.5 13.2154C2.50613 15.3257 2.50557 17.436 2.50056 19.5463C2.5 19.6904 2.54788 19.7127 2.67591 19.7121C3.738 19.7077 4.8001 19.7066 5.86219 19.7133C6.00414 19.7144 6.02974 19.6665 6.03754 19.5385C6.1305 17.9581 7.43474 16.7407 9.01563 16.7524C10.5442 16.7635 11.8579 18.0316 11.9141 19.5596C11.9191 19.6988 11.9676 19.7149 12.0839 19.7121C12.3823 19.7055 12.6806 19.7082 12.9796 19.7099C13.2445 19.7116 13.4878 19.6359 13.6993 19.4822C13.814 19.3993 13.927 19.3715 14.0634 19.3742C14.384 19.3815 14.7046 19.3765 15.0509 19.3765C14.4079 18.625 14.3818 17.9748 14.9412 17.0413ZM4.1772 15.7087C4.0603 15.717 3.94285 15.7104 3.8254 15.7104C3.72186 15.7104 3.61832 15.7154 3.51478 15.7098C3.31439 15.6987 3.18023 15.5712 3.17244 15.3925C3.16465 15.216 3.29546 15.0613 3.48918 15.0507C3.72297 15.0379 3.95899 15.0374 4.19279 15.0507C4.38149 15.0613 4.50062 15.2021 4.50229 15.3764C4.5034 15.5595 4.37537 15.6948 4.1772 15.7087ZM9.97308 13.0457C8.60037 13.0457 7.2271 13.0429 5.8544 13.0496C5.69408 13.0501 5.64899 13.0128 5.65066 12.848C5.66068 11.9607 5.66068 11.0729 5.65512 10.1856C5.654 10.0442 5.68406 9.99798 5.8338 10.0013C6.30529 10.0119 6.77733 10.0158 7.24826 10.0008C7.5032 9.99297 7.7036 10.0815 7.8873 10.2424C8.39162 10.6849 8.7785 11.2271 9.17539 11.7603C9.48934 12.1828 9.78994 12.6148 10.1729 13.0457C10.0788 13.0457 10.026 13.0457 9.97308 13.0457Z" fill="white"/>
<path d="M9.01228 17.4185C7.72085 17.4129 6.68658 18.4205 6.67489 19.6957C6.66376 20.9454 7.69691 21.9947 8.94326 21.9997C10.2364 22.0053 11.2595 20.9972 11.2651 19.7124C11.2701 18.4633 10.2497 17.424 9.01228 17.4185ZM10.1662 19.7397C10.1462 20.391 9.58953 20.917 8.94326 20.8948C8.26525 20.872 7.7676 20.3281 7.79043 19.6362C7.81047 19.0189 8.38159 18.4945 9.00504 18.5207C9.66412 18.5485 10.1863 19.0962 10.1662 19.7397Z" fill="white"/>
<path d="M9.50046 19.7063C9.50158 20.0102 9.26388 20.2501 8.96719 20.2457C8.67996 20.2412 8.44894 20.0041 8.44727 19.7124C8.4456 19.4129 8.68942 19.1669 8.98222 19.1725C9.27223 19.1786 9.49991 19.4124 9.50046 19.7063Z" fill="white"/>
</svg>
