<svg width="24" height="25" viewBox="0 0 24 25" fill="none" xmlns="http://www.w3.org/2000/svg">
<path d="M15.0771 17.1626C15.3365 17.2338 15.4668 17.3942 15.5419 17.6057C15.7273 18.1278 15.7267 18.6461 15.494 19.1549C15.4439 19.2645 15.3855 19.3976 15.2569 19.205C15.2246 19.1565 15.1567 19.1332 15.1072 19.0959C14.6485 18.753 14.555 18.0839 14.9201 17.6447C15.0387 17.5027 15.1205 17.3669 15.0771 17.1626Z" fill="#23AFA4"/>
<path d="M21.705 10.3461C21.6477 10.2614 21.6282 10.1924 21.6549 10.085C21.7718 9.61406 21.7128 9.1615 21.4378 8.75514C21.3633 8.64492 21.3833 8.58314 21.4501 8.48683C21.955 7.75985 21.9628 6.84248 21.4673 6.11159C21.3989 6.01028 21.3961 5.95685 21.4813 5.85887C22.2405 4.98437 22.1559 3.6651 21.297 2.86185C20.4648 2.08365 19.1378 2.09478 18.3284 2.90193C18.1803 3.04944 18.1079 3.09676 17.897 2.96762C17.4205 2.67593 16.9212 2.72046 16.4502 3.02718C16.3996 3.06002 16.3656 3.13461 16.2877 3.0372C15.9342 2.59744 15.4683 2.61637 14.9812 2.73494C14.8315 2.77112 14.753 2.83346 14.8242 3.00825C14.8621 3.10121 14.8593 3.21254 14.8643 3.31608C14.8749 3.54097 14.748 3.69461 14.5504 3.70518C14.3539 3.71576 14.2181 3.57437 14.2058 3.34725C14.1763 2.79171 13.8585 2.35864 13.3536 2.18552C12.8559 2.01463 12.3265 2.17216 11.9703 2.59522C11.9324 2.63975 11.9157 2.70265 11.8356 2.70877C11.4214 2.7405 11.1214 2.98432 10.8425 3.26042C10.2079 3.88832 9.79822 4.96211 10.3137 5.93959C10.3671 6.0409 10.3187 6.11271 10.2886 6.19287C9.88228 7.27723 10.5219 8.44008 11.653 8.65661C11.7727 8.67944 11.7916 8.72119 11.7961 8.82751C11.8244 9.49382 12.2831 10.08 12.9188 10.2726C12.9973 10.2965 13.078 10.3143 13.1587 10.3355C12.6633 11.588 13.4204 12.7792 14.4936 13.0525C14.6355 13.0887 14.6717 13.1377 14.6701 13.2813C14.6628 14.0445 15.1521 14.6935 15.888 14.895C15.9999 14.9256 16.0439 14.9752 16.0795 15.0726C16.3211 15.7322 17.1717 16.1625 17.8302 15.8937C17.8647 15.8797 17.8903 15.8669 17.9237 15.892C18.0495 15.9855 18.1837 15.9588 18.3312 15.9031C18.3312 16.0339 18.3328 16.1508 18.3312 16.2677C18.3239 16.7782 18.0061 17.1634 17.5029 17.2625C17.2284 17.3165 16.949 17.2747 16.6723 17.2864C16.4602 17.2953 16.3317 17.4222 16.3333 17.6226C16.3344 17.8219 16.4641 17.9511 16.6779 17.9516C17.195 17.9527 17.7205 18.0078 18.2026 17.7456C18.2109 17.7412 18.2276 17.7518 18.2605 17.7612C18.1252 18.0885 17.8986 18.3062 17.5641 18.4125C17.3743 18.4726 17.1789 18.4443 16.9857 18.4537C16.7903 18.4626 16.6662 18.5957 16.6668 18.7883C16.6673 18.9803 16.7915 19.1094 16.9896 19.1178C17.0798 19.1217 17.17 19.1156 17.2602 19.1195C18.2722 19.1612 18.8305 18.4209 18.9541 17.7234C19.0565 17.1456 18.978 16.5605 18.9997 15.9788C19.0025 15.9087 19.0003 15.838 19.0003 15.7523C19.3643 15.9694 19.7139 15.9566 19.9505 15.7367C20.2143 15.4918 20.2616 15.1199 20.0774 14.7264C20.1737 14.693 20.2705 14.6618 20.3652 14.6251C20.8094 14.4519 21.076 14.1268 21.1501 13.6593C21.1879 13.4199 21.1823 13.1744 21.1211 12.9356C21.0916 12.8221 21.1155 12.7597 21.2252 12.6907C22.0285 12.1836 22.24 11.1387 21.705 10.3461ZM13.7354 6.09323C13.5384 6.21068 13.422 6.19676 13.2573 6.03199C12.965 5.73975 12.6834 5.70524 12.3226 5.91844C12.1234 6.03589 11.9491 6.0036 11.8406 5.82881C11.7376 5.66293 11.7827 5.5015 11.9703 5.36791C12.4045 5.05729 12.9778 5.03781 13.4343 5.33117C13.5395 5.39908 13.618 5.40186 13.7326 5.35622C14.8192 4.9237 16.0049 5.73975 15.9988 6.90984C15.996 7.09854 15.9604 7.28168 15.8969 7.45814C15.8218 7.668 15.6626 7.75539 15.4789 7.69917C15.2902 7.64128 15.215 7.47317 15.2801 7.24884C15.4026 6.82689 15.333 6.44837 14.999 6.14945C14.6996 5.88114 14.3466 5.83271 13.9715 5.9652C13.8885 5.99414 13.8128 6.04758 13.7354 6.09323ZM16.3088 9.9859C16.1758 10.1551 16.0066 10.1635 15.8045 10.0015C15.6175 9.85175 15.4165 9.81891 15.2067 9.93246C15.0091 10.0393 14.9361 10.218 14.9567 10.4396C14.9684 10.5643 15.0374 10.6561 15.1143 10.7474C15.2545 10.915 15.2462 11.0886 15.0953 11.2222C14.9512 11.3503 14.7686 11.3313 14.6188 11.1732C14.2921 10.8287 14.2002 10.3321 14.3945 9.90352C14.601 9.44817 14.9718 9.23386 15.4471 9.20213C15.7466 9.21772 16.0027 9.30734 16.2203 9.49605C16.3985 9.64968 16.4302 9.83171 16.3088 9.9859ZM19.0075 12.9679C18.8867 13.1132 18.6479 13.1299 18.4954 12.9723C18.3011 12.7714 18.0556 12.7569 17.8046 12.8599C17.524 12.9751 17.3698 13.1878 17.3359 13.4906C17.3069 13.745 17.1021 13.8758 16.88 13.7806C16.7135 13.7094 16.6807 13.5635 16.6935 13.3976C16.7536 12.846 17.0481 12.4563 17.5563 12.2543C18.0473 12.0594 18.5215 12.1101 18.9296 12.4792C19.1127 12.6439 19.1344 12.8148 19.0075 12.9679ZM19.676 9.83616C19.4673 9.84062 19.3398 9.72093 19.3348 9.48157C19.3292 9.22329 19.2112 9.04571 18.9875 8.93939C18.7409 8.8225 18.5037 8.8559 18.2844 9.01733C18.2566 9.03792 18.2326 9.06353 18.2048 9.08412C18.0456 9.20158 17.8797 9.19434 17.7573 9.06464C17.6287 8.92826 17.6326 8.75013 17.7684 8.59817C18.0757 8.25415 18.6941 8.12334 19.1712 8.30036C19.6521 8.47904 19.9944 8.95164 19.9967 9.43983C19.9983 9.69255 19.8859 9.83171 19.676 9.83616ZM20.2227 6.30754C20.0468 6.42109 19.872 6.38714 19.749 6.17672C19.4016 5.585 18.5739 5.29164 17.878 5.65013C17.6682 5.75812 17.4973 5.69577 17.4077 5.5093C17.3203 5.32783 17.3882 5.16417 17.6047 5.05562C17.8931 4.91034 18.2009 4.83964 18.5466 4.82795C19.2775 4.86692 19.882 5.17141 20.2928 5.81991C20.4231 6.02587 20.3952 6.19621 20.2227 6.30754Z" fill="#23AFA4"/>
<path d="M14.4412 17.1585C14.233 17.1585 14.0337 17.1496 13.8361 17.1613C13.6992 17.1696 13.6624 17.1262 13.6641 16.9898C13.6714 16.358 13.6452 15.7257 13.673 15.095C13.7092 14.2617 13.1414 13.8225 12.5898 13.6661C12.0058 13.5007 11.4236 13.3276 10.8358 13.1784C10.6432 13.1294 10.4979 13.0393 10.3648 12.9023C9.98186 12.5077 9.66623 12.059 9.33503 11.6231C8.87412 11.0158 8.43714 10.3879 7.86323 9.87581C7.54706 9.59303 7.19469 9.44384 6.75327 9.44885C5.30263 9.46611 3.85199 9.45498 2.40079 9.45553C2.13304 9.45553 2 9.57076 2.00334 9.79453C2.00613 10.0094 2.13694 10.1207 2.39189 10.1213C3.02369 10.1224 3.65549 10.1257 4.28674 10.1185C4.42479 10.1168 4.47544 10.1397 4.47377 10.2944C4.46431 11.1901 4.46208 12.0852 4.47154 12.9808C4.47322 13.1495 4.41421 13.1667 4.27171 13.1656C3.57756 13.1589 2.88341 13.1662 2.18927 13.1595C2.05511 13.1584 1.99945 13.1756 2 13.3326C2.00613 15.4429 2.00557 17.5532 2.00056 19.6634C2 19.8076 2.04788 19.8299 2.17591 19.8293C3.238 19.8249 4.3001 19.8238 5.36219 19.8304C5.50414 19.8316 5.52974 19.7837 5.53754 19.6556C5.6305 18.0753 6.93474 16.8579 8.51563 16.8696C10.0442 16.8807 11.3579 18.1488 11.4141 19.6768C11.4191 19.816 11.4676 19.8321 11.5839 19.8293C11.8823 19.8226 12.1806 19.8254 12.4796 19.8271C12.7445 19.8288 12.9878 19.7531 13.1993 19.5994C13.314 19.5165 13.427 19.4887 13.5634 19.4914C13.884 19.4987 14.2046 19.4937 14.5509 19.4937C13.9079 18.7422 13.8818 18.092 14.4412 17.1585ZM3.6772 15.8259C3.5603 15.8342 3.44285 15.8275 3.3254 15.8275C3.22186 15.8275 3.11832 15.8326 3.01478 15.827C2.81439 15.8159 2.68023 15.6884 2.67244 15.5097C2.66465 15.3332 2.79546 15.1785 2.98918 15.1679C3.22297 15.1551 3.45899 15.1546 3.69279 15.1679C3.88149 15.1785 4.00062 15.3193 4.00229 15.4936C4.0034 15.6767 3.87537 15.812 3.6772 15.8259ZM9.47308 13.1628C8.10037 13.1628 6.7271 13.1601 5.3544 13.1667C5.19408 13.1673 5.14899 13.13 5.15066 12.9652C5.16068 12.0779 5.16068 11.1901 5.15512 10.3028C5.154 10.1614 5.18406 10.1152 5.3338 10.1185C5.80529 10.1291 6.27733 10.133 6.74826 10.118C7.0032 10.1102 7.2036 10.1987 7.3873 10.3595C7.89162 10.8021 8.2785 11.3443 8.67539 11.8775C8.98934 12.3 9.28994 12.732 9.67291 13.1628C9.57884 13.1628 9.52596 13.1628 9.47308 13.1628Z" fill="#23AFA4"/>
<path d="M8.51228 17.5357C7.22085 17.5301 6.18658 18.5376 6.17489 19.8129C6.16376 21.0626 7.19691 22.1119 8.44326 22.1169C9.73636 22.1225 10.7595 21.1144 10.7651 19.8296C10.7701 18.5805 9.74972 17.5412 8.51228 17.5357ZM9.66622 19.8569C9.64618 20.5082 9.08953 21.0342 8.44326 21.012C7.76525 20.9891 7.2676 20.4453 7.29043 19.7534C7.31047 19.136 7.88159 18.6117 8.50504 18.6378C9.16412 18.6657 9.68626 19.2134 9.66622 19.8569Z" fill="#23AFA4"/>
<path d="M9.00046 19.8235C9.00158 20.1274 8.76388 20.3673 8.46719 20.3629C8.17996 20.3584 7.94894 20.1213 7.94727 19.8296C7.9456 19.5301 8.18942 19.2841 8.48222 19.2896C8.77223 19.2958 8.99991 19.5296 9.00046 19.8235Z" fill="#23AFA4"/>
</svg>
