<svg width="25" height="24" viewBox="0 0 25 24" fill="none" xmlns="http://www.w3.org/2000/svg">
<rect x="3.875" y="3" width="18" height="18" rx="1.5" fill="#2291C5" stroke="#2291C5"/>
<path fill-rule="evenodd" clip-rule="evenodd" d="M11.8375 15.738C11.7208 15.7793 11.5958 15.8 11.4625 15.8C11.3292 15.8 11.2042 15.7793 11.0875 15.738C10.9708 15.696 10.8625 15.625 10.7625 15.525L7.91251 12.675C7.72918 12.4916 7.63751 12.2583 7.63751 11.975C7.63751 11.6916 7.72918 11.4583 7.91251 11.275C8.11251 11.075 8.34585 10.975 8.61251 10.975C8.87918 10.975 9.10418 11.0666 9.28751 11.25L11.4625 13.425L16.4125 8.47495C16.5958 8.29162 16.8292 8.19995 17.1125 8.19995C17.3958 8.19995 17.6292 8.29162 17.8125 8.47495C18.0125 8.67495 18.1125 8.90828 18.1125 9.17495C18.1125 9.44162 18.0208 9.66662 17.8375 9.84995L12.1625 15.525C12.0625 15.625 11.9542 15.696 11.8375 15.738Z" fill="white"/>
</svg>
