<svg width="24" height="24" viewBox="0 0 24 24" fill="none" xmlns="http://www.w3.org/2000/svg">
<path d="M10.2373 21.965C9.29606 21.8528 8.55842 21.3861 7.9706 20.6599C7.36659 19.9134 7.05389 19.0285 6.76833 18.1306C6.2656 16.5504 5.94924 14.9315 5.74565 13.2881C5.63811 12.4189 5.59739 11.5534 5.76757 10.6873C5.98474 9.58163 6.56108 8.71713 7.48875 8.07763C8.19246 7.59265 8.93063 7.16771 9.76173 6.95941C10.7959 6.69996 11.8442 6.63783 12.8726 7.00117C14.4131 7.54514 15.0537 9.10292 14.3614 10.5871C14.1819 10.9718 13.9417 11.318 13.6891 11.6568C13.4051 12.0368 13.1414 12.4283 12.9264 12.8538C12.5275 13.6421 12.4508 14.4471 12.7572 15.2808C13.0407 16.0518 13.3382 16.8177 13.6108 17.5924C13.8076 18.1515 13.9287 18.7273 13.8843 19.3292C13.817 20.2418 13.3602 20.9147 12.6199 21.4143C12.1616 21.7238 11.6594 21.9207 11.1034 21.9682C11.0888 21.9692 11.0757 21.989 11.0621 22C10.8538 22 10.6455 22 10.4372 22C10.3772 21.9525 10.2994 22.0026 10.2373 21.965Z" fill="#23AFA4"/>
<path d="M10.2373 21.9655C10.3078 21.9561 10.3783 21.9482 10.4383 21.9999C10.373 21.9999 10.3083 21.9999 10.243 21.9999C10.2451 21.9874 10.243 21.9759 10.2373 21.9655Z" fill="#23AFA4"/>
<path d="M15.607 7.15541C14.4271 7.15437 13.4666 6.19798 13.4561 5.01503C13.4457 3.82738 14.4251 2.85586 15.6299 2.85899C16.8077 2.8616 17.7734 3.83156 17.7713 5.00877C17.7687 6.19694 16.8014 7.15645 15.607 7.15541Z" fill="#23AFA4"/>
<path d="M11.1159 5.51506C10.1475 5.51401 9.35345 4.72103 9.35449 3.75629C9.35554 2.78059 10.1511 1.99701 11.1373 1.99962C12.1031 2.00223 12.9007 2.80722 12.8887 3.76778C12.8762 4.74087 12.09 5.5161 11.1159 5.51506Z" fill="#23AFA4"/>
<path d="M7.02696 3.24961C7.99691 3.25066 8.78938 4.04364 8.78624 5.00942C8.78363 5.98564 7.98908 6.76766 7.00242 6.76453C6.04604 6.76192 5.26036 5.97624 5.25201 5.01412C5.24418 4.04416 6.04447 3.24857 7.02696 3.24961Z" fill="#23AFA4"/>
<path d="M3.90706 6.37461C4.87493 6.3767 5.67 7.17595 5.66217 8.13912C5.65434 9.11847 4.8624 9.89371 3.87417 9.89005C2.91936 9.88692 2.13107 9.09446 2.12794 8.13547C2.12481 7.16238 2.92197 6.37305 3.90706 6.37461Z" fill="#23AFA4"/>
<path d="M15.5493 12.4284C15.8824 12.4253 16.1888 12.5177 16.4692 12.6957C16.6931 12.8382 16.7568 13.0611 16.6331 13.2605C16.5136 13.4537 16.2917 13.5085 16.0714 13.3738C15.4251 12.9797 14.7365 13.379 14.6013 13.9267C14.5147 14.2785 14.5799 14.6001 14.8404 14.8616C15.091 15.1127 15.3927 15.2145 15.7472 15.1295C15.885 15.0966 15.991 15.0172 16.0897 14.9196C16.2745 14.7369 16.4916 14.7238 16.6603 14.8783C16.8336 15.0376 16.8325 15.2673 16.6576 15.4667C16.1544 16.0425 15.1891 16.1104 14.5094 15.6181C13.8825 15.1634 13.6199 14.3751 13.8543 13.6505C14.0928 12.9134 14.7663 12.4284 15.5493 12.4284Z" fill="white"/>
<path d="M21.0573 18.2851C21.2212 18.2851 21.3554 18.2799 21.489 18.2861C21.7062 18.296 21.8722 18.4694 21.8712 18.675C21.8696 18.8792 21.701 19.0619 21.487 19.066C21.0902 19.0734 20.6929 19.0781 20.2967 19.0645C19.9501 19.0525 19.7846 18.6944 19.9892 18.3968C20.2168 18.0653 20.4643 17.7468 20.6987 17.4195C20.7853 17.2984 20.8636 17.171 20.9372 17.0416C21.0035 16.9246 20.9994 16.8113 20.86 16.7503C20.7164 16.6871 20.6376 16.7738 20.5963 16.897C20.5368 17.0745 20.4293 17.1872 20.2351 17.1971C19.9615 17.2107 19.7679 16.9821 19.8242 16.7132C19.9339 16.1885 20.4961 15.8341 21.0093 15.9656C21.5715 16.1092 21.8884 16.6516 21.724 17.193C21.6216 17.5292 21.3998 17.7959 21.2035 18.0773C21.1602 18.1384 21.1168 18.2 21.0573 18.2851Z" fill="white"/>
<path d="M18.9513 12.4293C17.9657 12.4267 17.1696 13.2098 17.167 14.1849C17.1644 15.1481 17.9605 15.9437 18.9273 15.9447C19.9082 15.9458 20.7101 15.1481 20.7007 14.1792C20.6924 13.216 19.9077 12.4319 18.9513 12.4293ZM18.9435 15.1627C18.4105 15.17 17.9689 14.7279 17.9694 14.186C17.9694 13.6519 18.3954 13.2176 18.9252 13.2108C19.4593 13.204 19.8994 13.6451 19.8994 14.187C19.8989 14.7206 19.4729 15.1554 18.9435 15.1627Z" fill="white"/>
</svg>
