<svg width="25" height="24" viewBox="0 0 25 24" fill="none" xmlns="http://www.w3.org/2000/svg">
<path d="M10.7377 21.965C9.79643 21.8528 9.05878 21.3861 8.47096 20.6599C7.86696 19.9134 7.55425 19.0285 7.2687 18.1306C6.76597 16.5504 6.44961 14.9315 6.24601 13.2881C6.13847 12.4189 6.09775 11.5534 6.26794 10.6873C6.48511 9.58163 7.06144 8.71712 7.98912 8.07762C8.69283 7.59264 9.431 7.1677 10.2621 6.9594C11.2963 6.69995 12.3445 6.63782 13.3729 7.00117C14.9135 7.54514 15.554 9.10291 14.8618 10.5871C14.6822 10.9718 14.4421 11.3179 14.1894 11.6567C13.9054 12.0368 13.6418 12.4283 13.4267 12.8538C13.0279 13.6421 12.9511 14.4471 13.2576 15.2808C13.541 16.0518 13.8386 16.8177 14.1111 17.5924C14.3079 18.1515 14.429 18.7273 14.3847 19.3292C14.3173 20.2418 13.8605 20.9147 13.1203 21.4143C12.6619 21.7238 12.1597 21.9206 11.6037 21.9681C11.5891 21.9692 11.5761 21.989 11.5625 22C11.3542 22 11.1459 22 10.9376 22C10.8776 21.9525 10.7998 22.0026 10.7377 21.965Z" fill="white"/>
<path d="M10.7377 21.9654C10.8081 21.956 10.8786 21.9482 10.9387 21.9999C10.8734 21.9999 10.8087 21.9999 10.7434 21.9999C10.7455 21.9874 10.7434 21.9759 10.7377 21.9654Z" fill="white"/>
<path d="M16.1073 7.1554C14.9275 7.15436 13.9669 6.19797 13.9565 5.01502C13.9461 3.82738 14.9254 2.85585 16.1303 2.85899C17.308 2.8616 18.2738 3.83155 18.2717 5.00876C18.2691 6.19693 17.3018 7.15645 16.1073 7.1554Z" fill="white"/>
<path d="M11.6162 5.51505C10.6478 5.514 9.85382 4.72102 9.85486 3.75629C9.8559 2.78059 10.6515 1.997 11.6376 1.99961C12.6034 2.00222 13.4011 2.80721 13.3891 3.76777C13.3766 4.74086 12.5904 5.51609 11.6162 5.51505Z" fill="white"/>
<path d="M7.52781 3.2496C8.49777 3.25065 9.29023 4.04363 9.2871 5.00941C9.28449 5.98563 8.48994 6.76765 7.50328 6.76452C6.54689 6.76191 5.76122 5.97624 5.75286 5.01411C5.74503 4.04415 6.54533 3.24856 7.52781 3.2496Z" fill="white"/>
<path d="M4.40743 6.37461C5.3753 6.37669 6.17037 7.17594 6.16254 8.13911C6.15471 9.11846 5.36277 9.8937 4.37454 9.89004C3.41972 9.88691 2.63144 9.09445 2.62831 8.13546C2.62517 7.16237 3.42233 6.37304 4.40743 6.37461Z" fill="white"/>
<path d="M16.0497 12.4284C16.3828 12.4253 16.6892 12.5177 16.9696 12.6957C17.1935 12.8382 17.2572 13.0611 17.1335 13.2605C17.0139 13.4537 16.7921 13.5085 16.5718 13.3738C15.9255 12.9797 15.2369 13.379 15.1017 13.9267C15.015 14.2785 15.0803 14.6001 15.3408 14.8616C15.5914 15.1127 15.8931 15.2145 16.2476 15.1294C16.3854 15.0966 16.4914 15.0172 16.59 14.9196C16.7748 14.7369 16.992 14.7238 17.1606 14.8783C17.3339 15.0376 17.3329 15.2673 17.158 15.4667C16.6548 16.0425 15.6895 16.1104 15.0098 15.6181C14.3828 15.1634 14.1202 14.3751 14.3546 13.6505C14.5932 12.9134 15.2666 12.4284 16.0497 12.4284Z" fill="white"/>
<path d="M21.5577 18.2851C21.7216 18.2851 21.8558 18.2798 21.9894 18.2861C22.2066 18.296 22.3726 18.4693 22.3715 18.675C22.37 18.8791 22.2014 19.0619 21.9873 19.066C21.5906 19.0734 21.1933 19.078 20.7971 19.0645C20.4504 19.0525 20.2849 18.6943 20.4896 18.3968C20.7172 18.0653 20.9646 17.7468 21.199 17.4195C21.2857 17.2984 21.364 17.171 21.4376 17.0416C21.5039 16.9246 21.4997 16.8113 21.3603 16.7503C21.2168 16.6871 21.138 16.7737 21.0967 16.897C21.0372 17.0744 20.9297 17.1872 20.7355 17.1971C20.4619 17.2107 20.2682 16.982 20.3246 16.7132C20.4342 16.1885 20.9965 15.8341 21.5096 15.9656C22.0719 16.1092 22.3888 16.6516 22.2243 17.193C22.122 17.5291 21.9001 17.7959 21.7039 18.0773C21.6605 18.1384 21.6172 18.2 21.5577 18.2851Z" fill="white"/>
<path d="M19.4517 12.4293C18.4661 12.4267 17.67 13.2098 17.6674 14.1849C17.6648 15.1481 18.4609 15.9437 19.4277 15.9447C20.4086 15.9458 21.2105 15.1481 21.2011 14.1792C21.1927 13.216 20.4081 12.4319 19.4517 12.4293ZM19.4439 15.1627C18.9109 15.17 18.4692 14.7279 18.4697 14.186C18.4697 13.6519 18.8957 13.2176 19.4256 13.2108C19.9597 13.204 20.3997 13.6451 20.3997 14.187C20.3992 14.7205 19.9732 15.1554 19.4439 15.1627Z" fill="white"/>
</svg>
