<svg width="25" height="24" viewBox="0 0 25 24" fill="none" xmlns="http://www.w3.org/2000/svg">
<path fill-rule="evenodd" clip-rule="evenodd" d="M21.0859 5.24297C21.475 5.24297 21.7988 5.56596 21.7988 5.97696V6.35696C21.7988 6.75795 21.475 7.09095 21.0859 7.09095H4.51268C4.12269 7.09095 3.79883 6.75795 3.79883 6.35696V5.97696C3.79883 5.56596 4.12269 5.24297 4.51268 5.24297H7.42839C8.02068 5.24297 8.53613 4.82197 8.66937 4.22798L8.82206 3.54598C9.05936 2.61699 9.84032 2 10.7341 2H14.8636C15.7476 2 16.5373 2.61699 16.7659 3.49699L16.9293 4.22698C17.0615 4.82197 17.577 5.24297 18.1702 5.24297H21.0859ZM19.6047 19.134C19.9091 16.2971 20.442 9.55712 20.442 9.48913C20.4615 9.28313 20.3944 9.08813 20.2611 8.93113C20.1182 8.78413 19.9373 8.69713 19.7379 8.69713H5.86735C5.667 8.69713 5.47638 8.78413 5.34412 8.93113C5.2099 9.08813 5.14377 9.28313 5.1535 9.48913C5.15528 9.50162 5.17441 9.73903 5.20638 10.1359C5.34841 11.8992 5.744 16.8102 5.99962 19.134C6.18051 20.846 7.30381 21.922 8.93089 21.961C10.1865 21.99 11.4799 22 12.8026 22C14.0485 22 15.3138 21.99 16.6082 21.961C18.2917 21.932 19.414 20.875 19.6047 19.134Z" fill="white"/>
</svg>
