<svg width="25" height="24" viewBox="0 0 25 24" fill="none" xmlns="http://www.w3.org/2000/svg">
<path d="M20.7915 18.9534H15.0973C14.5417 18.9534 14.0898 19.4124 14.0898 19.9767C14.0898 20.5422 14.5417 21.0001 15.0973 21.0001H20.7915C21.3471 21.0001 21.799 20.5422 21.799 19.9767C21.799 19.4124 21.3471 18.9534 20.7915 18.9534Z" fill="white"/>
<path d="M11.1079 6.90385L16.5037 11.2639C16.6339 11.3682 16.6561 11.5596 16.5545 11.6929L10.1576 20.0282C9.75545 20.5431 9.16284 20.8344 8.52791 20.8452L5.03579 20.8882C4.84954 20.8903 4.68658 20.7613 4.64425 20.5764L3.85058 17.1258C3.71301 16.4915 3.85058 15.8358 4.25271 15.3306L10.6814 6.95545C10.7851 6.82108 10.9766 6.79743 11.1079 6.90385Z" fill="white"/>
<path d="M18.9201 8.66544L17.8799 9.96401C17.7751 10.0962 17.5867 10.1177 17.4566 10.0124C16.192 8.98901 12.9539 6.36285 12.0554 5.63509C11.9242 5.52759 11.9062 5.33625 12.012 5.20295L13.0152 3.95706C13.9253 2.78534 15.5126 2.67784 16.7931 3.69906L18.264 4.87078C18.8672 5.34377 19.2693 5.96726 19.4069 6.62299C19.5656 7.3443 19.3963 8.0527 18.9201 8.66544Z" fill="white"/>
</svg>
