<svg width="25" height="24" viewBox="0 0 25 24" fill="none" xmlns="http://www.w3.org/2000/svg">
<path d="M13.8413 19.9335C10.6679 19.9335 7.53822 19.9335 4.38293 19.9335C4.44631 19.8296 4.50329 19.7354 4.56187 19.6416C5.56357 18.0334 6.28995 16.3149 6.62918 14.4446C6.82888 13.3428 6.88533 12.2324 6.7719 11.1162C6.73516 10.7546 6.73303 10.7546 7.08716 10.7546C8.48827 10.7546 9.88938 10.7562 11.29 10.752C11.4247 10.7514 11.4854 10.7589 11.4684 10.9288C11.389 11.7292 11.3831 12.5307 11.4529 13.3337C11.5706 14.689 11.9056 15.9884 12.4354 17.2388C12.8247 18.159 13.2609 19.0548 13.8413 19.9335Z" fill="white"/>
<path d="M20.5962 19.9661C19.9204 19.9661 19.2696 19.9661 18.6194 19.9661C17.2385 19.9661 15.8571 19.9645 14.4762 19.9687C14.3426 19.9692 14.2648 19.932 14.1919 19.8143C13.6471 18.9372 13.1513 18.0351 12.7577 17.0792C12.7109 16.9657 12.7135 16.872 12.7551 16.7607C13.4032 15.0262 13.6854 13.2348 13.5752 11.3842C13.5656 11.2255 13.5613 11.0641 13.531 10.9092C13.5006 10.7537 13.5773 10.7531 13.6908 10.7537C14.235 10.7574 14.7798 10.7553 15.324 10.7553C16.2469 10.7553 17.1698 10.7601 18.0927 10.751C18.2621 10.7494 18.2818 10.7995 18.2631 10.9523C18.155 11.8454 18.1614 12.74 18.2578 13.6331C18.5033 15.9012 19.3527 17.9483 20.5461 19.8686C20.5594 19.891 20.5695 19.9144 20.5962 19.9661Z" fill="white"/>
<path d="M14.9508 7.80934C13.9513 8.16401 13.2201 7.55958 13.047 6.92106C13.0193 6.81935 12.9868 6.71444 12.9868 6.61113C12.9868 6.48704 12.9432 6.4748 12.8351 6.4929C12.1161 6.61326 11.459 6.22077 11.2332 5.53114C11.1975 5.42303 11.1576 5.38203 11.0404 5.35806C10.28 5.20096 9.76445 4.55553 9.7767 3.79666C9.78895 3.04312 10.3412 2.40514 11.0942 2.27413C11.7876 2.15325 12.4852 2.53561 12.7781 3.19809C12.81 3.27051 12.8383 3.34454 12.8734 3.42974C13.1333 3.09211 13.4533 2.86578 13.882 2.81945C14.7687 2.7236 15.4828 3.38075 15.4552 4.27062C15.4536 4.31695 15.4546 4.36435 15.4466 4.40961C15.4285 4.51239 15.4536 4.555 15.5691 4.5305C16.4356 4.34571 17.4271 5.05984 17.3952 6.15367C17.384 6.5371 17.2365 6.87686 16.9729 7.15591C16.8914 7.24218 16.901 7.27414 16.9883 7.34177C17.1481 7.46532 17.2514 7.6336 17.3297 7.82158C17.3877 7.96004 17.3712 8.00371 17.2104 8.00211C16.5 7.99519 15.7891 7.99839 15.0787 7.99998C14.954 7.99998 14.8172 8.02235 14.9508 7.80934Z" fill="white"/>
<path d="M8.58476 4.68458C9.3676 4.55304 10.0162 4.85233 10.356 5.49403C10.6926 6.13042 10.5738 6.8323 10.0285 7.392C10.1882 7.54005 10.3469 7.68862 10.4391 7.89365C10.4779 7.97992 10.4715 8.01241 10.3698 8.00921C9.60298 7.98578 8.83452 8.05235 8.0682 7.97513C8.03146 7.9714 7.99152 7.98898 7.95477 8.00122C7.03135 8.31755 6.12124 7.58851 6.11166 6.7013C6.11112 6.6752 6.10473 6.64964 6.10047 6.61769C5.44385 6.75082 4.87617 6.59639 4.53321 6.00793C4.35588 5.70385 4.17748 5.50575 3.83985 5.36303C3.21092 5.09836 2.88714 4.55836 2.9143 3.87459C2.94039 3.22862 3.26897 2.74401 3.88139 2.49212C4.65836 2.17259 5.58018 2.56028 5.92367 3.33832C5.95562 3.41075 5.98225 3.4853 6.0142 3.56678C6.48177 3.02572 7.04466 2.77702 7.7359 3.06406C8.4511 3.36175 8.66145 3.95606 8.58476 4.68458Z" fill="white"/>
<path d="M12.3999 21.7196C9.63711 21.7196 6.87484 21.7196 4.11203 21.7196C4.07209 21.7196 4.03215 21.7191 3.99274 21.7196C3.8399 21.7218 3.6844 21.7234 3.68919 21.5066C3.69399 21.3027 3.84416 21.2979 3.98795 21.3144C4.12268 21.3298 4.13866 21.2702 4.13493 21.1568C4.12694 20.9315 4.14132 20.7046 4.1296 20.4799C4.12215 20.3425 4.1738 20.3026 4.29842 20.3207C4.32451 20.3244 4.35167 20.3212 4.37777 20.3212C9.79687 20.3212 15.216 20.3223 20.6346 20.3164C20.8241 20.3164 20.8939 20.3553 20.8715 20.5518C20.8529 20.7158 20.8662 20.8836 20.8683 21.0492C20.8699 21.1844 20.8167 21.3453 21.0515 21.3543C21.1458 21.3581 21.157 21.4576 21.149 21.5434C21.1405 21.6334 21.0957 21.6951 21.0063 21.709C20.9349 21.7202 20.8609 21.7186 20.7879 21.7186C17.9916 21.7196 15.1957 21.7196 12.3999 21.7196Z" fill="white"/>
<path d="M9.09606 10.3456C8.35211 10.3456 7.60868 10.3408 6.86526 10.3498C6.72361 10.3514 6.66449 10.3125 6.64692 10.1741C6.58355 9.67457 6.45308 9.18943 6.31462 8.70695C6.25178 8.48807 6.33326 8.36879 6.55639 8.36879C8.24986 8.36665 9.9428 8.36665 11.6363 8.36879C11.8472 8.36932 11.9334 8.49127 11.8759 8.69683C11.7353 9.20008 11.616 9.70865 11.5463 10.2263C11.5282 10.3594 11.4541 10.3461 11.3673 10.3461C10.6101 10.3456 9.85333 10.3456 9.09606 10.3456Z" fill="white"/>
<path d="M15.8919 8.39683C16.7216 8.39683 17.5519 8.3963 18.3815 8.39736C18.6489 8.3979 18.7362 8.50387 18.6638 8.75363C18.5264 9.23079 18.414 9.71273 18.3496 10.2048C18.3342 10.323 18.2825 10.3608 18.1574 10.3603C16.6503 10.355 15.1432 10.355 13.6366 10.3603C13.5003 10.3608 13.4662 10.322 13.4465 10.1888C13.3741 9.69836 13.2623 9.21588 13.1307 8.73766C13.0652 8.49908 13.1392 8.39736 13.3826 8.39736C14.2192 8.39577 15.0553 8.39683 15.8919 8.39683Z" fill="white"/>
<path d="M22.0133 21.7462C21.9271 21.7462 21.8408 21.751 21.7551 21.7451C21.632 21.7366 21.558 21.6631 21.5527 21.5422C21.5468 21.4181 21.6219 21.3351 21.7412 21.3276C21.9324 21.3159 22.1257 21.3138 22.3163 21.3303C22.4303 21.3399 22.5081 21.4213 22.4995 21.5497C22.491 21.6754 22.4127 21.7387 22.2919 21.7457C22.1992 21.7504 22.106 21.7462 22.0133 21.7462Z" fill="white"/>
<path d="M2.86338 21.7467C2.82397 21.7467 2.78403 21.7467 2.74463 21.7467C2.6083 21.7478 2.50978 21.6945 2.50072 21.5475C2.49114 21.3856 2.59711 21.3276 2.73877 21.3201C2.8309 21.3148 2.92409 21.3154 3.01622 21.3207C3.15308 21.3287 3.24841 21.3995 3.24255 21.5411C3.23669 21.6801 3.14456 21.7504 3.00238 21.7472C2.95604 21.7462 2.90971 21.7467 2.86338 21.7467Z" fill="white"/>
</svg>
