<svg width="24" height="25" viewBox="0 0 24 25" fill="none" xmlns="http://www.w3.org/2000/svg">
<path d="M13.3412 20.0507C10.1678 20.0507 7.0381 20.0507 3.88281 20.0507C3.94618 19.9468 4.00317 19.8525 4.06175 19.7588C5.06345 18.1506 5.78983 16.4321 6.12906 14.5618C6.32876 13.46 6.38521 12.3496 6.27178 11.2334C6.23503 10.8718 6.2329 10.8718 6.58704 10.8718C7.98815 10.8718 9.38926 10.8734 10.7898 10.8692C10.9246 10.8686 10.9853 10.8761 10.9682 11.046C10.8889 11.8464 10.883 12.6478 10.9528 13.4509C11.0705 14.8062 11.4054 16.1056 11.9353 17.356C12.3246 18.2762 12.7608 19.172 13.3412 20.0507Z" fill="#23AFA4"/>
<path d="M20.0956 20.0832C19.4198 20.0832 18.769 20.0832 18.1188 20.0832C16.7379 20.0832 15.3565 20.0816 13.9756 20.0859C13.842 20.0864 13.7642 20.0492 13.6913 19.9315C13.1465 19.0544 12.6507 18.1523 12.2571 17.1964C12.2103 17.0829 12.2129 16.9892 12.2545 16.8779C12.9026 15.1434 13.1848 13.352 13.0746 11.5014C13.065 11.3427 13.0607 11.1813 13.0304 11.0264C13 10.8709 13.0767 10.8703 13.1901 10.8709C13.7344 10.8746 14.2792 10.8725 14.8234 10.8725C15.7463 10.8725 16.6692 10.8773 17.5921 10.8682C17.7615 10.8666 17.7812 10.9167 17.7625 11.0695C17.6544 11.9626 17.6608 12.8572 17.7572 13.7503C18.0027 16.0184 18.8521 18.0655 20.0455 19.9858C20.0588 20.0082 20.0689 20.0316 20.0956 20.0832Z" fill="#23AFA4"/>
<path d="M14.4507 7.92652C13.4511 8.28119 12.72 7.67676 12.5469 7.03825C12.5192 6.93654 12.4867 6.83162 12.4867 6.72831C12.4867 6.60423 12.4431 6.59198 12.3349 6.61009C11.616 6.73044 10.9589 6.33796 10.7331 5.64833C10.6974 5.54022 10.6575 5.49921 10.5403 5.47525C9.77983 5.31815 9.26433 4.67272 9.27658 3.91385C9.28883 3.16031 9.84107 2.52233 10.5941 2.39132C11.2874 2.27044 11.9851 2.6528 12.278 3.31528C12.3099 3.3877 12.3381 3.46172 12.3733 3.54693C12.6332 3.2093 12.9532 2.98297 13.3819 2.93664C14.2686 2.84078 14.9827 3.49794 14.955 4.38781C14.9534 4.43414 14.9545 4.48153 14.9465 4.5268C14.9284 4.62958 14.9534 4.67218 15.069 4.64769C15.9354 4.4629 16.927 5.17703 16.8951 6.27086C16.8839 6.65429 16.7364 6.99405 16.4728 7.2731C16.3913 7.35937 16.4009 7.39132 16.4882 7.45896C16.648 7.5825 16.7513 7.75079 16.8296 7.93877C16.8876 8.07723 16.8711 8.1209 16.7103 8.1193C15.9999 8.11238 15.2889 8.11557 14.5785 8.11717C14.4539 8.11717 14.3171 8.13954 14.4507 7.92652Z" fill="#23AFA4"/>
<path d="M8.08415 4.80176C8.86698 4.67023 9.51562 4.96951 9.85538 5.61122C10.1919 6.2476 10.0732 6.94949 9.52786 7.50919C9.68763 7.65723 9.84632 7.80581 9.93845 8.01084C9.97733 8.09711 9.97094 8.12959 9.86922 8.1264C9.10237 8.10297 8.33391 8.16954 7.56759 8.09232C7.53085 8.08859 7.49091 8.10616 7.45416 8.11841C6.53074 8.43474 5.62063 7.70569 5.61105 6.81849C5.61051 6.79239 5.60412 6.76683 5.59986 6.73488C4.94324 6.86801 4.37556 6.71358 4.0326 6.12512C3.85527 5.82104 3.67687 5.62294 3.33924 5.48022C2.71031 5.21555 2.38653 4.67555 2.41369 3.99177C2.43978 3.3458 2.76836 2.86119 3.38078 2.6093C4.15775 2.28978 5.07957 2.67747 5.42306 3.45551C5.45501 3.52793 5.48164 3.60249 5.51359 3.68397C5.98116 3.14291 6.54405 2.89421 7.23529 3.18125C7.95049 3.47894 8.16084 4.07325 8.08415 4.80176Z" fill="#23AFA4"/>
<path d="M11.9003 21.8368C9.13748 21.8368 6.3752 21.8368 3.6124 21.8368C3.57246 21.8368 3.53252 21.8363 3.49311 21.8368C3.34027 21.839 3.18477 21.8406 3.18956 21.6238C3.19435 21.4199 3.34453 21.4151 3.48832 21.4316C3.62305 21.447 3.63902 21.3874 3.6353 21.2739C3.62731 21.0487 3.64169 20.8218 3.62997 20.5971C3.62251 20.4597 3.67417 20.4197 3.79878 20.4379C3.82488 20.4416 3.85204 20.4384 3.87813 20.4384C9.29724 20.4384 14.7163 20.4395 20.1349 20.4336C20.3245 20.4336 20.3943 20.4725 20.3719 20.669C20.3533 20.833 20.3666 21.0007 20.3687 21.1664C20.3703 21.3016 20.3171 21.4625 20.5519 21.4715C20.6462 21.4752 20.6573 21.5748 20.6494 21.6606C20.6408 21.7506 20.5961 21.8123 20.5066 21.8262C20.4353 21.8374 20.3613 21.8358 20.2883 21.8358C17.4919 21.8368 14.6961 21.8368 11.9003 21.8368Z" fill="#23AFA4"/>
<path d="M8.59594 10.4628C7.85199 10.4628 7.10856 10.458 6.36514 10.467C6.22348 10.4686 6.16437 10.4297 6.1468 10.2913C6.08343 9.79176 5.95295 9.30661 5.81449 8.82413C5.75165 8.60526 5.83313 8.48597 6.05627 8.48597C7.74974 8.48384 9.44268 8.48384 11.1361 8.48597C11.347 8.48651 11.4333 8.60846 11.3758 8.81402C11.2352 9.31726 11.1159 9.82584 11.0461 10.3435C11.028 10.4766 10.954 10.4633 10.8672 10.4633C10.1099 10.4628 9.35321 10.4628 8.59594 10.4628Z" fill="#23AFA4"/>
<path d="M15.3913 8.51402C16.221 8.51402 17.0512 8.51349 17.8809 8.51455C18.1483 8.51508 18.2356 8.62106 18.1632 8.87082C18.0258 9.34797 17.9134 9.82992 17.849 10.322C17.8335 10.4402 17.7819 10.478 17.6567 10.4775C16.1497 10.4722 14.6426 10.4722 13.136 10.4775C12.9997 10.478 12.9656 10.4391 12.9459 10.306C12.8735 9.81554 12.7617 9.33306 12.6301 8.85484C12.5646 8.61627 12.6386 8.51455 12.882 8.51455C13.7186 8.51295 14.5547 8.51402 15.3913 8.51402Z" fill="white"/>
<path d="M21.5137 21.8634C21.4274 21.8634 21.3412 21.8682 21.2554 21.8623C21.1324 21.8538 21.0584 21.7803 21.0531 21.6594C21.0472 21.5353 21.1223 21.4523 21.2416 21.4448C21.4328 21.4331 21.6261 21.431 21.8167 21.4475C21.9307 21.457 22.0084 21.5385 21.9999 21.6669C21.9914 21.7925 21.9131 21.8559 21.7922 21.8628C21.6996 21.8676 21.6064 21.8634 21.5137 21.8634Z" fill="white"/>
<path d="M2.36326 21.8639C2.32385 21.8639 2.28391 21.8639 2.2445 21.8639C2.10817 21.865 2.00966 21.8117 2.0006 21.6647C1.99102 21.5028 2.09699 21.4448 2.23865 21.4373C2.33078 21.432 2.42397 21.4325 2.5161 21.4379C2.65296 21.4459 2.74829 21.5167 2.74243 21.6583C2.73657 21.7973 2.64444 21.8676 2.50225 21.8644C2.45592 21.8634 2.40959 21.8639 2.36326 21.8639Z" fill="white"/>
</svg>
