<svg width="120" height="121" viewBox="0 0 120 121" fill="none" xmlns="http://www.w3.org/2000/svg">
<circle cx="60" cy="60.5" r="60" fill="white"/>
<path d="M60 0.5C75.913 0.5 91.1742 6.82141 102.426 18.0736C113.679 29.3258 120 44.587 120 60.5C120 76.413 113.679 91.6742 102.426 102.926C91.1742 114.179 75.913 120.5 60 120.5C44.087 120.5 28.8258 114.179 17.5736 102.926C6.32141 91.6742 0 76.413 0 60.5C0 44.587 6.32141 29.3258 17.5736 18.0736C28.8258 6.82141 44.087 0.5 60 0.5ZM52.5257 72.3371L39.1971 59C38.7193 58.5222 38.1521 58.1431 37.5278 57.8845C36.9034 57.6259 36.2343 57.4929 35.5586 57.4929C34.8828 57.4929 34.2137 57.6259 33.5894 57.8845C32.9651 58.1431 32.3978 58.5222 31.92 59C30.955 59.965 30.4129 61.2738 30.4129 62.6386C30.4129 64.0033 30.955 65.3121 31.92 66.2771L48.8914 83.2486C49.3679 83.7288 49.9347 84.1099 50.5592 84.37C51.1837 84.6301 51.8535 84.7641 52.53 84.7641C53.2065 84.7641 53.8763 84.6301 54.5008 84.37C55.1253 84.1099 55.6921 83.7288 56.1686 83.2486L91.3114 48.0971C91.7956 47.6213 92.1808 47.0543 92.4448 46.4288C92.7088 45.8034 92.8463 45.1318 92.8495 44.453C92.8527 43.7741 92.7214 43.1013 92.4632 42.4734C92.2051 41.8455 91.8251 41.275 91.3454 40.7946C90.8656 40.3143 90.2955 39.9337 89.6679 39.6748C89.0404 39.4159 88.3677 39.2839 87.6888 39.2862C87.01 39.2886 86.3383 39.4253 85.7125 39.6886C85.0867 39.9518 84.5193 40.3364 84.0429 40.82L52.5257 72.3371Z" fill="#23AFA4"/>
</svg>
