<svg width="24" height="24" viewBox="0 0 24 24" fill="none" xmlns="http://www.w3.org/2000/svg">
<path d="M12.8778 21.3226C12.7543 21.0342 12.639 20.7554 12.5143 20.4804C12.4681 20.3785 12.4626 20.2944 12.5121 20.1892C13.0064 19.1321 13.3432 18.0266 13.5074 16.8704C13.5291 16.7196 13.5742 16.6589 13.7484 16.6595C15.4696 16.6684 17.1908 16.6695 18.9115 16.6584C19.1046 16.6572 19.138 16.7357 19.1597 16.8849C19.3863 18.4196 19.9001 19.8541 20.6683 21.2001C20.7306 21.3092 20.8024 21.3337 20.9165 21.3321C21.3329 21.3265 21.7493 21.3332 22.1657 21.3276C22.2798 21.3259 22.3343 21.3365 22.3343 21.4785C22.3349 21.9962 22.3421 21.9962 21.8267 21.9962C15.1852 21.9962 8.54369 21.9956 1.9022 22C1.71794 22 1.65838 21.9622 1.66562 21.7685C1.68176 21.3298 1.67063 21.3298 2.10705 21.3298C2.41933 21.3298 2.73162 21.3276 3.0439 21.3315C3.12907 21.3326 3.18029 21.3142 3.21703 21.2263C3.73138 19.9777 4.3476 18.7675 4.64541 17.4371C4.69384 17.2217 4.75396 17.0074 4.78458 16.7897C4.80072 16.6728 4.85193 16.6639 4.94489 16.6645C6.76294 16.6661 8.58154 16.6661 10.3996 16.665C10.482 16.665 10.5315 16.6673 10.5493 16.7764C10.8104 18.3478 11.4995 19.7684 12.1169 21.214C12.1514 21.2948 12.1859 21.3371 12.2805 21.3326C12.447 21.3248 12.6134 21.3309 12.7799 21.3304C12.8066 21.3293 12.8327 21.3259 12.8778 21.3226Z" fill="#23AFA4"/>
<path d="M7.66967 15.9991C6.81019 15.9991 5.95071 15.9952 5.09067 16.003C4.94093 16.0041 4.89194 15.9629 4.922 15.8204C4.93314 15.7664 4.93481 15.7102 4.9426 15.6556C4.9888 15.3327 4.9888 15.3327 5.32781 15.3327C6.93599 15.3327 8.54418 15.335 10.1524 15.3294C10.3066 15.3289 10.3973 15.3389 10.3828 15.5304C10.3717 15.679 10.4852 15.8772 10.3956 15.9673C10.2982 16.0653 10.0934 15.9968 9.93583 15.998C9.181 16.0002 8.42561 15.9991 7.66967 15.9991Z" fill="#23AFA4"/>
<path d="M16.332 15.9988C15.4853 15.9988 14.6386 15.9955 13.7925 16.0021C13.6567 16.0033 13.6199 15.9699 13.625 15.8318C13.6444 15.3325 13.6389 15.3325 14.1376 15.3325C15.6851 15.3325 17.2327 15.3353 18.7796 15.3286C18.9472 15.328 19.0162 15.3536 19.0257 15.5429C19.0485 15.9994 19.0607 15.9988 18.6015 15.9988C17.845 15.9988 17.0885 15.9988 16.332 15.9988Z" fill="#23AFA4"/>
<path d="M7.67249 13.9989C8.50414 13.9989 9.33578 14.0023 10.1674 13.9956C10.301 13.9945 10.3539 14.0262 10.3367 14.1648C10.3161 14.3268 10.4074 14.5444 10.2999 14.6391C10.2086 14.7192 9.99709 14.6647 9.839 14.6652C8.29372 14.6658 6.74788 14.6636 5.20259 14.6691C5.04673 14.6697 4.99385 14.6402 4.99886 14.4704C5.01333 13.9995 5.00442 13.9989 5.46868 13.9989C6.20291 13.9989 6.9377 13.9989 7.67249 13.9989Z" fill="#23AFA4"/>
<path d="M20.9235 7.14779C20.7204 7.03869 20.702 6.95909 20.81 6.77038C20.9948 6.44807 21.0477 6.08792 20.9798 5.72442C20.7788 4.65229 19.7251 4.06558 18.7069 4.4608C18.5316 4.52927 18.4464 4.50088 18.3412 4.35114C18.0734 3.96983 17.6927 3.73993 17.234 3.6876C17.028 3.66422 16.9646 3.58462 16.9078 3.40482C16.5961 2.41453 15.6108 1.83616 14.5927 2.04546C13.8267 2.20355 13.3407 2.68562 13.0841 3.4115C13.0385 3.54009 12.9945 3.58017 12.8503 3.51727C12.3349 3.29238 11.8071 3.269 11.2739 3.46661C10.99 3.57182 10.9889 3.56904 10.8725 3.28236C10.5235 2.42232 9.7347 1.93747 8.79673 2.0065C7.98902 2.06606 7.26759 2.69731 7.05161 3.53285C6.96532 3.86796 6.96532 3.86796 6.63912 3.76554C5.30537 3.34804 4.00835 4.29826 4.0039 5.69603C4.00279 5.99996 4.00279 5.99996 3.66378 6.00219C3.06482 6.00609 2.53822 6.40354 2.38291 6.96855C2.22092 7.55805 2.46196 8.15757 2.98021 8.47765C3.25241 8.64576 3.54744 8.67972 3.8575 8.66858C4.10354 8.65968 4.10855 8.66747 4.054 8.90182C3.91706 9.49467 4.0412 10.0018 4.53885 10.3842C4.84446 10.6191 5.19738 10.6765 5.57646 10.6709C6.24556 10.6614 6.66696 11.0889 6.66918 11.7553C6.67085 12.2061 6.67698 12.6576 6.66529 13.1085C6.66083 13.2794 6.68755 13.3451 6.8835 13.3384C7.41065 13.3211 7.93836 13.3273 8.46552 13.3356C8.61804 13.3384 8.6854 13.3128 8.67315 13.1386C8.6559 12.897 8.66759 12.6531 8.6687 12.4099C8.6726 11.7564 9.0951 11.3355 9.7514 11.3333C10.2997 11.3316 10.848 11.3361 11.3963 11.3316C12.2831 11.3244 13.1008 10.6464 13.2923 9.778C13.3246 9.63049 13.2572 9.41896 13.3919 9.34826C13.5178 9.28258 13.7042 9.33991 13.8634 9.33101C13.9725 9.32488 14.0048 9.35717 13.9954 9.46906C13.9475 10.043 13.761 10.5607 13.3942 11.0093C13.0184 11.4697 12.5347 11.7625 11.9491 11.9239C12.2708 12.3726 12.685 12.6331 13.2233 12.6615C13.5762 12.6799 13.9313 12.6626 14.2848 12.6665C14.8999 12.6732 15.3241 13.0996 15.3313 13.7169C15.3347 13.9875 15.3369 14.2585 15.3297 14.5291C15.3269 14.6376 15.3575 14.6688 15.4672 14.6677C16.0433 14.6621 16.6195 14.6621 17.1956 14.6677C17.3047 14.6688 17.337 14.6387 17.3336 14.5296C17.3259 14.2591 17.3286 13.9886 17.3314 13.7175C17.3375 13.1007 17.7623 12.6732 18.3774 12.6665C18.7103 12.6626 19.0437 12.6715 19.3766 12.6637C20.2561 12.6426 20.9898 11.885 20.9987 11.0088C21.0031 10.5774 20.8423 10.2128 20.5868 9.88266C20.4916 9.75964 20.4916 9.70508 20.6513 9.64942C20.928 9.55367 21.1818 9.41395 21.3705 9.17737C21.906 8.50938 21.7095 7.57141 20.9235 7.14779ZM5.72453 5.06979C5.53193 5.1004 5.39165 5.28911 5.36437 5.48728C5.33877 5.67154 5.24915 5.68545 5.10831 5.66931C5.07436 5.66541 5.03929 5.66875 5.00477 5.66875C4.61511 5.66875 4.61511 5.66875 4.73479 5.2841C4.89511 4.76585 5.34934 4.39567 5.88318 4.34223C5.96724 4.33388 6.01733 4.34168 6.00509 4.44355C5.99841 4.4981 6.00119 4.55432 6.00453 4.60943C6.01678 4.82597 6.03793 5.02024 5.72453 5.06979ZM10.6131 7.69722C10.4472 8.27837 9.87776 8.69475 9.28882 8.66525C8.63307 8.63296 8.09089 8.16537 8.0252 7.48235C7.96898 6.89841 7.95005 6.30279 8.0458 5.71829C8.14711 5.09873 8.78059 4.62613 9.40516 4.67178C10.072 4.72021 10.6259 5.26072 10.6643 5.89531C10.6693 5.97603 10.6526 6.00998 10.5669 6.00275C10.4979 5.99662 10.4277 5.99718 10.3587 6.00219C10.1583 6.01722 10.0047 6.0239 9.94289 5.74557C9.87665 5.44665 9.5215 5.28633 9.20977 5.33921C8.91029 5.38987 8.67371 5.67098 8.66926 5.98605C8.66592 6.21483 8.6687 6.44418 8.6687 6.67296C8.6687 6.88783 8.66759 7.10326 8.6687 7.31813C8.67093 7.66883 8.92031 7.96386 9.2415 7.99837C9.60222 8.03678 9.92452 7.81634 9.99076 7.46175C10.0108 7.35431 10.0403 7.32258 10.1411 7.3326C10.2095 7.33928 10.2797 7.33372 10.3493 7.33372C10.7161 7.33483 10.7161 7.33483 10.6131 7.69722ZM13.972 7.55137C13.8434 8.22047 13.2728 8.69475 12.6243 8.6658C11.9452 8.63519 11.3869 8.12028 11.3468 7.42612C11.3156 6.88115 11.2833 6.32839 11.3685 5.78621C11.4754 5.10597 12.0788 4.62947 12.7312 4.67233C13.4309 4.71854 13.967 5.26517 13.997 5.97269C14.0071 6.20815 13.9987 6.44418 13.9987 6.75201C13.9826 6.97022 14.0277 7.26191 13.972 7.55137ZM15.0124 2.6962C15.0146 2.64888 15.0831 2.67504 15.1198 2.67838C15.75 2.73627 16.2582 3.24617 16.3272 3.87965C16.3389 3.98709 16.3049 4.01381 16.207 4.00434C16.1385 3.99766 16.0689 4.00323 15.9993 4.00323C15.9648 4.00323 15.9298 3.99989 15.8958 4.00379C15.7566 4.01882 15.672 4.00601 15.6381 3.82343C15.5885 3.55957 15.3865 3.40593 15.1248 3.34081C15.087 3.33134 15.0163 3.35417 15.0146 3.31576C15.0046 3.10924 15.0035 2.90272 15.0124 2.6962ZM16.4525 8.32457C16.2955 8.51773 16.1096 8.68751 15.9342 8.86509C15.79 9.01149 15.6425 9.15399 15.4594 9.33435C15.7494 9.33435 15.9787 9.33936 16.2075 9.33212C16.3072 9.32934 16.3322 9.3594 16.3361 9.45904C16.3567 10.0007 16.3601 10.0007 15.8123 10.0007C15.4789 10.0007 15.146 9.9951 14.8125 10.0035C14.6934 10.0062 14.6773 9.96616 14.6622 9.85427C14.6005 9.39948 14.7318 9.04711 15.1031 8.75542C15.3792 8.53833 15.6074 8.26 15.8596 8.01117C15.9526 7.91932 16.0105 7.81968 16.0027 7.68163C15.991 7.47344 15.8657 7.3365 15.6698 7.33539C15.4744 7.33427 15.343 7.46787 15.3347 7.67718C15.3213 8.00115 15.3213 8.00115 14.9918 8.00115C14.6583 8.00115 14.6583 8.00115 14.6684 7.67885C14.6823 7.22294 14.9751 6.82827 15.3848 6.71304C15.8012 6.59559 16.2432 6.75201 16.4847 7.1027C16.7369 7.46954 16.733 7.97888 16.4525 8.32457Z" fill="#23AFA4"/>
<path d="M13.3338 6.67457C13.3338 6.89667 13.336 7.11878 13.3332 7.34089C13.3282 7.72164 13.0365 8.00498 12.6557 8.00164C12.29 7.9983 12.0039 7.71218 12.0017 7.33922C11.9983 6.88832 11.9978 6.43687 12.0022 5.98598C12.0056 5.61747 12.2989 5.3358 12.668 5.3358C13.0371 5.33636 13.3271 5.61803 13.3332 5.98765C13.3365 6.21644 13.3338 6.44522 13.3338 6.67457Z" fill="#23AFA4"/>
</svg>
