<svg width="25" height="24" viewBox="0 0 25 24" fill="none" xmlns="http://www.w3.org/2000/svg">
<path d="M13.3781 21.3226C13.2545 21.0342 13.1393 20.7553 13.0146 20.4804C12.9684 20.3785 12.9628 20.2944 13.0124 20.1892C13.5067 19.1321 13.8434 18.0266 14.0077 16.8704C14.0294 16.7196 14.0745 16.6589 14.2487 16.6594C15.9699 16.6684 17.6911 16.6695 19.4117 16.6583C19.6049 16.6572 19.6383 16.7357 19.66 16.8849C19.8865 18.4196 20.4003 19.8541 21.1685 21.2001C21.2309 21.3092 21.3027 21.3337 21.4168 21.332C21.8332 21.3265 22.2495 21.3332 22.6659 21.3276C22.78 21.3259 22.8346 21.3365 22.8346 21.4784C22.8351 21.9961 22.8424 21.9961 22.3269 21.9961C15.6854 21.9961 9.04394 21.9956 2.40244 22C2.21819 22 2.15863 21.9622 2.16586 21.7685C2.18201 21.3298 2.17087 21.3298 2.60729 21.3298C2.91958 21.3298 3.23186 21.3276 3.54415 21.3315C3.62932 21.3326 3.68053 21.3142 3.71727 21.2263C4.23162 19.9777 4.84784 18.7675 5.14566 17.4371C5.19408 17.2217 5.2542 17.0074 5.28482 16.7897C5.30096 16.6728 5.35218 16.6639 5.44514 16.6645C7.26318 16.6661 9.08179 16.6661 10.8998 16.665C10.9822 16.665 11.0318 16.6672 11.0496 16.7763C11.3106 18.3478 11.9998 19.7684 12.6171 21.214C12.6516 21.2947 12.6862 21.3371 12.7808 21.3326C12.9472 21.3248 13.1137 21.3309 13.2801 21.3304C13.3068 21.3293 13.333 21.3259 13.3781 21.3226Z" fill="white"/>
<path d="M8.17016 15.9991C7.31068 15.9991 6.4512 15.9952 5.59116 16.003C5.44142 16.0041 5.39243 15.9629 5.42249 15.8204C5.43363 15.7664 5.4353 15.7102 5.44309 15.6556C5.48929 15.3327 5.48929 15.3327 5.8283 15.3327C7.43648 15.3327 9.04467 15.335 10.6529 15.3294C10.8071 15.3288 10.8978 15.3389 10.8833 15.5303C10.8722 15.679 10.9857 15.8771 10.8961 15.9673C10.7987 16.0653 10.5939 15.9968 10.4363 15.9979C9.68149 16.0002 8.9261 15.9991 8.17016 15.9991Z" fill="white"/>
<path d="M16.8321 15.9988C15.9854 15.9988 15.1387 15.9955 14.2926 16.0021C14.1568 16.0033 14.1201 15.9699 14.1251 15.8318C14.1446 15.3325 14.139 15.3325 14.6378 15.3325C16.1853 15.3325 17.7328 15.3353 19.2797 15.3286C19.4473 15.328 19.5163 15.3536 19.5258 15.5429C19.5486 15.9994 19.5608 15.9988 19.1016 15.9988C18.3451 15.9988 17.5886 15.9988 16.8321 15.9988Z" fill="white"/>
<path d="M8.17261 13.9989C9.00426 13.9989 9.83591 14.0023 10.6676 13.9956C10.8012 13.9945 10.854 14.0262 10.8368 14.1648C10.8162 14.3268 10.9075 14.5444 10.8 14.6391C10.7087 14.7192 10.4972 14.6647 10.3391 14.6652C8.79384 14.6658 7.248 14.6636 5.70272 14.6691C5.54685 14.6697 5.49397 14.6402 5.49898 14.4704C5.51345 13.9995 5.50455 13.9989 5.9688 13.9989C6.70303 13.9989 7.43782 13.9989 8.17261 13.9989Z" fill="white"/>
<path d="M21.4235 7.14779C21.2204 7.03869 21.202 6.95909 21.31 6.77038C21.4948 6.44807 21.5477 6.08792 21.4798 5.72442C21.2788 4.65229 20.2251 4.06558 19.2069 4.4608C19.0316 4.52927 18.9464 4.50088 18.8412 4.35114C18.5734 3.96983 18.1927 3.73993 17.734 3.6876C17.528 3.66422 17.4646 3.58462 17.4078 3.40482C17.0961 2.41453 16.1108 1.83616 15.0927 2.04546C14.3267 2.20355 13.8407 2.68562 13.5841 3.4115C13.5385 3.54009 13.4945 3.58017 13.3503 3.51727C12.8349 3.29238 12.3071 3.269 11.7739 3.46661C11.49 3.57182 11.4889 3.56904 11.3725 3.28236C11.0235 2.42232 10.2347 1.93747 9.29673 2.0065C8.48902 2.06606 7.76759 2.69731 7.55161 3.53285C7.46532 3.86796 7.46532 3.86796 7.13912 3.76554C5.80537 3.34804 4.50835 4.29826 4.5039 5.69603C4.50279 5.99996 4.50279 5.99996 4.16378 6.00219C3.56482 6.00609 3.03822 6.40354 2.88291 6.96855C2.72092 7.55805 2.96196 8.15757 3.48021 8.47765C3.75241 8.64576 4.04744 8.67972 4.3575 8.66858C4.60354 8.65968 4.60855 8.66747 4.554 8.90182C4.41706 9.49467 4.5412 10.0018 5.03885 10.3842C5.34446 10.6191 5.69738 10.6765 6.07646 10.6709C6.74556 10.6614 7.16696 11.0889 7.16918 11.7553C7.17085 12.2061 7.17698 12.6576 7.16529 13.1085C7.16083 13.2794 7.18755 13.3451 7.3835 13.3384C7.91065 13.3211 8.43836 13.3273 8.96552 13.3356C9.11804 13.3384 9.1854 13.3128 9.17315 13.1386C9.1559 12.897 9.16759 12.6531 9.1687 12.4099C9.1726 11.7564 9.5951 11.3355 10.2514 11.3333C10.7997 11.3316 11.348 11.3361 11.8963 11.3316C12.7831 11.3244 13.6008 10.6464 13.7923 9.778C13.8246 9.63049 13.7572 9.41896 13.8919 9.34826C14.0178 9.28258 14.2042 9.33991 14.3634 9.33101C14.4725 9.32488 14.5048 9.35717 14.4954 9.46906C14.4475 10.043 14.261 10.5607 13.8942 11.0093C13.5184 11.4697 13.0347 11.7625 12.4491 11.9239C12.7708 12.3726 13.185 12.6331 13.7233 12.6615C14.0762 12.6799 14.4313 12.6626 14.7848 12.6665C15.3999 12.6732 15.8241 13.0996 15.8313 13.7169C15.8347 13.9875 15.8369 14.2585 15.8297 14.5291C15.8269 14.6376 15.8575 14.6688 15.9672 14.6677C16.5433 14.6621 17.1195 14.6621 17.6956 14.6677C17.8047 14.6688 17.837 14.6387 17.8336 14.5296C17.8259 14.2591 17.8286 13.9886 17.8314 13.7175C17.8375 13.1007 18.2623 12.6732 18.8774 12.6665C19.2103 12.6626 19.5437 12.6715 19.8766 12.6637C20.7561 12.6426 21.4898 11.885 21.4987 11.0088C21.5031 10.5774 21.3423 10.2128 21.0868 9.88266C20.9916 9.75964 20.9916 9.70508 21.1513 9.64942C21.428 9.55367 21.6818 9.41395 21.8705 9.17737C22.406 8.50938 22.2095 7.57141 21.4235 7.14779ZM6.22453 5.06979C6.03193 5.1004 5.89165 5.28911 5.86437 5.48728C5.83877 5.67154 5.74915 5.68545 5.60831 5.66931C5.57436 5.66541 5.53929 5.66875 5.50477 5.66875C5.11511 5.66875 5.11511 5.66875 5.23479 5.2841C5.39511 4.76585 5.84934 4.39567 6.38318 4.34223C6.46724 4.33388 6.51733 4.34168 6.50509 4.44355C6.49841 4.4981 6.50119 4.55432 6.50453 4.60943C6.51678 4.82597 6.53793 5.02024 6.22453 5.06979ZM11.1131 7.69722C10.9472 8.27837 10.3778 8.69475 9.78882 8.66525C9.13307 8.63296 8.59089 8.16537 8.5252 7.48235C8.46898 6.89841 8.45005 6.30279 8.5458 5.71829C8.64711 5.09873 9.28059 4.62613 9.90516 4.67178C10.572 4.72021 11.1259 5.26072 11.1643 5.89531C11.1693 5.97603 11.1526 6.00998 11.0669 6.00275C10.9979 5.99662 10.9277 5.99718 10.8587 6.00219C10.6583 6.01722 10.5047 6.0239 10.4429 5.74557C10.3766 5.44665 10.0215 5.28633 9.70977 5.33921C9.41029 5.38987 9.17371 5.67098 9.16926 5.98605C9.16592 6.21483 9.1687 6.44418 9.1687 6.67296C9.1687 6.88783 9.16759 7.10326 9.1687 7.31813C9.17093 7.66883 9.42031 7.96386 9.7415 7.99837C10.1022 8.03678 10.4245 7.81634 10.4908 7.46175C10.5108 7.35431 10.5403 7.32258 10.6411 7.3326C10.7095 7.33928 10.7797 7.33372 10.8493 7.33372C11.2161 7.33483 11.2161 7.33483 11.1131 7.69722ZM14.472 7.55137C14.3434 8.22047 13.7728 8.69475 13.1243 8.6658C12.4452 8.63519 11.8869 8.12028 11.8468 7.42612C11.8156 6.88115 11.7833 6.32839 11.8685 5.78621C11.9754 5.10597 12.5788 4.62947 13.2312 4.67233C13.9309 4.71854 14.467 5.26517 14.497 5.97269C14.5071 6.20815 14.4987 6.44418 14.4987 6.75201C14.4826 6.97022 14.5277 7.26191 14.472 7.55137ZM15.5124 2.6962C15.5146 2.64888 15.5831 2.67504 15.6198 2.67838C16.25 2.73627 16.7582 3.24617 16.8272 3.87965C16.8389 3.98709 16.8049 4.01381 16.707 4.00434C16.6385 3.99766 16.5689 4.00323 16.4993 4.00323C16.4648 4.00323 16.4298 3.99989 16.3958 4.00379C16.2566 4.01882 16.172 4.00601 16.1381 3.82343C16.0885 3.55957 15.8865 3.40593 15.6248 3.34081C15.587 3.33134 15.5163 3.35417 15.5146 3.31576C15.5046 3.10924 15.5035 2.90272 15.5124 2.6962ZM16.9525 8.32457C16.7955 8.51773 16.6096 8.68751 16.4342 8.86509C16.29 9.01149 16.1425 9.15399 15.9594 9.33435C16.2494 9.33435 16.4787 9.33936 16.7075 9.33212C16.8072 9.32934 16.8322 9.3594 16.8361 9.45904C16.8567 10.0007 16.8601 10.0007 16.3123 10.0007C15.9789 10.0007 15.646 9.9951 15.3125 10.0035C15.1934 10.0062 15.1773 9.96616 15.1622 9.85427C15.1005 9.39948 15.2318 9.04711 15.6031 8.75542C15.8792 8.53833 16.1074 8.26 16.3596 8.01117C16.4526 7.91932 16.5105 7.81968 16.5027 7.68163C16.491 7.47344 16.3657 7.3365 16.1698 7.33539C15.9744 7.33427 15.843 7.46787 15.8347 7.67718C15.8213 8.00115 15.8213 8.00115 15.4918 8.00115C15.1583 8.00115 15.1583 8.00115 15.1684 7.67885C15.1823 7.22294 15.4751 6.82827 15.8848 6.71304C16.3012 6.59559 16.7432 6.75201 16.9847 7.1027C17.2369 7.46954 17.233 7.97888 16.9525 8.32457Z" fill="white"/>
<path d="M13.8341 6.67458C13.8341 6.89669 13.8363 7.11879 13.8336 7.3409C13.8286 7.72165 13.5369 8.00499 13.1561 8.00165C12.7904 7.99831 12.5043 7.71219 12.502 7.33923C12.4987 6.88834 12.4981 6.43689 12.5026 5.98599C12.5059 5.61748 12.7993 5.33582 13.1684 5.33582C13.5374 5.33637 13.8274 5.61804 13.8336 5.98766C13.8369 6.21645 13.8341 6.44524 13.8341 6.67458Z" fill="white"/>
</svg>
