<svg width="25" height="24" viewBox="0 0 25 24" fill="none" xmlns="http://www.w3.org/2000/svg">
<path d="M22.5 13.1447C22.428 13.2564 22.4363 13.3895 22.4008 13.5116C22.0355 14.7695 20.9545 15.6166 19.6366 15.626C17.5279 15.6406 15.4187 15.6297 13.3096 15.6313C13.1952 15.6313 13.1436 15.6245 13.1885 15.4825C13.285 15.1792 13.404 14.8875 13.5533 14.6061C13.6212 14.4783 13.6744 14.4668 13.7997 14.5461C14.6337 15.0712 15.4558 15.0524 16.1902 14.4955C16.4089 14.33 16.5801 14.1134 16.7685 13.9156C17.2492 13.4119 17.7143 12.8921 18.2801 12.4787C18.5483 12.2824 18.8297 12.1081 19.1653 12.0533C19.3266 12.0267 19.4863 12.0356 19.647 12.0825C19.8438 12.1399 19.9894 12.0716 20.0719 11.9035C20.158 11.7287 20.1011 11.5856 19.9597 11.4739C18.8208 10.5778 17.5582 9.97386 16.0827 9.95768C14.5852 9.9415 13.2829 10.7354 12.9144 12.3722C12.798 12.8884 12.8607 13.378 13.1227 13.8378C13.1738 13.9276 13.1838 13.9923 13.1164 14.0805C12.9369 14.3175 12.8247 14.5947 12.6848 14.8713C12.5063 14.5336 12.3105 14.2361 12.0626 13.9751C12.0198 13.9302 11.9953 13.8963 12.0261 13.8258C12.4108 12.9453 12.1185 12.1697 11.6064 11.4593C10.9441 10.5402 9.99101 10.2056 8.89388 10.2771C7.53682 10.3653 6.4068 10.9911 5.38587 11.8445C5.23607 11.9698 5.09411 12.1039 4.9537 12.2391C4.79607 12.391 4.77206 12.5398 4.86915 12.6901C4.96884 12.8451 5.10715 12.878 5.31228 12.7892C5.62701 12.6535 5.93548 12.7057 6.23978 12.819C6.89013 13.0612 7.42721 13.4819 7.9455 13.9271C8.18716 14.1348 8.41786 14.3556 8.647 14.5774C9.4508 15.3572 10.5578 15.3891 11.3961 14.6396C11.5219 14.5273 11.5715 14.5472 11.6519 14.6719C11.8622 14.9986 12.0444 15.3384 12.19 15.7189C12.1138 15.7189 12.0564 15.7189 11.9995 15.7189C9.80572 15.7189 7.6125 15.72 5.41876 15.7184C4.05282 15.7174 2.89566 14.8024 2.57623 13.4746C2.20774 11.9453 3.21405 10.3679 4.75588 10.0584C5.06957 9.99526 5.38326 9.96238 5.70426 10.012C6.03309 10.0626 6.13069 9.98378 6.20272 9.65809C6.45169 8.52964 7.13544 7.801 8.23832 7.47269C8.86987 7.28479 9.49569 7.33751 10.1053 7.58543C10.513 7.75089 10.6059 7.69922 10.7661 7.28009C11.4175 5.57803 12.6462 4.58737 14.4615 4.39738C16.7471 4.15833 18.825 5.78106 19.171 8.03379C19.2446 8.51189 19.2441 8.99104 19.1475 9.46862C19.0698 9.85382 19.2023 10.0005 19.5922 9.989C19.9195 9.97908 20.2426 10.0203 20.5484 10.1378C21.4921 10.5005 22.2223 11.0705 22.4405 12.1279C22.4567 12.2052 22.4269 12.2976 22.499 12.3618C22.5 12.6238 22.5 12.8842 22.5 13.1447Z" fill="white"/>
<path d="M13.6129 13.2862C13.3164 12.5686 13.8269 11.3681 14.6824 10.9114C15.1563 10.6588 15.6574 10.5705 16.1835 10.5867C17.0849 10.6149 17.908 10.9077 18.6862 11.3446C18.7134 11.3597 18.7363 11.3822 18.7697 11.4077C17.9565 11.7554 17.3516 12.354 16.754 12.9621C16.4669 13.2544 16.1908 13.5571 15.9032 13.8489C15.4141 14.3447 14.5988 14.3881 14.0957 13.9585C14.0117 13.8865 14.0106 13.8478 14.08 13.7638C14.7142 12.9939 15.4679 12.3838 16.3996 12.009C16.5661 11.9422 16.6819 11.8373 16.6689 11.6494C16.659 11.5022 16.5755 11.3968 16.4241 11.3576C16.3223 11.3315 16.232 11.3728 16.1417 11.4072C15.2737 11.7381 14.5623 12.2909 13.9349 12.9637C13.8378 13.0681 13.7434 13.1751 13.6468 13.2805C13.6442 13.2841 13.6358 13.2831 13.6129 13.2862Z" fill="white"/>
<path d="M6.229 12.0245C6.56201 11.7562 6.90754 11.5453 7.27185 11.3653C7.98014 11.0156 8.71713 10.811 9.52093 10.8772C10.5606 10.9628 11.4996 11.8689 11.5737 12.8909C11.5831 13.0183 11.5748 13.1472 11.5748 13.2944C11.4631 13.2745 11.4255 13.2103 11.377 13.1655C10.6332 12.4723 9.77616 11.9796 8.79542 11.7071C8.4859 11.621 8.27608 11.7703 8.32201 12.0381C8.3502 12.1999 8.46764 12.2797 8.61222 12.3189C9.32259 12.513 9.9604 12.8502 10.5413 13.297C10.7365 13.4473 10.9119 13.6237 11.1045 13.7777C11.2303 13.8784 11.2152 13.9505 11.1035 14.0512C10.6248 14.4818 9.97815 14.534 9.43533 14.1686C9.01881 13.8878 8.67276 13.5209 8.28495 13.2046C7.74004 12.761 7.1826 12.3392 6.50564 12.1111C6.42265 12.0835 6.33809 12.0589 6.229 12.0245Z" fill="white"/>
<path d="M15.6687 19.6263C13.6759 19.6263 11.717 19.6263 9.75817 19.6263C9.6804 19.6263 9.60211 19.6263 9.50085 19.6263C9.57236 19.346 9.71433 19.1221 9.9038 18.9279C10.384 18.4352 10.9874 18.181 11.6487 18.0526C12.5475 17.8777 13.4337 17.92 14.2892 18.2666C14.8378 18.4889 15.3033 18.8193 15.5706 19.3721C15.6061 19.4462 15.6301 19.5261 15.6687 19.6263Z" fill="white"/>
<path d="M12.2578 16.8825C12.2734 16.7082 12.298 16.5338 12.3016 16.359C12.3042 16.2509 12.347 16.2275 12.4426 16.2337C12.5396 16.2405 12.6372 16.2353 12.7348 16.2353C12.9807 16.2353 12.9796 16.2353 12.9635 16.4717C12.9478 16.6983 12.9301 16.9248 12.9233 17.1518C12.9201 17.2515 12.8899 17.2959 12.787 17.2834C12.7422 17.2776 12.6962 17.2823 12.6508 17.2823C12.25 17.2828 12.25 17.2828 12.2578 16.8825Z" fill="white"/>
</svg>
