<svg width="24" height="25" viewBox="0 0 24 25" fill="none" xmlns="http://www.w3.org/2000/svg">
<path d="M22 13.2619C21.928 13.3736 21.9363 13.5067 21.9008 13.6288C21.5355 14.8867 20.4545 15.7338 19.1366 15.7432C17.0279 15.7578 14.9187 15.7469 12.8096 15.7484C12.6952 15.7484 12.6436 15.7417 12.6885 15.5997C12.785 15.2964 12.904 15.0047 13.0533 14.7233C13.1212 14.5955 13.1744 14.584 13.2997 14.6633C14.1337 15.1884 14.9558 15.1696 15.6902 14.6127C15.9089 14.4472 16.0801 14.2306 16.2685 14.0328C16.7492 13.5291 17.2143 13.0093 17.7801 12.5959C18.0483 12.3996 18.3297 12.2253 18.6653 12.1705C18.8266 12.1439 18.9863 12.1527 19.147 12.1997C19.3438 12.2571 19.4894 12.1888 19.5719 12.0207C19.658 11.8458 19.6011 11.7028 19.4597 11.5911C18.3208 10.6949 17.0582 10.0911 15.5827 10.0749C14.0852 10.0587 12.7829 10.8526 12.4144 12.4894C12.298 13.0056 12.3607 13.4952 12.6227 13.955C12.6738 14.0448 12.6838 14.1095 12.6164 14.1977C12.4369 14.4347 12.3247 14.7119 12.1848 14.9885C12.0063 14.6508 11.8105 14.3533 11.5626 14.0923C11.5198 14.0474 11.4953 14.0135 11.5261 13.943C11.9108 13.0625 11.6185 12.2869 11.1064 11.5765C10.4441 10.6574 9.49101 10.3228 8.39388 10.3943C7.03682 10.4825 5.9068 11.1083 4.88587 11.9617C4.73607 12.087 4.59411 12.2211 4.4537 12.3563C4.29607 12.5082 4.27206 12.6569 4.36915 12.8073C4.46884 12.9623 4.60715 12.9952 4.81228 12.9064C5.12701 12.7707 5.43548 12.8229 5.73978 12.9362C6.39013 13.1784 6.92721 13.5991 7.4455 14.0443C7.68716 14.252 7.91786 14.4728 8.147 14.6946C8.9508 15.4744 10.0578 15.5063 10.8961 14.7567C11.0219 14.6445 11.0715 14.6644 11.1519 14.7891C11.3622 15.1158 11.5444 15.4556 11.69 15.8361C11.6138 15.8361 11.5564 15.8361 11.4995 15.8361C9.30572 15.8361 7.1125 15.8372 4.91876 15.8356C3.55282 15.8346 2.39566 14.9196 2.07623 13.5918C1.70774 12.0624 2.71405 10.4851 4.25588 10.1756C4.56957 10.1125 4.88326 10.0796 5.20426 10.1292C5.53309 10.1798 5.63069 10.101 5.70272 9.77527C5.95169 8.64682 6.63544 7.91819 7.73832 7.58988C8.36987 7.40198 8.99569 7.4547 9.60532 7.70262C10.013 7.86808 10.1059 7.81641 10.2661 7.39728C10.9175 5.69521 12.1462 4.70456 13.9615 4.51457C16.2471 4.27552 18.325 5.89825 18.671 8.15097C18.7446 8.62908 18.7441 9.10823 18.6475 9.58581C18.5698 9.971 18.7023 10.1177 19.0922 10.1062C19.4195 10.0963 19.7426 10.1375 20.0484 10.2549C20.9921 10.6177 21.7223 11.1877 21.9405 12.2451C21.9567 12.3224 21.9269 12.4148 21.999 12.479C22 12.741 22 13.0014 22 13.2619Z" fill="#23AFA4"/>
<path d="M13.1131 13.4034C12.8167 12.6857 13.3271 11.4853 14.1826 11.0286C14.6565 10.7759 15.1576 10.6877 15.6837 10.7039C16.5851 10.7321 17.4082 11.0249 18.1865 11.4618C18.2136 11.4769 18.2366 11.4994 18.27 11.5249C17.4568 11.8725 16.8518 12.4712 16.2542 13.0793C15.9671 13.3716 15.691 13.6743 15.4034 13.9661C14.9144 14.4619 14.0991 14.5052 13.5959 14.0757C13.5119 14.0037 13.5109 13.965 13.5803 13.881C14.2144 13.1111 14.9681 12.501 15.8998 12.1262C16.0663 12.0594 16.1822 11.9545 16.1691 11.7666C16.1592 11.6194 16.0757 11.514 15.9243 11.4748C15.8226 11.4487 15.7323 11.49 15.642 11.5244C14.774 11.8553 14.0625 12.4081 13.4352 13.0809C13.3381 13.1852 13.2436 13.2922 13.1471 13.3977C13.1444 13.4013 13.1361 13.4003 13.1131 13.4034Z" fill="#23AFA4"/>
<path d="M5.72949 12.1417C6.06249 11.8734 6.40802 11.6625 6.77234 11.4825C7.48063 11.1327 8.21761 10.9281 9.02141 10.9944C10.0611 11.08 11.0001 11.9861 11.0742 13.0081C11.0836 13.1355 11.0753 13.2644 11.0753 13.4116C10.9636 13.3917 10.926 13.3275 10.8775 13.2826C10.1337 12.5895 9.27665 12.0968 8.29591 11.8243C7.98639 11.7382 7.77657 11.8875 7.8225 12.1552C7.85069 12.317 7.96812 12.3969 8.1127 12.436C8.82307 12.6302 9.46089 12.9674 10.0418 13.4142C10.237 13.5645 10.4124 13.7409 10.605 13.8949C10.7308 13.9956 10.7157 14.0677 10.604 14.1684C10.1253 14.599 9.47864 14.6512 8.93581 14.2858C8.5193 14.005 8.17325 13.6381 7.78544 13.3218C7.24053 12.8781 6.68309 12.4564 6.00612 12.2283C5.92313 12.2007 5.83858 12.1761 5.72949 12.1417Z" fill="#23AFA4"/>
<path d="M15.1688 19.7435C13.176 19.7435 11.2172 19.7435 9.2583 19.7435C9.18053 19.7435 9.10223 19.7435 9.00098 19.7435C9.07248 19.4632 9.21445 19.2393 9.40392 19.0451C9.88411 18.5524 10.4875 18.2982 11.1488 18.1698C12.0476 17.9949 12.9338 18.0372 13.7893 18.3838C14.3379 18.6061 14.8035 18.9365 15.0707 19.4893C15.1062 19.5634 15.1302 19.6432 15.1688 19.7435Z" fill="#23AFA4"/>
<path d="M11.7577 16.9997C11.7733 16.8253 11.7979 16.651 11.8015 16.4762C11.8041 16.3681 11.8469 16.3446 11.9424 16.3509C12.0395 16.3577 12.1371 16.3525 12.2347 16.3525C12.4806 16.3525 12.4795 16.3525 12.4633 16.5889C12.4477 16.8154 12.4299 17.042 12.4231 17.269C12.42 17.3687 12.3897 17.4131 12.2869 17.4005C12.242 17.3948 12.1961 17.3995 12.1507 17.3995C11.7498 17.4 11.7498 17.4 11.7577 16.9997Z" fill="#23AFA4"/>
</svg>
