<svg width="20" height="20" viewBox="0 0 20 20" fill="none" xmlns="http://www.w3.org/2000/svg">
<path fill-rule="evenodd" clip-rule="evenodd" d="M11.2247 8.72478C11.5086 8.0971 11.6666 7.40033 11.6666 6.66666C11.6666 3.90523 9.42805 1.66666 6.66663 1.66666C5.89471 1.66666 5.16366 1.84158 4.51093 2.15394L8.14844 5.79145L5.79142 8.14847L2.15391 4.51096C1.84155 5.16369 1.66663 5.89475 1.66663 6.66666C1.66663 9.42808 3.9052 11.6667 6.66663 11.6667C7.17177 11.6667 7.65942 11.5917 8.11907 11.4524L14.0024 17.3358C14.7835 18.1168 16.0498 18.1168 16.8308 17.3358L16.9191 17.2475C17.7001 16.4665 17.7001 15.2002 16.9191 14.4191L11.2247 8.72478Z" fill="white"/>
</svg>
