<svg width="25" height="24" viewBox="0 0 25 24" fill="none" xmlns="http://www.w3.org/2000/svg">
<path d="M12.4282 9C11.6326 9 10.8695 9.31607 10.3069 9.87868C9.74429 10.4413 9.42822 11.2044 9.42822 12C9.42822 12.7956 9.74429 13.5587 10.3069 14.1213C10.8695 14.6839 11.6326 15 12.4282 15C13.2239 15 13.9869 14.6839 14.5495 14.1213C15.1122 13.5587 15.4282 12.7956 15.4282 12C15.4282 11.2044 15.1122 10.4413 14.5495 9.87868C13.9869 9.31607 13.2239 9 12.4282 9ZM12.4282 17C11.1021 17 9.83037 16.4732 8.89269 15.5355C7.95501 14.5979 7.42822 13.3261 7.42822 12C7.42822 10.6739 7.95501 9.40215 8.89269 8.46447C9.83037 7.52678 11.1021 7 12.4282 7C13.7543 7 15.0261 7.52678 15.9638 8.46447C16.9014 9.40215 17.4282 10.6739 17.4282 12C17.4282 13.3261 16.9014 14.5979 15.9638 15.5355C15.0261 16.4732 13.7543 17 12.4282 17ZM12.4282 4.5C7.42822 4.5 3.15822 7.61 1.42822 12C3.15822 16.39 7.42822 19.5 12.4282 19.5C17.4282 19.5 21.6982 16.39 23.4282 12C21.6982 7.61 17.4282 4.5 12.4282 4.5Z" fill="white"/>
</svg>
