<svg width="80" height="80" viewBox="0 0 80 80" fill="none" xmlns="http://www.w3.org/2000/svg">
<path fill-rule="evenodd" clip-rule="evenodd" d="M68.3219 11.7534C75.7998 19.2513 80 29.4091 80 40C80 50.575 75.8124 60.7182 68.3556 68.2128C68.3081 68.2605 68.2605 68.3081 68.2128 68.3556C60.7182 75.8124 50.575 80 40 80C29.4091 80 19.2513 75.7998 11.7534 68.3219C11.7283 68.2968 11.7032 68.2717 11.6781 68.2466C4.20017 60.7487 0 50.5909 0 40C0 29.3913 4.21427 19.2172 11.7157 11.7157C19.2172 4.21427 29.3913 0 40 0C50.5909 0 60.7487 4.20017 68.2466 11.6781C68.2717 11.7032 68.2968 11.7283 68.3219 11.7534ZM26.1314 39L35.0171 47.8914L56.0286 26.88C56.3462 26.5576 56.7245 26.3012 57.1417 26.1257C57.5588 25.9502 58.0066 25.8591 58.4592 25.8575C58.9118 25.8559 59.3602 25.944 59.7786 26.1166C60.197 26.2892 60.5771 26.5429 60.8969 26.8631C61.2168 27.1833 61.47 27.5637 61.6421 27.9823C61.8143 28.4009 61.9018 28.8494 61.8997 29.302C61.8976 29.7546 61.8059 30.2023 61.6299 30.6192C61.4539 31.0362 61.1971 31.4142 60.8743 31.7314L37.4457 55.1657C37.1281 55.4859 36.7502 55.74 36.3339 55.9134C35.9175 56.0868 35.471 56.176 35.02 56.176C34.569 56.176 34.1225 56.0868 33.7061 55.9134C33.2898 55.74 32.9119 55.4859 32.5943 55.1657L21.28 43.8514C20.6367 43.2081 20.2752 42.3355 20.2752 41.4257C20.2752 40.5159 20.6367 39.6433 21.28 39C21.5985 38.6814 21.9767 38.4288 22.3929 38.2564C22.8091 38.084 23.2552 37.9952 23.7057 37.9952C24.1562 37.9952 24.6023 38.084 25.0185 38.2564C25.4347 38.4288 25.8129 38.6814 26.1314 39Z" fill="white"/>
</svg>
