<svg width="24" height="24" viewBox="0 0 24 24" fill="none" xmlns="http://www.w3.org/2000/svg">
<g clip-path="url(#clip0_272_36903)">
<path d="M0.703125 1.40625H2.85938V5.87719C2.30512 6.14053 1.92188 6.70528 1.92188 7.3597V7.59375H5.20312V7.3597C5.20312 6.70528 4.81988 6.14048 4.26562 5.87719V1.40625H19.7344V5.87719C19.1801 6.14053 18.7969 6.70528 18.7969 7.3597V7.59375H22.0781V7.3597C22.0781 6.70528 21.6949 6.14048 21.1406 5.87719V1.40625H23.2969C23.6852 1.40625 24 1.09144 24 0.703125C24 0.314812 23.6852 0 23.2969 0H0.703125C0.314812 0 0 0.314812 0 0.703125C0 1.09144 0.314812 1.40625 0.703125 1.40625Z" fill="#23AFA4"/>
<path d="M4.45815 13.6875H3.91772C3.91829 13.8961 3.91946 14.5204 3.92044 14.7194C4.12524 14.7184 4.32844 14.7177 4.45815 14.7177C4.77474 14.7177 5.04216 14.4818 5.04216 14.2027C5.04221 13.9234 4.77474 13.6875 4.45815 13.6875Z" fill="#23AFA4"/>
<path d="M22.3594 9H17.9286C16.3156 7.48627 14.222 6.65625 12 6.65625C9.77803 6.65625 7.68436 7.48627 6.07144 9H1.64062C0.735984 9 0 9.73598 0 10.6406V20.0156C0 20.9203 0.735984 21.6562 1.64062 21.6562H6.07144C7.68436 23.17 9.77803 24 12 24C14.222 24 16.3156 23.17 17.9286 21.6562H22.3594C23.264 21.6562 24 20.9203 24 20.0156V10.6406C24 9.73598 23.264 9 22.3594 9ZM6.27305 17.2073C6.52964 17.4989 6.50128 17.9431 6.20977 18.1997C6.07617 18.3173 5.91047 18.375 5.74552 18.375C5.55047 18.375 5.35641 18.2943 5.21742 18.1364L3.91406 16.6555V17.6719C3.91406 18.0602 3.59925 18.375 3.21094 18.375C2.82262 18.375 2.50781 18.0602 2.50781 17.6719V12.9844C2.50781 12.5961 2.82262 12.2812 3.21094 12.2812C3.21117 12.2812 3.21145 12.2813 3.21169 12.2813C3.21192 12.2813 3.2122 12.2812 3.21244 12.2812H4.45809C5.55553 12.2812 6.44836 13.1432 6.44836 14.2026C6.44836 15.0097 5.92992 15.7016 5.19788 15.9857L6.27305 17.2073ZM9.95911 14.625C10.3474 14.625 10.6622 14.9398 10.6622 15.3281C10.6622 15.7164 10.3474 16.0312 9.95911 16.0312H8.83275V16.9688H10.1047C10.4931 16.9688 10.8079 17.2836 10.8079 17.6719C10.8079 18.0602 10.4931 18.375 10.1047 18.375H8.12963C7.74131 18.375 7.4265 18.0602 7.4265 17.6719V12.9844C7.4265 12.5961 7.74131 12.2812 8.12963 12.2812H10.1047C10.4931 12.2812 10.8079 12.5961 10.8079 12.9844C10.8079 13.3727 10.4931 13.6875 10.1047 13.6875H8.83275V14.625H9.95911ZM15.9855 18.2886C15.6632 18.3892 15.3244 18.2658 15.1225 17.9739L13.2405 15.2486V17.6719C13.2405 18.0602 12.9256 18.375 12.5373 18.375C12.149 18.375 11.8342 18.0602 11.8342 17.6719V12.9931C11.8342 12.6855 12.0343 12.4135 12.3281 12.3219C12.6219 12.2303 12.9411 12.3404 13.1159 12.5936L15.0991 15.4654L15.0751 12.9913C15.0714 12.603 15.3832 12.2851 15.7714 12.2813C15.7737 12.2813 15.7761 12.2813 15.7784 12.2813C16.1635 12.2813 16.4776 12.5916 16.4813 12.9776L16.5252 17.5071V17.514C16.5252 17.8821 16.3133 18.1862 15.9855 18.2886ZM20.7891 13.6875H20.1926V17.6719C20.1926 18.0602 19.8778 18.375 19.4895 18.375C19.1011 18.375 18.7863 18.0602 18.7863 17.6719V13.6875H18.2003C17.812 13.6875 17.4972 13.3727 17.4972 12.9844C17.4972 12.5961 17.812 12.2812 18.2003 12.2812H20.7891C21.1774 12.2812 21.4922 12.5961 21.4922 12.9844C21.4922 13.3727 21.1774 13.6875 20.7891 13.6875Z" fill="#23AFA4"/>
</g>
<defs>
<clipPath id="clip0_272_36903">
<rect width="24" height="24" fill="white"/>
</clipPath>
</defs>
</svg>
