<svg width="24" height="25" viewBox="0 0 24 25" fill="none" xmlns="http://www.w3.org/2000/svg">
<g clip-path="url(#clip0_272_24927)">
<path fill-rule="evenodd" clip-rule="evenodd" d="M16.7358 2.14488C16.7353 1.78219 16.5909 1.43453 16.3344 1.17816C16.0778 0.921787 15.7301 0.777641 15.3674 0.777344H8.63295C8.27064 0.778125 7.9234 0.922501 7.66734 1.17884C7.41128 1.43517 7.26727 1.78256 7.26687 2.14488V3.8493C7.27625 3.84883 7.28797 3.84836 7.29969 3.84836H9.17891V2.7843C9.1785 2.70752 9.20049 2.63229 9.24219 2.56783C9.24687 2.5615 9.25156 2.55377 9.25625 2.54697C9.29361 2.49624 9.34232 2.45495 9.39847 2.42639C9.45463 2.39783 9.51669 2.3828 9.57969 2.38248H14.4207C14.4793 2.38226 14.5372 2.39499 14.5903 2.41978C14.6433 2.44458 14.6903 2.48081 14.7277 2.52587C14.742 2.54198 14.7546 2.55958 14.7652 2.57838C14.8023 2.64062 14.8218 2.71182 14.8214 2.7843V3.84836H16.703C16.7124 3.84836 16.7241 3.84883 16.7358 3.8493V2.14488ZM17.1974 22.8198H6.80291C6.68806 22.8198 6.57561 22.8139 6.46316 22.8029V24.7773H17.5372V22.8029C17.4247 22.8139 17.3122 22.8198 17.1974 22.8198ZM19.8781 19.7085H4.12227C4.2188 20.3507 4.54233 20.937 5.03415 21.361C5.52597 21.7851 6.15351 22.0188 6.80291 22.0198H17.1974C17.8469 22.0192 18.4747 21.7856 18.9666 21.3615C19.4585 20.9373 19.7819 20.3508 19.8781 19.7085ZM12.8789 13.372C12.8836 12.6659 12.6164 12.3489 12.3329 12.0133C11.9275 11.5305 11.6557 11.0915 12.0095 10.304C11.4856 10.5801 11.0685 11.0226 10.8237 11.5618C10.5789 12.101 10.5204 12.7063 10.6574 13.2824C10.6723 13.3411 10.6733 13.4024 10.6602 13.4615C10.6472 13.5207 10.6206 13.5759 10.5824 13.6229C10.545 13.6703 10.4972 13.7087 10.4428 13.735C10.3884 13.7614 10.3288 13.775 10.2683 13.775C10.0727 13.7742 9.87933 13.7335 9.70002 13.6553C9.52071 13.5771 9.35927 13.4631 9.22559 13.3203C9.22005 13.3122 9.21377 13.3047 9.20684 13.2978C9.07081 13.7635 9.05334 14.2559 9.15604 14.7301C9.25873 15.2043 9.47832 15.6453 9.79486 16.013C10.1114 16.3807 10.5148 16.6635 10.9685 16.8356C11.4221 17.0077 11.9116 17.0637 12.3923 16.9985C12.8731 16.9332 13.33 16.7489 13.7214 16.4621C14.1128 16.1754 14.4263 15.7954 14.6334 15.3566C14.8405 14.9178 14.9347 14.4343 14.9073 13.9498C14.88 13.4654 14.732 12.9955 14.4768 12.5829C14.2377 13.375 13.8393 13.7749 13.2888 13.7749H13.2724C13.1667 13.7735 13.066 13.7303 12.9922 13.6547C12.9184 13.5791 12.8775 13.4774 12.8786 13.3718L12.8789 13.372ZM19.9085 8.25433V18.9083H4.0918V8.25433H19.9085ZM12.647 10.9765C12.647 11.1379 12.7502 11.2659 12.9447 11.4974C13.1743 11.7673 13.4625 12.1104 13.6009 12.6638C13.7087 12.4318 13.8001 12.079 13.861 11.6354C13.871 11.5629 13.9006 11.4946 13.9467 11.4378C13.9928 11.381 14.0536 11.3379 14.1225 11.3133C14.1914 11.2887 14.2657 11.2835 14.3374 11.2982C14.409 11.3129 14.4752 11.3471 14.5288 11.3968C15.0476 11.8794 15.4173 12.5004 15.5944 13.1864C15.7714 13.8725 15.7484 14.5948 15.528 15.2682C15.3075 15.9415 14.899 16.5377 14.3505 16.9862C13.8021 17.4347 13.1367 17.7169 12.433 17.7993C11.7293 17.8817 11.0167 17.761 10.3795 17.4513C9.74221 17.1416 9.20694 16.656 8.8369 16.0518C8.46687 15.4476 8.27753 14.7501 8.29128 14.0417C8.30503 13.3334 8.52128 12.6437 8.91448 12.0543C8.9634 11.9809 9.03523 11.9257 9.11878 11.8974C9.20234 11.8691 9.29292 11.8692 9.37639 11.8978C9.45987 11.9263 9.53156 11.9817 9.58028 12.0552C9.629 12.1288 9.65202 12.2164 9.64573 12.3044C9.63449 12.4643 9.6848 12.6225 9.78636 12.7465C9.76632 11.8784 10.0723 11.0343 10.6441 10.3807C11.2158 9.72709 12.0116 9.31145 12.8747 9.21578C12.9528 9.2076 13.0315 9.22252 13.1012 9.2587C13.1708 9.29487 13.2283 9.35071 13.2665 9.41927C13.3047 9.48784 13.3219 9.56611 13.316 9.64436C13.31 9.72262 13.2813 9.79742 13.2332 9.85947C12.8419 10.363 12.6451 10.7384 12.6473 10.9765H12.647ZM16.7031 4.64833H7.30002C6.51921 4.64947 5.76555 4.93494 5.17991 5.45135C4.59427 5.96777 4.21675 6.67979 4.11791 7.45431H19.8828C19.7844 6.67999 19.4074 5.96802 18.8221 5.45157C18.2369 4.93513 17.4835 4.64959 16.703 4.64838L16.7031 4.64833Z" fill="#23AFA4"/>
</g>
<defs>
<clipPath id="clip0_272_24927">
<rect width="24" height="24" fill="white" transform="translate(0 0.777344)"/>
</clipPath>
</defs>
</svg>
