<svg width="24" height="24" viewBox="0 0 24 24" fill="none" xmlns="http://www.w3.org/2000/svg">
<g clip-path="url(#clip0_272_35926)">
<path d="M16.935 12.257C16.532 12.718 13 16.839 13 19.432C13 21.951 15.019 24 17.5 24C19.981 24 22 21.951 22 19.432C22 16.839 18.468 12.719 18.065 12.257C17.78 11.931 17.22 11.931 16.935 12.257Z" fill="#23AFA4"/>
<path d="M15.428 10.941C15.835 10.476 16.392 10.175 17 10.065V3.5H17.25C17.664 3.5 18 3.164 18 2.75C18 2.336 17.664 2 17.25 2H16.25H9V1.75C9 0.785 8.215 0 7.25 0H6.75C5.785 0 5 0.785 5 1.75V2H3.75H2.75C2.336 2 2 2.336 2 2.75C2 3.164 2.336 3.5 2.75 3.5H3V10.75H2.75C2.336 10.75 2 11.086 2 11.5C2 11.914 2.336 12.25 2.75 12.25H3V19.5H2.75C2.336 19.5 2 19.836 2 20.25C2 20.664 2.336 21 2.75 21H3.75H11.195C11.072 20.496 11 19.973 11 19.432C11 16.261 14.39 12.131 15.428 10.941ZM7.5 2H6.5V1.75C6.5 1.612 6.612 1.5 6.75 1.5H7.25C7.388 1.5 7.5 1.612 7.5 1.75V2Z" fill="#23AFA4"/>
</g>
<defs>
<clipPath id="clip0_272_35926">
<rect width="24" height="24" fill="white"/>
</clipPath>
</defs>
</svg>
