<svg width="24" height="24" viewBox="0 0 24 24" fill="none" xmlns="http://www.w3.org/2000/svg">
<path d="M18.375 15.9375V17.3929L18.918 17.664C18.9803 17.6952 19.0327 17.7432 19.0693 17.8026C19.1058 17.8619 19.1251 17.9303 19.125 18V21H20.25V18.375C20.25 18.2963 20.2747 18.2196 20.3206 18.1557C20.3666 18.0919 20.4315 18.0441 20.5061 18.0191L21.375 17.7296V16.8431L20.4697 15.9375H18.375Z" fill="#23AFA4"/>
<path d="M15 20.25C15 20.4489 15.079 20.6397 15.2197 20.7803C15.3603 20.921 15.5511 21 15.75 21C15.9489 21 16.1397 20.921 16.2803 20.7803C16.421 20.6397 16.5 20.4489 16.5 20.25C16.5 20.0014 16.1501 19.3219 15.75 18.6829C15.3499 19.3222 15 20.0017 15 20.25Z" fill="#23AFA4"/>
<path d="M19.125 14.4374V15.1874H19.875V14.4374C19.8743 13.9058 19.6858 13.3916 19.3427 12.9855C18.9996 12.5795 18.524 12.3078 18 12.2185V12.9846C18.3218 13.0683 18.6067 13.2563 18.8103 13.5191C19.0138 13.782 19.1245 14.1049 19.125 14.4374Z" fill="#23AFA4"/>
<path d="M21.375 3.375H15V7.5H21.375V3.375Z" fill="#23AFA4"/>
<path d="M13.5 1.125V22.875H22.875V1.125H13.5ZM15.75 21.75C15.3522 21.75 14.9706 21.592 14.6893 21.3107C14.408 21.0294 14.25 20.6478 14.25 20.25C14.25 19.5473 15.2422 18.075 15.4414 17.787C15.4777 17.7397 15.5245 17.7014 15.578 17.675C15.6315 17.6487 15.6903 17.635 15.75 17.635C15.8097 17.635 15.8685 17.6487 15.922 17.675C15.9755 17.7014 16.0223 17.7397 16.0586 17.787C16.2578 18.075 17.25 19.5473 17.25 20.25C17.25 20.6478 17.092 21.0294 16.8107 21.3107C16.5294 21.592 16.1478 21.75 15.75 21.75ZM22.125 18C22.125 18.0787 22.1003 18.1555 22.0542 18.2194C22.0082 18.2832 21.9432 18.331 21.8685 18.3559L21 18.6454V21.375C21 21.4745 20.9605 21.5698 20.8902 21.6402C20.8198 21.7105 20.7245 21.75 20.625 21.75H18.75C18.6505 21.75 18.5552 21.7105 18.4848 21.6402C18.4145 21.5698 18.375 21.4745 18.375 21.375V18.2318L17.832 17.9625C17.7694 17.9312 17.7169 17.8829 17.6803 17.8233C17.6437 17.7637 17.6246 17.695 17.625 17.625V15.5625C17.625 15.463 17.6645 15.3677 17.7348 15.2973C17.8052 15.227 17.9005 15.1875 18 15.1875H18.375V14.4375C18.375 14.2386 18.296 14.0478 18.1553 13.9072C18.0147 13.7665 17.8239 13.6875 17.625 13.6875C17.5255 13.6875 17.4302 13.648 17.3598 13.5777C17.2895 13.5073 17.25 13.412 17.25 13.3125V11.8125C17.25 11.713 17.2895 11.6177 17.3598 11.5473C17.4302 11.477 17.5255 11.4375 17.625 11.4375C18.4204 11.4384 19.1829 11.7548 19.7453 12.3172C20.3077 12.8796 20.6241 13.6421 20.625 14.4375V15.1875C20.7244 15.1875 20.8198 15.227 20.8901 15.2974L22.0151 16.4224C22.0855 16.4927 22.125 16.5881 22.125 16.6875V18ZM22.125 7.875C22.125 7.97446 22.0855 8.06984 22.0152 8.14017C21.9448 8.21049 21.8495 8.25 21.75 8.25H14.625C14.5255 8.25 14.4302 8.21049 14.3598 8.14017C14.2895 8.06984 14.25 7.97446 14.25 7.875V3C14.25 2.90054 14.2895 2.80516 14.3598 2.73484C14.4302 2.66451 14.5255 2.625 14.625 2.625H21.75C21.8495 2.625 21.9448 2.66451 22.0152 2.73484C22.0855 2.80516 22.125 2.90054 22.125 3V7.875Z" fill="#23AFA4"/>
<path d="M5.25 1.125C4.15638 1.12629 3.10792 1.5613 2.33461 2.33461C1.5613 3.10792 1.12629 4.15638 1.125 5.25V22.875H9.375V5.25C9.37371 4.15638 8.9387 3.10792 8.16539 2.33461C7.39208 1.5613 6.34362 1.12629 5.25 1.125ZM7.437 17.0831L4.437 21.5831C4.38843 21.6559 4.31595 21.7094 4.23209 21.7344C4.14823 21.7594 4.05828 21.7542 3.97781 21.7199C3.89734 21.6855 3.83142 21.6241 3.79146 21.5462C3.7515 21.4684 3.74002 21.379 3.759 21.2936L4.40738 18.375H3.375C3.30583 18.375 3.238 18.3559 3.17902 18.3197C3.12004 18.2836 3.07221 18.2319 3.04081 18.1702C3.00941 18.1086 2.99567 18.0395 3.00111 17.9705C3.00655 17.9016 3.03095 17.8354 3.07162 17.7795L6.07162 13.6545C6.12061 13.5875 6.19046 13.5386 6.27022 13.5155C6.34999 13.4924 6.43515 13.4965 6.51237 13.527C6.58958 13.5575 6.65447 13.6128 6.69687 13.6842C6.73926 13.7556 6.75676 13.8391 6.74662 13.9215L6.42487 16.5H7.125C7.19289 16.5 7.25951 16.5184 7.31775 16.5533C7.376 16.5882 7.42367 16.6382 7.4557 16.6981C7.48773 16.7579 7.50291 16.8254 7.49961 16.8932C7.49632 16.961 7.47468 17.0266 7.437 17.0831ZM4.5 12C4.5 11.8517 4.54399 11.7067 4.6264 11.5833C4.70881 11.46 4.82594 11.3639 4.96299 11.3071C5.10003 11.2503 5.25083 11.2355 5.39632 11.2644C5.5418 11.2934 5.67544 11.3648 5.78033 11.4697C5.88522 11.5746 5.95665 11.7082 5.98559 11.8537C6.01453 11.9992 5.99968 12.15 5.94291 12.287C5.88614 12.4241 5.79001 12.5412 5.66668 12.6236C5.54334 12.706 5.39834 12.75 5.25 12.75C5.05109 12.75 4.86032 12.671 4.71967 12.5303C4.57902 12.3897 4.5 12.1989 4.5 12ZM6.75 8.25H3.75C3.45163 8.25 3.16548 8.13147 2.9545 7.9205C2.74353 7.70952 2.625 7.42337 2.625 7.125C2.625 6.82663 2.74353 6.54048 2.9545 6.3295C3.16548 6.11853 3.45163 6 3.75 6H6.75C7.04837 6 7.33452 6.11853 7.5455 6.3295C7.75647 6.54048 7.875 6.82663 7.875 7.125C7.875 7.42337 7.75647 7.70952 7.5455 7.9205C7.33452 8.13147 7.04837 8.25 6.75 8.25ZM6.75 5.25H3.75C3.45163 5.25 3.16548 5.13147 2.9545 4.9205C2.74353 4.70952 2.625 4.42337 2.625 4.125C2.625 3.82663 2.74353 3.54048 2.9545 3.3295C3.16548 3.11853 3.45163 3 3.75 3H6.75C7.04837 3 7.33452 3.11853 7.5455 3.3295C7.75647 3.54048 7.875 3.82663 7.875 4.125C7.875 4.42337 7.75647 4.70952 7.5455 4.9205C7.33452 5.13147 7.04837 5.25 6.75 5.25Z" fill="#23AFA4"/>
<path d="M6.75 3.75H3.75C3.65054 3.75 3.55516 3.78951 3.48484 3.85984C3.41451 3.93016 3.375 4.02554 3.375 4.125C3.375 4.22446 3.41451 4.31984 3.48484 4.39016C3.55516 4.46049 3.65054 4.5 3.75 4.5H6.75C6.84946 4.5 6.94484 4.46049 7.01517 4.39016C7.08549 4.31984 7.125 4.22446 7.125 4.125C7.125 4.02554 7.08549 3.93016 7.01517 3.85984C6.94484 3.78951 6.84946 3.75 6.75 3.75Z" fill="#23AFA4"/>
<path d="M6.75 6.75H3.75C3.65054 6.75 3.55516 6.78951 3.48484 6.85983C3.41451 6.93016 3.375 7.02554 3.375 7.125C3.375 7.22446 3.41451 7.31984 3.48484 7.39017C3.55516 7.46049 3.65054 7.5 3.75 7.5H6.75C6.84946 7.5 6.94484 7.46049 7.01517 7.39017C7.08549 7.31984 7.125 7.22446 7.125 7.125C7.125 7.02554 7.08549 6.93016 7.01517 6.85983C6.94484 6.78951 6.84946 6.75 6.75 6.75Z" fill="#23AFA4"/>
<path d="M5.71882 17.1233C5.68366 17.0834 5.65739 17.0365 5.64174 16.9857C5.6261 16.9349 5.62144 16.8813 5.62807 16.8286L5.82232 15.2727L4.11157 17.6251H4.87507C4.93118 17.6251 4.98658 17.6377 5.03717 17.662C5.08776 17.6863 5.13225 17.7216 5.16737 17.7653C5.2025 17.8091 5.22735 17.8602 5.24011 17.9148C5.25286 17.9695 5.25319 18.0263 5.24107 18.0811L4.92645 19.4971L6.4242 17.2501H6.00007C5.94689 17.2501 5.8943 17.2388 5.84581 17.217C5.79732 17.1951 5.75403 17.1632 5.71882 17.1233Z" fill="#23AFA4"/>
</svg>
