<svg width="24" height="24" viewBox="0 0 24 24" fill="none" xmlns="http://www.w3.org/2000/svg">
<g clip-path="url(#clip0_272_35822)">
<path d="M18.9494 0.205922L16.8689 2.28647L18.8576 4.27523L20.9263 2.20655H21.7969C22.1852 2.20655 22.5 1.89173 22.5 1.50342V0.703125C22.5 0.314812 22.1852 0 21.7969 0H19.4466C19.2601 0 19.0813 0.0740625 18.9494 0.205922Z" fill="#23AFA4"/>
<path d="M17.7036 7.08631L18.1945 6.59539C18.4691 6.32079 18.4691 5.87562 18.1945 5.60103L15.5429 2.94935C15.2683 2.67476 14.8231 2.67476 14.5485 2.94935L14.0576 3.44023L17.7036 7.08631Z" fill="#23AFA4"/>
<path d="M7.15332 14.98H10.3844V18.2111H7.15332V14.98Z" fill="#23AFA4"/>
<path d="M16.9887 8.36007L12.7838 4.15514C12.4297 3.801 11.9588 3.60596 11.458 3.60596H2.57812C1.15425 3.60596 0 4.76021 0 6.18408V21.422C0 22.8458 1.15425 24.0001 2.57812 24.0001H14.9598C16.3837 24.0001 17.5379 22.8458 17.5379 21.422V9.68588C17.5379 9.18502 17.3429 8.71421 16.9887 8.36007ZM12.991 19.8232C13.2656 20.0978 13.2656 20.5429 12.991 20.8175C12.8537 20.9548 12.6738 21.0235 12.4939 21.0235C12.314 21.0235 12.134 20.9549 11.9967 20.8176L10.7964 19.6172H6.74156L5.54128 20.8175C5.40398 20.9548 5.22403 21.0235 5.04413 21.0235C4.86422 21.0235 4.68422 20.9549 4.54697 20.8175C4.27238 20.5429 4.27238 20.0978 4.54697 19.8232L5.74725 18.6229V14.568L4.54697 13.3677C4.27238 13.0931 4.27238 12.6479 4.54697 12.3733C4.82152 12.0987 5.26673 12.0987 5.54133 12.3733L6.74161 13.5736H10.7964L11.9968 12.3733C12.2714 12.0987 12.7166 12.0987 12.9911 12.3733C13.2657 12.6479 13.2657 13.093 12.9911 13.3676L11.7908 14.5679V18.6228L12.991 19.8232ZM4.19859 9.19078C3.43308 9.19078 2.8125 8.57021 2.8125 7.80469C2.8125 7.03918 3.43308 6.4186 4.19859 6.4186H11.0696L13.8419 9.19083H4.19859V9.19078Z" fill="#23AFA4"/>
<path d="M22.2422 11.7657C21.2729 11.7657 20.4844 10.9771 20.4844 10.0079C20.4844 9.75905 20.5551 9.32053 21.1664 8.38898C21.4711 7.92464 21.7723 7.54786 21.785 7.53202C21.8962 7.39327 22.0644 7.3125 22.2422 7.3125C22.42 7.3125 22.5882 7.39322 22.6994 7.53202C22.7121 7.54781 23.0133 7.92459 23.318 8.38898C23.9293 9.32053 24 9.75905 24 10.0079C24 10.9771 23.2115 11.7657 22.2422 11.7657Z" fill="#23AFA4"/>
</g>
<defs>
<clipPath id="clip0_272_35822">
<rect width="24" height="24" fill="white"/>
</clipPath>
</defs>
</svg>
