<svg width="24" height="25" viewBox="0 0 24 25" fill="none" xmlns="http://www.w3.org/2000/svg">
<path fill-rule="evenodd" clip-rule="evenodd" d="M18.4334 8.22988C18.7463 9.33335 18.8379 10.5188 18.6643 11.7274C18.6361 11.9236 18.6014 12.1173 18.5604 12.3082C18.5399 12.2378 18.5053 12.1704 18.4561 12.11C18.2597 11.8693 17.9054 11.8333 17.6647 12.0297L17.6523 12.0397V11.6525C17.6523 11.3418 17.4004 11.09 17.0898 11.09C16.7791 11.09 16.5273 11.3418 16.5273 11.6525V12.0811L16.4479 12.0199C16.2018 11.8304 15.8486 11.8762 15.659 12.1223C15.5365 12.2814 15.5123 12.4852 15.577 12.6607C15.3615 12.5597 15.0968 12.6038 14.9262 12.7875C14.7148 13.0151 14.728 13.3711 14.9557 13.5824L16.5273 15.0417V16.2355C16.4799 16.287 16.4319 16.3379 16.3833 16.3882L15.2386 15.7324L14.8504 13.766C14.7902 13.4612 14.4944 13.2629 14.1896 13.3231C13.8848 13.3832 13.6865 13.6791 13.7467 13.9839L13.9457 14.9917L13.873 14.9501L13.702 14.0419C13.6446 13.7366 13.3505 13.5357 13.0452 13.5931C12.7513 13.6485 12.5542 13.923 12.5911 14.2158L12.2795 14.0373C12.01 13.8829 11.6663 13.9762 11.5118 14.2458C11.3574 14.5154 11.4508 14.8591 11.7203 15.0135L12.1505 15.2599L12.1438 15.263C11.8626 15.3952 11.7418 15.7302 11.8739 16.0114C11.9408 16.1536 12.0596 16.2548 12.1971 16.303C12.0631 16.4421 12.0044 16.6467 12.0605 16.846C12.1446 17.1451 12.4553 17.3193 12.7543 17.2351L14.6616 16.6984L15.5024 17.18C15.0995 17.4943 14.6683 17.7721 14.2143 18.0093L12.7669 17.5652C12.4699 17.4741 12.1553 17.641 12.0642 17.938C11.9731 18.235 12.14 18.5496 12.437 18.6408L12.5322 18.67C12.5124 18.6754 12.4926 18.6807 12.4728 18.686C12.3217 18.6613 12.1712 18.7002 12.0529 18.7859C11.2928 18.9461 10.5001 19.0028 9.69257 18.9425C5.32211 18.6251 1.875 14.9788 1.875 10.5274C1.875 9.29788 2.13799 8.12977 2.61079 7.07627C3.10706 5.9673 3.8316 4.99573 4.71722 4.21188C5.67983 3.35842 6.83893 2.72167 8.11809 2.37809C9.00281 2.13939 9.93861 2.04246 10.8955 2.10974C11.8884 2.1775 12.8341 2.41703 13.7032 2.79885C14.8758 3.3125 15.8972 4.0805 16.7087 5.02443C17.499 5.94221 18.0952 7.03194 18.4334 8.22988ZM10.3125 6.58997C10.5 6.58997 10.6304 6.768 10.6304 6.768L10.6327 6.77184L10.6378 6.78005L10.6458 6.79284C10.66 6.8157 10.6792 6.84654 10.6922 6.86863C10.7301 6.93318 10.7836 7.02658 10.8474 7.14463C10.975 7.38045 11.1446 7.71602 11.3142 8.11749C11.6507 8.9139 12 9.99881 12 11.09C12 11.7046 11.8355 12.2188 11.5284 12.5866C11.2175 12.9588 10.7827 13.1525 10.3125 13.1525C9.84231 13.1525 9.40751 12.9588 9.0966 12.5866C8.78949 12.2188 8.625 11.7046 8.625 11.09C8.625 9.99881 8.97431 8.9139 9.31082 8.11749C9.48045 7.71602 9.65004 7.38045 9.77756 7.14463C9.84139 7.02658 9.89486 6.93318 9.93281 6.86863C9.95179 6.83636 9.9828 6.78538 9.99339 6.768C9.99339 6.768 10.125 6.58997 10.3125 6.58997ZM4.6875 10.5275C4.6875 7.42087 7.20591 4.90247 10.3125 4.90247C13.4191 4.90247 15.9375 7.42087 15.9375 10.5275C15.9375 10.7346 16.1054 10.9025 16.3125 10.9025C16.5196 10.9025 16.6875 10.7346 16.6875 10.5275C16.6875 7.00665 13.8333 4.15247 10.3125 4.15247C6.79168 4.15247 3.9375 7.00665 3.9375 10.5275C3.9375 10.7346 4.10539 10.9025 4.3125 10.9025C4.51961 10.9025 4.6875 10.7346 4.6875 10.5275Z" fill="#23AFA4"/>
<path d="M16.4934 13.4756L16.5272 13.507V13.5016L16.4934 13.4756Z" fill="#23AFA4"/>
<path d="M17.0899 11.2773C17.297 11.2773 17.4649 11.4452 17.4649 11.6523V12.4345L17.7833 12.1749C17.9438 12.0439 18.18 12.0679 18.3109 12.2284C18.4418 12.3889 18.4178 12.6251 18.2574 12.756L17.4649 13.4024V13.8752L18.4087 12.9082C18.5534 12.76 18.7909 12.7571 18.939 12.9017C19.0873 13.0464 19.0901 13.2838 18.9454 13.432L17.4649 14.949V16.7626L19.0575 15.8504L19.5146 13.7411C19.5585 13.5387 19.7582 13.4102 19.9605 13.4541C20.163 13.498 20.2914 13.6976 20.2476 13.9L19.9337 15.3484L20.4049 15.0786L20.4936 14.2677C20.5161 14.0618 20.7011 13.9131 20.907 13.9357C21.1129 13.9582 21.2616 14.1433 21.2391 14.3492L21.2096 14.6175L21.9386 14.1999C22.1184 14.0969 22.3476 14.1592 22.4505 14.3389C22.5534 14.5186 22.4912 14.7477 22.3114 14.8507L21.7791 15.1557C21.942 15.2247 22.038 15.402 21.9988 15.5813C21.9544 15.7836 21.7545 15.9116 21.5522 15.8673L20.8177 15.7063L20.3432 15.9782L21.5724 16.3332C21.7714 16.3907 21.8861 16.5986 21.8286 16.7976C21.7712 16.9965 21.5632 17.1113 21.3643 17.0538L19.4372 16.4972L17.817 17.4253L19.4325 18.3508L21.3557 17.7452C21.5533 17.683 21.7639 17.7927 21.8259 17.9903C21.8882 18.1878 21.7785 18.3984 21.5809 18.4606L20.3182 18.8582L20.8271 19.1496L21.8443 18.9797C22.0487 18.9456 22.242 19.0836 22.2759 19.2879C22.3101 19.4921 22.1722 19.6854 21.9679 19.7195L21.8548 19.7383L22.3114 19.9998C22.4912 20.103 22.5534 20.3321 22.4505 20.5117C22.3476 20.6915 22.1184 20.7536 21.9386 20.6507L21.2096 20.2331L21.2391 20.5014C21.2616 20.7073 21.1129 20.8923 20.907 20.9148C20.7011 20.9375 20.5161 20.7888 20.4936 20.583L20.4049 19.772L19.9496 19.5113L20.2462 20.7821C20.2935 20.9838 20.1681 21.1854 19.9665 21.2327C19.7647 21.2797 19.563 21.1543 19.5159 20.9527L19.0605 19.002L17.4649 18.088V19.9442L18.9313 21.2964C19.0836 21.4368 19.0931 21.674 18.9527 21.8263C18.8124 21.9785 18.5751 21.9881 18.4229 21.8478L17.4649 20.9643V21.4209L18.0928 21.9317C18.2535 22.0623 18.2777 22.2986 18.147 22.4593C18.0163 22.6198 17.7801 22.6442 17.6195 22.5135L17.4649 22.3877V23.0898C17.4649 23.297 17.297 23.4648 17.0899 23.4648C16.8828 23.4648 16.7149 23.297 16.7149 23.0898V22.4263L16.6256 22.5047C16.4698 22.6412 16.2329 22.6254 16.0964 22.4696C15.9599 22.314 15.9755 22.077 16.1313 21.9405L16.7149 21.4292V20.9105L15.579 21.8598C15.4201 21.9926 15.1836 21.9714 15.0508 21.8126C14.918 21.6536 14.9392 21.4172 15.0981 21.2844L16.7149 19.9331V18.0566L15.0599 19.0047L14.5522 20.9615C14.5002 21.162 14.2956 21.2823 14.0951 21.2304C13.8946 21.1783 13.7743 20.9737 13.8263 20.7733L14.1498 19.526L13.6991 19.7842L13.5157 20.6223C13.4715 20.8247 13.2716 20.9527 13.0692 20.9085C12.8669 20.8642 12.7388 20.6643 12.7831 20.462L12.8213 20.2871L12.1865 20.6507C12.0067 20.7536 11.7776 20.6915 11.6747 20.5117C11.5717 20.3321 11.634 20.103 11.8137 19.9998L12.4293 19.6473L12.2738 19.5999C12.0757 19.5395 11.9641 19.33 12.0245 19.1319C12.0849 18.9337 12.2944 18.8221 12.4925 18.8825L13.3226 19.1356L13.7993 18.8625L12.4921 18.4614C12.2941 18.4006 12.1828 18.1909 12.2436 17.9929C12.3043 17.7949 12.5141 17.6836 12.7121 17.7444L14.6912 18.3516L16.3081 17.4253L14.6867 16.4965L12.7037 17.0545C12.5043 17.1106 12.2972 16.9945 12.2411 16.7951C12.185 16.5957 12.3011 16.3886 12.5005 16.3325L13.7746 15.974L13.3512 15.7314L12.5427 16.1114C12.3552 16.1995 12.1319 16.1189 12.0438 15.9315C11.9557 15.7441 12.0362 15.5207 12.2237 15.4326L12.5565 15.2762L11.8137 14.8507C11.634 14.7477 11.5717 14.5186 11.6747 14.3389C11.7776 14.1592 12.0067 14.0969 12.1865 14.1999L12.8494 14.5797L12.7809 14.2152C12.7426 14.0117 12.8765 13.8156 13.08 13.7773C13.2836 13.739 13.4796 13.8729 13.5179 14.0765L13.7048 15.0697L14.2094 15.3587L13.9308 13.9474C13.8907 13.7442 14.0229 13.547 14.2261 13.5069C14.4293 13.4668 14.6265 13.599 14.6666 13.8022L15.0713 15.8525L16.7149 16.794V14.9598L15.0834 13.4449C14.9316 13.304 14.9228 13.0667 15.0638 12.915C15.2047 12.7632 15.442 12.7544 15.5937 12.8953L16.7149 13.9364V13.4088L15.8759 12.7625C15.7119 12.6361 15.6813 12.4007 15.8077 12.2366C15.9341 12.0725 16.1696 12.042 16.3336 12.1684L16.7149 12.4621V11.6523C16.7149 11.4452 16.8828 11.2773 17.0899 11.2773Z" fill="#23AFA4"/>
</svg>
