<svg width="24" height="24" viewBox="0 0 24 24" fill="none" xmlns="http://www.w3.org/2000/svg">
<g clip-path="url(#clip0_272_37220)">
<path d="M22 8C21.535 8 21.113 8.166 20.773 8.433L16.973 6.267C16.985 6.179 17 6.091 17 6C17 5.909 16.985 5.821 16.973 5.733L20.773 3.567C21.113 3.834 21.535 4 22 4C23.103 4 24 3.103 24 2C24 0.897 23.103 0 22 0C20.897 0 20 0.897 20 2C20 2.091 20.015 2.179 20.027 2.267L16.227 4.433C15.887 4.166 15.465 4 15 4C13.897 4 13 4.897 13 6C13 7.103 13.897 8 15 8C15.465 8 15.887 7.834 16.227 7.567L20.027 9.733C20.015 9.821 20 9.909 20 10C20 11.103 20.897 12 22 12C23.103 12 24 11.103 24 10C24 8.897 23.103 8 22 8Z" fill="#23AFA4"/>
<path d="M11 24.25C7.278 24.25 4.25 21.222 4.25 17.5V12.25C4.25 11.836 4.586 11.5 5 11.5C5.414 11.5 5.75 11.836 5.75 12.25V17.5C5.75 20.395 8.105 22.75 11 22.75C13.895 22.75 16.25 20.395 16.25 17.5V16.5C16.25 16.086 16.586 15.75 17 15.75C17.414 15.75 17.75 16.086 17.75 16.5V17.5C17.75 21.222 14.722 24.25 11 24.25Z" fill="#23AFA4"/>
<path d="M6.75 5.5C6.336 5.5 6 5.164 6 4.75V0.75C6 0.336 6.336 0 6.75 0C7.164 0 7.5 0.336 7.5 0.75V4.75C7.5 5.164 7.164 5.5 6.75 5.5Z" fill="#23AFA4"/>
<path d="M3.25 5.5C2.836 5.5 2.5 5.164 2.5 4.75V0.75C2.5 0.336 2.836 0 3.25 0C3.664 0 4 0.336 4 0.75V4.75C4 5.164 3.664 5.5 3.25 5.5Z" fill="#23AFA4"/>
<path d="M7.25 4H2.75C1.233 4 0 5.233 0 6.75V9.199C0 11.295 1.705 13 3.801 13H6.198C8.295 13 10 11.295 10 9.199V6.75C10 5.233 8.767 4 7.25 4ZM6.75 8.5H3.25C2.836 8.5 2.5 8.164 2.5 7.75C2.5 7.336 2.836 7 3.25 7H6.75C7.164 7 7.5 7.336 7.5 7.75C7.5 8.164 7.164 8.5 6.75 8.5Z" fill="#23AFA4"/>
</g>
<defs>
<clipPath id="clip0_272_37220">
<rect width="24" height="24" fill="white"/>
</clipPath>
</defs>
</svg>
