<svg width="24" height="24" viewBox="0 0 24 24" fill="none" xmlns="http://www.w3.org/2000/svg">
<g clip-path="url(#clip0_272_24867)">
<path d="M9.1875 4.3125C9.72722 4.3125 10.2202 4.10855 10.5938 3.77419C11.3408 4.443 12.6592 4.443 13.4062 3.77419C13.7798 4.10855 14.2728 4.3125 14.8125 4.3125C15.9757 4.3125 16.9219 3.36628 16.9219 2.20312V0H7.07812V2.20312C7.07812 3.36628 8.02434 4.3125 9.1875 4.3125Z" fill="#23AFA4"/>
<path d="M11.2969 8.53125H12.7031V11.3438H11.2969V8.53125Z" fill="#23AFA4"/>
<path d="M21.1406 12.7504V7.12538H16.9219V4.99805C16.3325 5.4442 15.6069 5.71913 14.8125 5.71913C14.3167 5.71913 13.832 5.61473 13.387 5.41702C12.9592 5.59073 12.4882 5.68205 12 5.68205C11.5118 5.68205 11.0408 5.59073 10.613 5.41702C10.168 5.61473 9.68325 5.71913 9.1875 5.71913C8.39306 5.71913 7.66753 5.4442 7.07812 4.99805V7.12538H2.85938V12.7504H0V14.8597C0 16.0229 0.993094 16.9691 2.15625 16.9691C2.69597 16.9691 3.18895 16.7652 3.5625 16.4308C4.30959 17.0996 5.62791 17.0996 6.375 16.4308C6.74855 16.7652 7.24153 16.9691 7.78125 16.9691C8.94441 16.9691 9.89062 16.0229 9.89062 14.8597V12.7504H4.26562V8.53163H7.07812V11.3441H9.89062V7.12538H14.1094V11.3441H16.9219V8.53163H19.7344V12.7504H14.1094V14.8597C14.1094 16.0229 15.0556 16.9691 16.2188 16.9691C16.7585 16.9691 17.2515 16.7652 17.625 16.4308C18.3721 17.0996 19.6905 17.0996 20.4375 16.4308C20.811 16.7652 21.304 16.9691 21.8438 16.9691C23.0069 16.9691 24 16.0229 24 14.8597V12.7504H21.1406Z" fill="#23AFA4"/>
<path d="M20.4183 18.0733C19.9905 18.247 19.5195 18.3383 19.0312 18.3383C18.543 18.3383 18.072 18.247 17.6442 18.0733C17.1993 18.271 16.7145 18.3754 16.2188 18.3754C15.4243 18.3754 14.6988 18.1005 14.1094 17.6543V24.0004H16.9219V19.7816H21.1406V24.0004H24V17.6543C23.4106 18.1005 22.6382 18.3754 21.8438 18.3754C21.348 18.3754 20.8632 18.271 20.4183 18.0733Z" fill="#23AFA4"/>
<path d="M18.3281 21.1875H19.7344V24H18.3281V21.1875Z" fill="#23AFA4"/>
<path d="M6.35578 18.0733C5.928 18.247 5.45695 18.3383 4.96875 18.3383C4.48055 18.3383 4.0095 18.247 3.58172 18.0733C3.13678 18.271 2.652 18.3754 2.15625 18.3754C1.36181 18.3754 0.589406 18.1005 0 17.6543V24.0004H2.85938V19.7816H7.07812V24.0004H9.89062V17.6543C9.30122 18.1005 8.57569 18.3754 7.78125 18.3754C7.2855 18.3754 6.80072 18.271 6.35578 18.0733Z" fill="#23AFA4"/>
<path d="M4.26562 21.1875H5.67188V24H4.26562V21.1875Z" fill="#23AFA4"/>
</g>
<defs>
<clipPath id="clip0_272_24867">
<rect width="24" height="24" fill="white"/>
</clipPath>
</defs>
</svg>
