<svg width="24" height="25" viewBox="0 0 24 25" fill="none" xmlns="http://www.w3.org/2000/svg">
<g clip-path="url(#clip0_272_37952)">
<path fill-rule="evenodd" clip-rule="evenodd" d="M8.74022 7.33778C8.74022 7.13069 8.90813 6.96278 9.11522 6.96278C9.32232 6.96278 9.49022 7.13069 9.49022 7.33778V9.54977L10.9234 10.3773C11.1022 10.4808 11.1632 10.7097 11.0596 10.8885C10.9561 11.0672 10.7272 11.1282 10.5484 11.0247L8.9513 10.1026C8.82633 10.0418 8.74018 9.91356 8.74018 9.76525V7.33778H8.74022ZM2.69926 9.76525C2.69926 6.22188 5.57185 3.34928 9.11522 3.34928C11.4068 3.34928 13.4178 4.55073 14.5527 6.35805C15.143 6.08692 15.7948 5.98089 16.4414 5.99434C15.073 3.34136 12.306 1.52734 9.11522 1.52734C4.56554 1.52734 0.877319 5.21561 0.877319 9.76525C0.877319 14.2081 4.3943 17.8294 8.79605 17.9971C8.79605 17.3073 8.91296 16.7593 9.30718 16.1784C5.6903 16.2847 2.69926 13.3856 2.69926 9.76525ZM10.4381 16.0447C10.9637 15.6078 11.6716 15.3056 12.4224 15.1126C12.5469 15.0805 12.6713 15.0501 12.7956 15.0213C13.7915 14.7904 14.7815 14.6613 15.766 14.6273C17.272 14.5751 18.765 14.7451 20.2463 15.1126C21.7771 15.4923 23.1227 16.3502 23.1227 17.8608V23.0549C23.1227 23.5905 22.6859 24.0273 22.1503 24.0273H20.413V19.2783C20.413 19.0712 20.2451 18.9033 20.038 18.9033C19.8309 18.9033 19.663 19.0712 19.663 19.2783V24.0273H13.0057V19.2783C13.0057 19.0712 12.8378 18.9033 12.6307 18.9033C12.4236 18.9033 12.2557 19.0712 12.2557 19.2783V24.0273H10.5184C9.98283 24.0273 9.54601 23.5905 9.54601 23.0549V17.9921C9.54601 17.164 9.79257 16.5814 10.4381 16.0447ZM14.5483 13.1796C13.7798 12.4504 13.2796 11.263 13.2796 9.92209C13.2796 7.95437 14.3968 6.74327 16.3344 6.74327C18.2878 6.74327 19.3891 7.9705 19.3891 9.92209C19.3891 12.1394 18.0215 13.937 16.3344 13.937C16.2967 13.937 16.2592 13.9361 16.2219 13.9343C15.5982 13.9046 15.0222 13.6292 14.5483 13.1796ZM4.00688 10.1403C3.79979 10.1403 3.63188 9.97234 3.63188 9.76525C3.63188 9.55816 3.79979 9.39025 4.00688 9.39025H4.56062C4.76771 9.39025 4.93562 9.55816 4.93562 9.76525C4.93562 9.97234 4.76771 10.1403 4.56062 10.1403H4.00688ZM9.49022 14.8736C9.49022 15.0807 9.32232 15.2486 9.11522 15.2486C8.90813 15.2486 8.74022 15.0807 8.74022 14.8736V14.3199C8.74022 14.1128 8.90813 13.9449 9.11522 13.9449C9.32232 13.9449 9.49022 14.1128 9.49022 14.3199V14.8736ZM5.23796 6.41828C5.09152 6.27184 5.09152 6.03442 5.23796 5.88803C5.3844 5.74164 5.62182 5.74159 5.76821 5.88803L6.15976 6.27958C6.30619 6.42602 6.30619 6.66344 6.15976 6.80983C6.01332 6.95627 5.7759 6.95627 5.62946 6.80983L5.23796 6.41828ZM5.76821 13.6425C5.62177 13.789 5.38435 13.789 5.23796 13.6425C5.09152 13.4961 5.09152 13.2587 5.23796 13.1123L5.62951 12.7207C5.77594 12.5743 6.01337 12.5743 6.1598 12.7207C6.30624 12.8672 6.30624 13.1046 6.1598 13.251L5.76821 13.6425ZM12.9925 13.1123C13.1389 13.2587 13.1389 13.4961 12.9925 13.6425C12.8461 13.789 12.6086 13.789 12.4622 13.6425L12.0707 13.251C11.9243 13.1045 11.9243 12.8671 12.0707 12.7207C12.2171 12.5743 12.4546 12.5743 12.6009 12.7207L12.9925 13.1123ZM12.4622 5.88798C12.6087 5.74155 12.8461 5.74155 12.9925 5.88798C13.1389 6.03442 13.1389 6.27184 12.9925 6.41823L12.6009 6.80978C12.4545 6.95622 12.2171 6.95622 12.0707 6.80978C11.9243 6.66334 11.9243 6.42592 12.0707 6.27953L12.4622 5.88798ZM8.74022 4.65691C8.74022 4.44981 8.90813 4.28191 9.11522 4.28191C9.32232 4.28191 9.49022 4.44981 9.49022 4.65691V5.21064C9.49022 5.41773 9.32232 5.58564 9.11522 5.58564C8.90813 5.58564 8.74022 5.41773 8.74022 5.21064V4.65691Z" fill="#23AFA4"/>
</g>
<defs>
<clipPath id="clip0_272_37952">
<rect width="24" height="24" fill="white" transform="translate(0 0.777344)"/>
</clipPath>
</defs>
</svg>
