<svg width="24" height="24" viewBox="0 0 24 24" fill="none" xmlns="http://www.w3.org/2000/svg">
<path d="M20.6249 6.00041H21.3558C21.2826 5.26764 20.9941 4.57295 20.5267 4.00391L20.0114 4.51916L19.4812 3.98891L19.9964 3.47366C19.4274 3.00617 18.7327 2.71766 17.9999 2.64453V3.37541H17.2499V2.64453C16.5171 2.71766 15.8224 3.00617 15.2534 3.47366L15.7687 3.98891L15.2384 4.51916L14.7232 4.00391C14.2557 4.57295 13.9672 5.26764 13.894 6.00041H14.6249V6.75041H13.894C13.9672 7.48317 14.2557 8.17786 14.7232 8.74691L15.2384 8.23166L15.7687 8.76191L15.2534 9.27716C15.8224 9.74464 16.5171 10.0332 17.2499 10.1063V9.37541H17.9999V10.1063C18.7327 10.0332 19.4274 9.74464 19.9964 9.27716L19.4812 8.76191L20.0114 8.23166L20.5267 8.74691C20.9941 8.17786 21.2826 7.48317 21.3558 6.75041H20.6249V6.00041ZM18.8598 8.14053L17.3598 6.64053C17.2895 6.57022 17.2499 6.47485 17.2499 6.37541V4.12541H17.9999V6.22016L19.39 7.61028L18.8598 8.14053Z" fill="#23AFA4"/>
<path d="M17.625 0.750002C16.4629 0.750614 15.3295 1.11112 14.3807 1.78197C13.4318 2.45282 12.714 3.40109 12.3259 4.49644C11.9378 5.59178 11.8985 6.78045 12.2133 7.89905C12.5282 9.01765 13.1818 10.0113 14.0842 10.7434L13.875 12L15.1875 11.4375C15.9486 11.8045 16.7827 11.9952 17.6277 11.9955C18.4727 11.9958 19.3069 11.8056 20.0683 11.4391C20.8297 11.0725 21.4987 10.5391 22.0256 9.87846C22.5524 9.2178 22.9236 8.44689 23.1115 7.62303C23.2994 6.79917 23.2992 5.94355 23.1109 5.11978C22.9226 4.29602 22.551 3.52529 22.0238 2.86488C21.4967 2.20448 20.8274 1.67139 20.0659 1.30525C19.3043 0.939103 18.47 0.749318 17.625 0.750002ZM17.625 10.875C16.7349 10.875 15.8649 10.6111 15.1249 10.1166C14.3849 9.62215 13.8081 8.91934 13.4675 8.09708C13.1269 7.27481 13.0378 6.37001 13.2114 5.4971C13.3851 4.62418 13.8136 3.82236 14.443 3.19302C15.0723 2.56369 15.8741 2.1351 16.7471 1.96147C17.62 1.78783 18.5248 1.87695 19.347 2.21754C20.1693 2.55814 20.8721 3.13491 21.3666 3.87494C21.861 4.61496 22.125 5.48499 22.125 6.375C22.1237 7.56808 21.6492 8.71192 20.8055 9.55556C19.9619 10.3992 18.818 10.8737 17.625 10.875Z" fill="#23AFA4"/>
<path d="M1.875 22.5C1.875 22.5995 1.91451 22.6948 1.98484 22.7652C2.05516 22.8355 2.15054 22.875 2.25 22.875H4.5C4.59946 22.875 4.69484 22.8355 4.76516 22.7652C4.83549 22.6948 4.875 22.5995 4.875 22.5V22.125H1.875V22.5Z" fill="#23AFA4"/>
<path d="M2.23908 16.5371L1.99683 16.7306L2.50383 17.9996H4.0762C4.0237 17.8021 3.92963 17.6181 3.80029 17.4598C3.67095 17.3016 3.50932 17.1728 3.3262 17.082L2.23908 16.5371Z" fill="#23AFA4"/>
<path d="M2.25 14.25H2.56275L2.72363 13.5H2.25C2.15054 13.5 2.05516 13.5395 1.98484 13.6098C1.91451 13.6802 1.875 13.7755 1.875 13.875C1.875 13.9745 1.91451 14.0698 1.98484 14.1402C2.05516 14.2105 2.15054 14.25 2.25 14.25Z" fill="#23AFA4"/>
<path d="M1.39425 17.2461C1.22093 17.448 1.12544 17.7052 1.125 17.9713V18.7506L1.79513 18.2481L1.39425 17.2461Z" fill="#23AFA4"/>
<path d="M13.875 13.875C13.875 13.7755 13.8355 13.6802 13.7652 13.6098C13.6948 13.5395 13.5994 13.5 13.5 13.5H13.0264L13.1872 14.25H13.5C13.5994 14.25 13.6948 14.2105 13.7652 14.1402C13.8355 14.0698 13.875 13.9745 13.875 13.875Z" fill="#23AFA4"/>
<path d="M11.6738 18.0001H13.2462L13.7532 16.7326L13.511 16.5391L12.4235 17.0824C12.2404 17.1732 12.0788 17.3021 11.9496 17.4603C11.8203 17.6186 11.7263 17.8026 11.6738 18.0001Z" fill="#23AFA4"/>
<path d="M10.7876 10.875H4.9624C4.73053 10.8764 4.50471 10.9492 4.3156 11.0833C4.12648 11.2175 3.98323 11.4066 3.90527 11.625H11.8448C11.7668 11.4066 11.6236 11.2175 11.4344 11.0833C11.2453 10.9492 11.0195 10.8764 10.7876 10.875Z" fill="#23AFA4"/>
<path d="M12.0184 12.375H3.73162L3.08887 15.375H12.6611L12.0184 12.375Z" fill="#23AFA4"/>
<path d="M4.83963 18H10.9101C10.9673 17.6611 11.1039 17.3405 11.3087 17.0644C11.5134 16.7883 11.7806 16.5646 12.0884 16.4115L12.6614 16.125H3.08838L3.66138 16.4115C3.96914 16.5646 4.23632 16.7883 4.4411 17.0644C4.64587 17.3405 4.78244 17.6611 4.83963 18Z" fill="#23AFA4"/>
<path d="M10.125 20.625H14.625V21.375H10.125V20.625Z" fill="#23AFA4"/>
<path d="M11.25 18.75H4.5H2.37488L1.125 19.6875V19.875H14.625V19.6871L13.3751 18.75H11.25Z" fill="#23AFA4"/>
<path d="M13.9548 18.2481L14.625 18.7506V17.9713C14.6245 17.7052 14.529 17.448 14.3557 17.2461L13.9548 18.2481Z" fill="#23AFA4"/>
<path d="M10.875 22.5C10.875 22.5995 10.9145 22.6948 10.9848 22.7652C11.0552 22.8355 11.1505 22.875 11.25 22.875H13.5C13.5995 22.875 13.6948 22.8355 13.7652 22.7652C13.8355 22.6948 13.875 22.5995 13.875 22.5V22.125H10.875V22.5Z" fill="#23AFA4"/>
<path d="M6.375 20.625H9.375V21.375H6.375V20.625Z" fill="#23AFA4"/>
<path d="M1.125 20.625H5.625V21.375H1.125V20.625Z" fill="#23AFA4"/>
</svg>
