<svg width="24" height="24" viewBox="0 0 24 24" fill="none" xmlns="http://www.w3.org/2000/svg">
<g clip-path="url(#clip0_272_36640)">
<path d="M23.3699 20.4061L23.3687 20.4045C21.7783 17.6768 18.8584 16 15.7012 16H2V22.4H22.4C23.2 22 23.7824 21.1123 23.3699 20.4061Z" fill="#495867"/>
<path d="M17.5999 16.209V19.5998H22.3999V19.0555C21.1471 17.6139 19.4618 16.6166 17.5999 16.209Z" fill="#BDD5EA"/>
<path d="M4.3999 17.5996H6.7999V19.1996H4.3999V17.5996Z" fill="#BDD5EA"/>
<path d="M8.7998 17.5996H11.1998V19.1996H8.7998V17.5996Z" fill="#BDD5EA"/>
<path d="M13.2 17.5996H15.6V19.1996H13.2V17.5996Z" fill="#BDD5EA"/>
<path d="M17.3774 7.7543L19.78 5.6875L22.987 8.9332L23.5999 7.7543L21.6198 4.07754L21.5743 4.03203L23.0343 2.66328C23.503 2.19434 23.503 1.43477 23.0343 0.966016C22.5655 0.497266 21.806 0.497266 21.337 0.966016L19.9683 2.42598L19.9231 2.38047L16.246 0.400391L15.1147 0.966016L18.3216 4.21113L16.2464 6.62285L14.8319 5.77441L13.4175 6.62285L15.9632 8.03711L17.3774 10.5828L18.2259 9.16836L17.3774 7.7543Z" fill="#495867"/>
<path d="M13.9679 13.3633C13.6519 9.90723 10.7399 7.19922 7.1999 7.19922C3.65986 7.19922 0.747949 9.90723 0.431934 13.3633C0.40791 13.5713 0.399902 13.7832 0.399902 13.9992C0.399902 14.6953 0.503809 15.3672 0.695996 15.9992H13.7038C13.896 15.3672 13.9999 14.6953 13.9999 13.9992C13.9999 13.7832 13.9919 13.5713 13.9679 13.3633Z" fill="#489381"/>
<path d="M0.431934 13.3633C0.40791 13.5713 0.399902 13.7832 0.399902 13.9992C0.399902 14.6953 0.503809 15.3672 0.695996 15.9992H7.1999V7.19922C3.65986 7.19922 0.747949 9.90723 0.431934 13.3633Z" fill="#577399"/>
<path d="M10.2896 7.97363C9.34844 7.48125 8.28047 7.19922 7.14473 7.19922C6.00918 7.19922 4.94082 7.48125 4 7.97363C4.61289 8.46797 5.79082 8.79922 7.14473 8.79922C8.49883 8.79922 9.67676 8.46797 10.2896 7.97363Z" fill="#BDD5EA"/>
<path d="M1.07871 15.8844C0.893555 15.276 0.8 14.6424 0.8 14.0008C0.8 13.9455 0.802344 13.8988 0.803516 13.848C1.48398 13.9824 2.22598 14.0936 3.01523 14.1801C3.02168 14.6572 3.0584 15.1313 3.11719 15.6008H2V16.4008H15.7012C16.2084 16.4008 16.7092 16.4504 17.2 16.5393V19.2008C17.2 19.4207 17.3775 19.5996 17.598 19.6008L22.3504 19.624C22.5932 19.9309 22.8176 20.2547 23.018 20.5973C23.0199 20.6008 23.0221 20.6047 23.0244 20.6084C23.1447 20.8152 23.1461 21.0623 23.0268 21.2695C22.9076 21.4768 22.6936 21.6008 22.4549 21.6008H3.2V22.4008H22.4549C22.984 22.4008 23.4572 22.1268 23.7207 21.6676C23.982 21.2123 23.982 20.6703 23.7221 20.2156C23.7195 20.2115 23.7172 20.2072 23.7145 20.2031C22.0584 17.3645 18.9881 15.6008 15.7012 15.6008H14.2229C14.3404 15.0775 14.4 14.5416 14.4 14.0008C14.4 13.7389 14.3893 13.5221 14.3664 13.3283C14.026 9.60723 10.9451 6.80078 7.2 6.80078C3.45488 6.80078 0.374023 9.60723 0.0347656 13.3184C0.0107422 13.5221 0 13.7389 0 14.0008C0 14.7211 0.105664 15.4332 0.313281 16.1172L1.07871 15.8844ZM18 16.724C19.3623 17.1104 20.6119 17.8316 21.6264 18.8203L18 18.8027V16.724ZM6.8 9.18887V10.6332C5.95078 10.6252 5.12207 10.592 4.32715 10.5344C4.5123 9.94844 4.74766 9.39922 5.02441 8.89277C5.54844 9.05605 6.15195 9.15879 6.8 9.18887ZM9.21074 8.94355C9.47754 9.43965 9.70488 9.97559 9.88438 10.5469C9.14727 10.5963 8.38281 10.6256 7.6 10.6328V9.18887C8.18008 9.16191 8.72676 9.07832 9.21074 8.94355ZM11.1816 13.3977C11.1477 12.668 11.0516 11.9539 10.8992 11.2676C11.5881 11.202 12.2455 11.1176 12.8656 11.0156C13.1896 11.6359 13.4123 12.3199 13.5199 13.0477C12.8076 13.1912 12.0217 13.3088 11.1816 13.3977ZM7.6 14.3963C8.55801 14.3871 9.49434 14.3459 10.3893 14.2744C10.3793 14.7211 10.3439 15.1645 10.2855 15.6008H7.6V14.3963ZM10.384 13.4725C9.49356 13.5451 8.5584 13.5871 7.6 13.5963V11.4332C8.45645 11.4252 9.29277 11.3924 10.0965 11.3344C10.2553 12.0191 10.3523 12.7371 10.384 13.4725ZM6.8 11.4332V13.5963C5.77285 13.5863 4.77129 13.5396 3.82402 13.4568C3.85684 12.7229 3.95488 12.0057 4.11445 11.3215C4.9752 11.3875 5.87676 11.4244 6.8 11.4332ZM3.02676 13.3771C2.2584 13.2908 1.53809 13.1805 0.879687 13.0477C0.986328 12.3199 1.2084 11.6359 1.53281 11.0156C2.09687 11.1088 2.69043 11.1885 3.3123 11.2508C3.15918 11.9359 3.06152 12.6488 3.02676 13.3771ZM3.81797 14.2584C4.76992 14.34 5.77285 14.3863 6.8 14.3959V15.6008H3.92246C3.86328 15.1576 3.82754 14.7096 3.81797 14.2584ZM11.0908 15.6008C11.1484 15.1393 11.1848 14.6721 11.192 14.2008C12.0527 14.1115 12.8607 13.9932 13.5965 13.848C13.5977 13.8988 13.6 13.9451 13.6 14.0008C13.6 14.5436 13.5287 15.0801 13.3961 15.6008H11.0908ZM12.4119 10.2787C11.8676 10.3611 11.2928 10.4283 10.6969 10.4828C10.5061 9.83926 10.2633 9.23047 9.9707 8.66875C10.1188 8.59922 10.2516 8.52207 10.3768 8.44043C11.1816 8.89805 11.876 9.52441 12.4119 10.2787ZM9.46523 8.01113C8.86367 8.25391 8.05117 8.40078 7.2 8.40078C6.34883 8.40078 5.53633 8.25391 4.93438 8.01113C5.63926 7.74766 6.40195 7.60078 7.2 7.60078C7.99805 7.60078 8.76035 7.74766 9.46523 8.01113ZM4.02324 8.44004C4.10352 8.49238 4.19004 8.54121 4.28008 8.58887C3.97129 9.16797 3.71523 9.79805 3.51602 10.466C2.98594 10.4148 2.4748 10.3523 1.98672 10.2783C2.52285 9.52441 3.21719 8.89766 4.02324 8.44004Z" fill="black"/>
<path d="M6.8 19.5992C7.02129 19.5992 7.2 19.4199 7.2 19.1992V17.5992C7.2 17.3785 7.02129 17.1992 6.8 17.1992H4.4C4.17871 17.1992 4 17.3785 4 17.5992V19.1992C4 19.4199 4.17871 19.5992 4.4 19.5992H6.8ZM4.8 17.9992H6.4V18.7992H4.8V17.9992Z" fill="black"/>
<path d="M11.1999 19.5992C11.4212 19.5992 11.5999 19.4199 11.5999 19.1992V17.5992C11.5999 17.3785 11.4212 17.1992 11.1999 17.1992H8.7999C8.57861 17.1992 8.3999 17.3785 8.3999 17.5992V19.1992C8.3999 19.4199 8.57861 19.5992 8.7999 19.5992H11.1999ZM9.1999 17.9992H10.7999V18.7992H9.1999V17.9992Z" fill="black"/>
<path d="M15.6 19.5992C15.8213 19.5992 16 19.4199 16 19.1992V17.5992C16 17.3785 15.8213 17.1992 15.6 17.1992H13.2C12.9788 17.1992 12.8 17.3785 12.8 17.5992V19.1992C12.8 19.4199 12.9788 19.5992 13.2 19.5992H15.6ZM13.6 17.9992H15.2V18.7992H13.6V17.9992Z" fill="black"/>
<path d="M0.399902 17.1992H1.5999V17.9992H0.399902V17.1992Z" fill="black"/>
<path d="M0 23.1992H9.6V23.9992H0V23.1992Z" fill="black"/>
<path d="M10.3999 23.1992H11.1999V23.9992H10.3999V23.1992Z" fill="black"/>
<path d="M12 23.1992H24V23.9992H12V23.1992Z" fill="black"/>
<path d="M0.399902 21.1992H1.5999V21.9992H0.399902V21.1992Z" fill="black"/>
<path d="M0 19.1992H1.6V19.9992H0V19.1992Z" fill="black"/>
<path d="M13.2235 6.97209L15.669 8.33088L17.0274 10.7764C17.0968 10.9012 17.2274 10.9797 17.3702 10.9824H17.3771C17.5175 10.9824 17.648 10.9088 17.7198 10.7885L18.5687 9.37404C18.6446 9.24729 18.6446 9.08928 18.5687 8.96233L17.8935 7.83713L19.7571 6.23361L22.7019 9.21408C22.7915 9.30529 22.9194 9.3469 23.046 9.32834C23.1724 9.3092 23.2819 9.23088 23.3407 9.1176L23.9538 7.93889C24.0151 7.8217 24.014 7.68127 23.9515 7.56447L22.0855 4.09963L23.3163 2.94553C23.6187 2.64358 23.7851 2.24162 23.7851 1.81447C23.7851 1.38713 23.6187 0.985177 23.3163 0.682833C22.6923 0.0592004 21.6774 0.0588097 21.0442 0.692013L19.8995 1.91369L16.4355 0.0480676C16.3206 -0.0140418 16.1831 -0.0159949 16.0671 0.0424035L14.9358 0.608029C14.8216 0.665646 14.7411 0.774435 14.7202 0.900411C14.6991 1.02678 14.7403 1.15568 14.8304 1.2469L17.7774 4.2301L16.1628 6.10608L15.038 5.43088C14.9114 5.3549 14.7526 5.3549 14.6263 5.43088L13.2118 6.27932C13.0896 6.35276 13.0155 6.48596 13.0179 6.62873C13.0198 6.77209 13.0983 6.90276 13.2235 6.97209ZM14.8319 6.24045L16.0403 6.96526C16.2079 7.06565 16.4228 7.03049 16.5491 6.88322L18.6243 4.47209C18.7603 4.31408 18.7519 4.07834 18.6056 3.9301L15.7866 1.07678L16.2392 0.850802L19.6812 2.70451L19.6855 2.70842C19.7618 2.78518 19.8651 2.826 19.9751 2.82561C20.0835 2.82404 20.1858 2.77795 20.2603 2.69924L21.6194 1.24846C21.9308 0.93713 22.4392 0.936349 22.7511 1.24846C22.9023 1.39963 22.9855 1.60041 22.9855 1.81447C22.9855 2.02834 22.9023 2.22873 22.7606 2.37131L21.3011 3.73967C21.2224 3.81369 21.1763 3.91604 21.1747 4.02404C21.1732 4.13205 21.2148 4.23596 21.2907 4.31291L23.1476 7.75725L22.8855 8.26115L20.0644 5.40608C19.9171 5.25647 19.6792 5.2469 19.519 5.38401L17.1167 7.4508C16.969 7.57756 16.9343 7.79279 17.0347 7.95959L17.7599 9.16799L17.3907 9.78283L16.3132 7.8424C16.2767 7.77678 16.2228 7.72326 16.1575 7.68674L14.2171 6.60881L14.8319 6.24045Z" fill="black"/>
<path d="M0.800049 0H1.60005V0.8H0.800049V0Z" fill="black"/>
<path d="M0 0.800781H0.8V1.60078H0V0.800781Z" fill="black"/>
<path d="M0.800049 1.59961H1.60005V2.39961H0.800049V1.59961Z" fill="black"/>
<path d="M1.6001 0.800781H2.4001V1.60078H1.6001V0.800781Z" fill="black"/>
<path d="M10 2H10.8V2.8H10V2Z" fill="black"/>
<path d="M9.19995 2.80078H9.99995V3.60078H9.19995V2.80078Z" fill="black"/>
<path d="M10 3.59961H10.8V4.39961H10V3.59961Z" fill="black"/>
<path d="M10.8 2.80078H11.6V3.60078H10.8V2.80078Z" fill="black"/>
<path d="M22.3999 12.8008H23.1999V13.6008H22.3999V12.8008Z" fill="black"/>
<path d="M21.6001 13.5996H22.4001V14.3996H21.6001V13.5996Z" fill="black"/>
<path d="M22.3999 14.4004H23.1999V15.2004H22.3999V14.4004Z" fill="black"/>
<path d="M23.2 13.5996H24V14.3996H23.2V13.5996Z" fill="black"/>
</g>
<defs>
<clipPath id="clip0_272_36640">
<rect width="24" height="24" fill="white"/>
</clipPath>
</defs>
</svg>
