<svg width="24" height="24" viewBox="0 0 24 24" fill="none" xmlns="http://www.w3.org/2000/svg">
<g clip-path="url(#clip0_272_35627)">
<path d="M20.5257 9.73159C18.8868 6.19738 15.7805 3.96833 15.6491 3.87518L14.705 3.20605C14.7381 4.48979 14.2928 5.38587 14.004 5.90339C12.3481 4.41117 11.181 2.6814 10.9678 1.1461L10.8087 0L9.86468 0.669085C9.70087 0.785209 5.82949 3.56319 3.78703 7.96789C3.09863 9.45247 2.6556 11.1086 2.50591 12.7573C2.34647 14.5134 2.53381 16.1765 3.04772 17.5669C3.72674 19.4042 5.03214 21.0588 6.72332 22.226C8.38094 23.37 10.3317 24 12.2161 24C16.356 24 20.0268 21.2811 21.1418 17.3922C21.8539 14.963 21.6235 12.0993 20.5257 9.73159ZM11.9989 21.9998C8.87568 21.9998 6.33473 19.4588 6.33473 16.3356C6.33473 11.7872 11.9989 7.62955 11.9989 7.62955C11.9989 7.62955 17.663 11.7872 17.663 16.3356C17.663 19.4588 15.1221 21.9998 11.9989 21.9998Z" fill="#23AFA4"/>
<path d="M16.2567 16.3356C16.2567 13.1938 13.1413 10.3356 11.9989 9.39331C10.857 10.3351 7.74121 13.1935 7.74121 16.3356C7.74121 17.3416 8.09211 18.2669 8.67761 18.9964C8.66659 18.8862 8.66083 18.7746 8.66083 18.6617C8.66083 16.0796 11.999 13.6304 11.999 13.6304C11.999 13.6304 15.3371 16.0796 15.3371 18.6617C15.3371 18.7746 15.3314 18.8862 15.3204 18.9964C15.9058 18.267 16.2567 17.3416 16.2567 16.3356Z" fill="#23AFA4"/>
<path d="M13.9306 18.6617C13.9306 17.7233 13.3179 16.8148 12.8039 16.218C12.516 15.8836 12.2246 15.6058 11.9989 15.407C11.7733 15.6057 11.4818 15.8835 11.1938 16.218C10.6798 16.8148 10.0671 17.7233 10.0671 18.6617C10.0671 19.7269 10.9337 20.5934 11.9989 20.5934C13.0641 20.5934 13.9306 19.7269 13.9306 18.6617Z" fill="#23AFA4"/>
</g>
<defs>
<clipPath id="clip0_272_35627">
<rect width="24" height="24" fill="white"/>
</clipPath>
</defs>
</svg>
