<svg width="24" height="24" viewBox="0 0 24 24" fill="none" xmlns="http://www.w3.org/2000/svg">
<g clip-path="url(#clip0_272_36958)">
<path d="M12.6478 14.8301C11.5623 14.8301 10.6792 15.7132 10.6792 16.7986C10.6792 17.8841 11.5623 18.7673 12.6478 18.7673C13.7332 18.7673 14.6164 17.8841 14.6164 16.7986C14.6163 15.7132 13.7332 14.8301 12.6478 14.8301Z" fill="#23AFA4"/>
<path d="M21.5206 9.10097C21.205 8.79136 20.8693 8.51161 20.5174 8.26191C19.9072 9.30652 18.7747 10.0103 17.4802 10.0103C15.7343 10.0103 14.2822 8.73089 14.0107 7.06055C11.6772 7.65778 9.70669 9.28992 8.69592 11.5179C7.76194 11.04 6.7253 10.8205 5.65378 10.8796C4.11183 10.9643 2.67928 11.6508 1.61995 12.8125C0.575297 13.9583 0 15.4458 0 17.0012C0 20.5627 2.88905 23.4602 6.4402 23.4602H15.5567C20.2124 23.4602 24 19.6612 24 14.9916C24 12.7937 23.0963 10.6467 21.5206 9.10097ZM8.39564 19.45C8.30653 19.5563 8.20964 19.6562 8.10759 19.7471C7.58709 20.2107 6.91833 20.4556 6.17367 20.4556C4.31278 20.4556 2.79881 18.9417 2.79881 17.0808C2.79881 15.2199 4.31273 13.706 6.17367 13.706C6.84994 13.706 7.50258 13.9054 8.06109 14.2827C8.38289 14.5001 8.4675 14.9372 8.25009 15.259C8.03273 15.5808 7.59567 15.6654 7.27388 15.448C6.94875 15.2283 6.56831 15.1122 6.17367 15.1122C5.08819 15.1122 4.20506 15.9953 4.20506 17.0808C4.20506 18.1663 5.08814 19.0494 6.17367 19.0494C6.57375 19.0494 6.90975 18.9308 7.17234 18.6969C7.22363 18.6512 7.27261 18.6006 7.31803 18.5465C7.56759 18.249 8.01103 18.2099 8.30859 18.4595C8.6062 18.7089 8.64516 19.1525 8.39564 19.45ZM12.6478 20.1744C10.7869 20.1744 9.27295 18.6604 9.27295 16.7995C9.27295 14.9386 10.7869 13.4247 12.6478 13.4247C14.5087 13.4247 16.0226 14.9386 16.0226 16.7995C16.0226 18.6604 14.5087 20.1744 12.6478 20.1744ZM19.9711 16.1154C19.402 16.1226 18.987 16.1258 18.6818 16.1258C17.9015 16.1258 17.838 16.1047 17.744 16.0733C17.5202 15.9987 17.346 15.8215 17.2777 15.5993C17.1628 15.2257 17.3467 14.985 17.6011 14.6517C17.7989 14.3928 18.167 13.9108 18.7844 13.0287C18.9744 12.7572 19.0529 12.5684 19.0847 12.4515L19.0915 12.3982C19.0756 12.2481 18.9482 12.1307 18.794 12.1307C18.6512 12.1307 18.5278 12.2318 18.5004 12.3711C18.4255 12.7521 18.0558 13.0002 17.675 12.9255C17.2939 12.8507 17.0457 12.4812 17.1205 12.1001C17.2771 11.303 17.9809 10.7244 18.794 10.7244C19.7344 10.7244 20.4995 11.4895 20.4995 12.4299C20.4971 12.5212 20.479 12.6505 20.4619 12.7403C20.3817 13.0865 20.2098 13.4446 19.9366 13.835C19.6905 14.1867 19.4826 14.4767 19.3086 14.7157C19.521 14.7142 19.7412 14.712 19.9536 14.7093C19.9566 14.7092 19.9596 14.7092 19.9626 14.7092C20.3468 14.7092 20.6606 15.0182 20.6655 15.4035C20.6703 15.7918 20.3595 16.1105 19.9711 16.1154Z" fill="#23AFA4"/>
<path d="M12.324 5.04102C11.1609 5.04102 10.2146 4.09475 10.2146 2.93164C10.2146 1.76853 11.1609 0.822266 12.324 0.822266C13.4871 0.822266 14.4333 1.76848 14.4333 2.93164C14.4333 4.09475 13.4871 5.04102 12.324 5.04102Z" fill="#23AFA4"/>
<path d="M20.949 4.75977C19.7859 4.75977 18.8396 3.8135 18.8396 2.65039C18.8396 1.48728 19.7859 0.541016 20.949 0.541016C22.1121 0.541016 23.0583 1.48728 23.0583 2.65039C23.0583 3.8135 22.1121 4.75977 20.949 4.75977Z" fill="#23AFA4"/>
<path d="M16.7593 3.35406C16.4592 3.35406 16.1867 3.15574 16.0923 2.87158C15.9995 2.59244 16.096 2.27481 16.3291 2.09495C16.5421 1.93052 16.8348 1.90333 17.0754 2.02309C17.3459 2.15781 17.5022 2.4648 17.4534 2.76278C17.3985 3.09888 17.1005 3.35406 16.7593 3.35406Z" fill="#23AFA4"/>
<path d="M21.5842 6.90628C21.2911 6.90628 21.0209 6.71676 20.9226 6.44025C20.8244 6.16387 20.9107 5.84601 21.1384 5.65987C21.3663 5.47364 21.6928 5.44997 21.9455 5.60034C22.197 5.74997 22.3322 6.05358 22.2738 6.34054C22.2077 6.66539 21.9166 6.90628 21.5842 6.90628Z" fill="#23AFA4"/>
<path d="M17.4802 8.60352C16.3171 8.60352 15.3708 7.65725 15.3708 6.49414C15.3708 5.33103 16.3171 4.38477 17.4802 4.38477C18.6433 4.38477 19.5896 5.33103 19.5896 6.49414C19.5896 7.65725 18.6433 8.60352 17.4802 8.60352Z" fill="#23AFA4"/>
</g>
<defs>
<clipPath id="clip0_272_36958">
<rect width="24" height="24" fill="white"/>
</clipPath>
</defs>
</svg>
