<svg width="24" height="24" viewBox="0 0 24 24" fill="none" xmlns="http://www.w3.org/2000/svg">
<g clip-path="url(#clip0_272_36834)">
<path d="M19.5309 7.52269C19.5141 7.52269 19.4973 7.52278 19.4805 7.52297C19.5144 5.41598 17.7544 3.68732 15.6485 3.75848C15.0507 0.567994 10.8102 -0.354891 8.94902 2.33848C7.67097 2.0037 6.26376 2.6282 5.64611 3.77095C3.03511 3.96068 1.41038 6.95169 2.71155 9.25243C0.453181 11.2994 1.56509 15.1035 4.52689 15.6432C4.66036 17.3841 6.14515 18.7556 7.91901 18.7202C8.24975 22.7197 13.5804 23.8901 15.5605 20.4092C18.6385 22.2463 22.4695 19.428 21.6295 15.9378C25.6943 13.7491 24.1713 7.55649 19.5309 7.52269ZM16.5251 14.4482C16.3705 14.5189 16.2213 14.6061 16.0812 14.7073C15.7871 14.9201 15.3795 14.8738 15.1403 14.6009C14.5096 13.867 13.2691 14.2085 13.1005 15.16C13.0318 15.5264 12.6889 15.7755 12.3194 15.7279C11.804 15.6635 11.268 15.7552 10.8059 15.9879C10.2366 16.2555 9.78316 15.7719 9.78841 15.3645C9.78044 14.3806 9.03744 13.5615 8.06017 13.4593C7.63135 13.4144 7.34281 12.9967 7.45368 12.5793C7.55433 12.2006 7.66126 11.3066 6.98802 10.5074C6.70931 10.1766 6.79309 9.67487 7.16283 9.45205C7.68583 9.13682 8.06926 8.61819 8.21473 8.02909C8.28398 7.7487 8.51763 7.53914 8.80383 7.5007C9.09018 7.46245 9.37075 7.60281 9.51149 7.85502C10.0846 8.91053 11.6535 8.91025 12.2264 7.85502C12.3671 7.60281 12.648 7.46249 12.934 7.5007C13.2202 7.53914 13.4539 7.7487 13.5231 8.02909C13.7781 9.06139 14.6999 9.78232 15.7648 9.78232C15.9873 9.78232 16.3803 9.67618 16.6557 10.0539C16.8041 10.2574 16.8324 10.5249 16.7296 10.7549C16.2275 11.8792 16.5454 12.9223 16.8477 13.468C17.0461 13.8262 16.8974 14.2779 16.5251 14.4482Z" fill="#23AFA4"/>
<path d="M21.4138 5.1634C22.8399 5.1634 24.0001 4.00321 24.0001 2.57716C23.87 -0.849089 18.9571 -0.848199 18.8276 2.5772C18.8276 4.00321 19.9878 5.1634 21.4138 5.1634Z" fill="#23AFA4"/>
<path d="M4.36139 19.0323C4.1373 18.0498 3.25638 17.3145 2.20696 17.3145C0.171043 17.3128 -0.774532 19.8752 0.759204 21.1945C0.62958 22.6892 1.83558 24.0005 3.33678 23.9933C6.14186 23.9612 6.90507 20.159 4.36139 19.0323Z" fill="#23AFA4"/>
</g>
<defs>
<clipPath id="clip0_272_36834">
<rect width="24" height="24" fill="white"/>
</clipPath>
</defs>
</svg>
