<svg width="24" height="24" viewBox="0 0 24 24" fill="none" xmlns="http://www.w3.org/2000/svg">
<path d="M12 15.3429C12.9188 15.359 13.6634 14.296 13.113 13.4705C13.111 13.4673 13.1091 13.4641 13.1072 13.4609L11.997 11.5554L10.8668 13.4762C10.3594 14.304 11.0775 15.3606 12 15.3429Z" fill="#23AFA4"/>
<path d="M3.13901 3.48699H4.63574V6.46932H19.3642V3.48699H20.8609C21.8211 3.44874 21.8204 2.07757 20.8609 2.03969H10.8936V0.716446C10.8936 0.320767 10.5728 0 10.1772 0H6.36006C5.96439 0 5.64362 0.320767 5.64362 0.716446V2.03965H3.13901C2.17887 2.0779 2.17962 3.44907 3.13901 3.48699Z" fill="#23AFA4"/>
<path d="M19.3641 18.2172V7.91663H4.63574V18.2172H19.3641ZM9.61069 12.7571C9.61252 12.7538 9.61439 12.7506 9.61632 12.7473L11.3763 9.75623C11.5063 9.5352 11.7436 9.39955 12 9.39955H12.0015C12.2585 9.40012 12.4959 9.53684 12.6252 9.7589L14.355 12.7276C15.477 14.4382 14.0611 16.8239 12 16.7902C9.98552 16.8253 8.54465 14.5238 9.61069 12.7571Z" fill="#23AFA4"/>
<path d="M20.8609 22.5527H19.3642V19.6645H4.63576V22.5527H3.13903C2.17889 22.5909 2.17959 23.9621 3.13903 24H20.8609C21.8211 23.9618 21.8203 22.5906 20.8609 22.5527Z" fill="#23AFA4"/>
</svg>
