<svg width="24" height="24" viewBox="0 0 24 24" fill="none" xmlns="http://www.w3.org/2000/svg">
<path d="M22.9265 13.0238V7.80807C22.9265 7.65928 22.8721 7.47576 22.8174 7.37268L20.5864 3.199C20.3466 2.75008 19.7877 2.58061 19.337 2.82039C18.888 3.06108 18.7177 3.61997 18.9583 4.06979L20.5909 7.1241L19.5443 7.31228C19.2162 7.37178 18.9457 7.60254 18.8358 7.91715L18.2083 9.71553C17.9995 10.3151 18.4454 10.9424 19.08 10.9424C19.4614 10.9424 19.8192 10.7044 19.9517 10.3231L20.4016 9.03404L21.0803 8.912V13.0238C21.0803 14.3787 19.9779 15.4802 18.623 15.4802H17.0813V4.36592C17.0813 2.58438 15.632 1.13515 13.8505 1.13515H5.03512C3.25364 1.13515 1.80435 2.58438 1.80435 4.36592V21.0575C1.38991 21.1483 1.07373 21.4999 1.07373 21.9418C1.07373 22.452 1.48659 22.8649 1.99681 22.8649H16.8877C17.3979 22.8649 17.8108 22.452 17.8108 21.9418C17.8108 21.5002 17.4953 21.149 17.0813 21.0578V17.3264H18.623C20.9956 17.3264 22.9265 15.3964 22.9265 13.0238ZM9.43821 19.6336C8.09056 19.6336 6.99215 18.5444 6.99215 17.1874C6.99215 16.0705 8.39502 14.3628 8.82884 13.8644C9.13353 13.5043 9.75192 13.5043 10.0566 13.8644C10.4904 14.3628 11.8843 16.0705 11.8843 17.1874C11.8843 18.5444 10.7951 19.6336 9.43821 19.6336ZM14.2566 9.89514C14.2566 10.5136 13.7489 11.0213 13.1305 11.0213H5.75515C5.13653 11.0213 4.62902 10.5136 4.62902 9.89514V4.8736C4.62902 4.25515 5.13653 3.74741 5.75515 3.74741H13.1305C13.7489 3.74741 14.2566 4.25515 14.2566 4.8736V9.89514Z" fill="#23AFA4"/>
</svg>
