<svg width="24" height="24" viewBox="0 0 24 24" fill="none" xmlns="http://www.w3.org/2000/svg">
<g clip-path="url(#clip0_272_35536)">
<path fill-rule="evenodd" clip-rule="evenodd" d="M16.5726 20.2272H7.42731C4.69256 20.2272 2.30207 18.7264 1.03517 16.5054H22.9647C21.6978 18.7264 19.3072 20.2272 16.5726 20.2272ZM15.8928 14.9651C14.7429 14.9651 13.8073 14.0297 13.8073 12.8799C13.8073 11.3346 15.4331 10.3346 16.8072 11.0054C17.1381 11.1671 16.8921 11.6692 16.5618 11.5079C15.5584 11.0175 14.3666 11.7473 14.3666 12.8799C14.3666 14.723 17.0587 14.9633 17.3933 13.1594L16.2876 13.1592C15.9195 13.1592 15.9197 12.6002 16.2876 12.6002H17.6987C18.4397 12.6002 17.7526 14.9651 15.893 14.9651H15.8928ZM7.5211 14.8958H6.30132C6.14705 14.8958 6.02175 14.7704 6.02175 14.6162V11.1313C6.02175 10.7632 6.58088 10.7632 6.58088 11.1313V14.3365H7.5211C7.88912 14.3365 7.88898 14.8958 7.5211 14.8958ZM10.1169 14.849C9.96264 14.849 9.83735 14.7237 9.83735 14.5696C9.83735 14.075 9.80036 11.181 9.86294 11.0538C9.98739 10.8012 10.5129 10.8984 10.9109 10.8984C11.626 10.8984 12.2079 11.4802 12.2079 12.1952C12.2079 12.9105 11.626 13.4925 10.9109 13.4925C10.7369 13.4925 10.5575 13.5049 10.3963 13.5061V14.5697C10.3963 14.724 10.2713 14.8491 10.1169 14.8491V14.849ZM10.3963 11.4574V12.9331H10.9109C11.8822 12.9331 11.8822 11.4574 10.9109 11.4574H10.3963ZM0.747452 15.9463C-0.151145 14.0009 -0.151145 11.7465 0.747311 9.80094H23.2525C24.1509 11.7462 24.1509 14.0009 23.2523 15.9463H0.747452ZM1.03489 9.24196C2.3015 7.02092 4.69228 5.52002 7.42716 5.52002L16.5722 5.52016C19.3069 5.52016 21.6977 7.02092 22.9646 9.24196H1.03489Z" fill="#23AFA4"/>
<path fill-rule="evenodd" clip-rule="evenodd" d="M18.3311 23.7671H15.5174C15.3631 23.7671 15.2378 23.6416 15.2378 23.4875V19.9477C15.2378 19.351 16.375 19.9397 18.2614 19.4542C18.4377 19.4088 18.6107 19.5427 18.6107 19.7251V23.4876C18.6108 23.6416 18.4854 23.7671 18.331 23.7671H18.3311Z" fill="#23AFA4"/>
<path fill-rule="evenodd" clip-rule="evenodd" d="M8.4825 23.7671H5.66872C5.51446 23.7671 5.38916 23.6416 5.38916 23.4875V19.7249C5.38916 19.5426 5.56157 19.4091 5.73847 19.4541C7.63636 19.9383 8.76206 19.3526 8.76206 19.9476V23.4874C8.76192 23.6416 8.63691 23.7671 8.48236 23.7671H8.4825Z" fill="#23AFA4"/>
<path fill-rule="evenodd" clip-rule="evenodd" d="M20.9472 24.0001H3.05218C2.37746 24.0001 2.37746 22.9752 3.05218 22.9752H20.9472C21.6219 22.9752 21.6219 24.0001 20.9472 24.0001Z" fill="#23AFA4"/>
<path fill-rule="evenodd" clip-rule="evenodd" d="M14.853 6.07923H9.147C8.99273 6.07923 8.86743 5.95393 8.86743 5.79967V3.45473C8.86743 3.30047 8.99273 3.17517 9.147 3.17517H14.853C15.0073 3.17517 15.1326 3.30047 15.1326 3.45473V5.79967C15.1329 5.95407 15.0074 6.07923 14.853 6.07923Z" fill="#23AFA4"/>
<path fill-rule="evenodd" clip-rule="evenodd" d="M16.4935 3.73431H7.50623C7.35196 3.73431 7.22681 3.60901 7.22681 3.45489V0.279564C7.22681 0.125297 7.3521 0 7.50623 0H16.4935C16.6477 0 16.7729 0.125297 16.7729 0.279564V3.45489C16.7732 3.6093 16.6476 3.73431 16.4935 3.73431Z" fill="#23AFA4"/>
</g>
<defs>
<clipPath id="clip0_272_35536">
<rect width="24" height="24" fill="white"/>
</clipPath>
</defs>
</svg>
