<svg width="24" height="25" viewBox="0 0 24 25" fill="none" xmlns="http://www.w3.org/2000/svg">
<g clip-path="url(#clip0_272_37683)">
<path d="M21.5347 19.0438C21.4029 18.912 21.224 18.8379 21.0375 18.8379H20.2344V9.64487C22.3656 9.30657 24 7.45646 24 5.23159C23.7753 -0.688725 15.2863 -0.687037 15.0625 5.23164C15.0625 7.45646 16.6969 9.30657 18.8282 9.64482V18.8378H15.7863L17.2571 20.3087C17.6556 20.7071 17.875 21.2369 17.875 21.8003C17.875 22.3637 17.6556 22.8935 17.2571 23.2919L15.7863 24.7628H21.0375C21.224 24.7628 21.4029 24.6887 21.5347 24.5568L23.794 22.2975C23.9259 22.1656 24 21.9868 24 21.8003C24 21.6138 23.926 21.435 23.794 21.3032L21.5347 19.0438ZM19.1547 6.68785C18.9747 6.68785 18.7948 6.61923 18.6575 6.48188L17.9044 5.72879C17.27 5.04582 18.2158 4.09998 18.8988 4.73443L19.1547 4.99032L20.1638 3.98129C20.8466 3.34693 21.7926 4.29249 21.1582 4.97565L19.6519 6.48188C19.5146 6.61923 19.3346 6.68785 19.1547 6.68785Z" fill="#23AFA4"/>
<path d="M16.2628 21.3031L14.0035 19.0438C13.8717 18.9119 13.6928 18.8378 13.5064 18.8378H12.7032V17.1761C14.8343 16.8378 16.4688 14.9877 16.4688 12.7628C16.2441 6.84253 7.75503 6.84421 7.53125 12.7629C7.53125 14.9877 9.16569 16.8378 11.2969 17.1761V18.8378H8.255L9.72594 20.3087C10.5484 21.1312 10.5484 22.4694 9.72594 23.2919L8.255 24.7628H13.5063C13.6928 24.7628 13.8717 24.6887 14.0035 24.5568L16.2628 22.2974C16.5374 22.0229 16.5374 21.5777 16.2628 21.3031ZM11.6234 14.2191C11.4435 14.2191 11.2635 14.1505 11.1263 14.0131L10.3732 13.26C9.73878 12.5771 10.6846 11.6312 11.3675 12.2657L11.6235 12.5216L12.6326 11.5125C13.3154 10.8782 14.2614 11.8237 13.6269 12.5069L12.1207 14.0131C11.9833 14.1505 11.8034 14.2191 11.6234 14.2191Z" fill="#23AFA4"/>
<path d="M8.73155 21.3031L6.47217 19.0437C6.34031 18.9119 6.16148 18.8378 5.97502 18.8378H5.17191V9.64484C7.30308 9.30654 8.93752 7.45648 8.93752 5.23161C8.7128 -0.688754 0.223781 -0.687019 0 5.23165C0 7.45648 1.63444 9.30659 3.76566 9.64484V18.8378H0.703125C0.314812 18.8378 0 19.1526 0 19.541V24.0597C0 24.448 0.314812 24.7628 0.703125 24.7628H5.97502C6.16148 24.7628 6.34031 24.6887 6.47217 24.5569L8.73155 22.2975C9.00614 22.0229 9.00614 21.5777 8.73155 21.3031ZM4.09219 6.68782C3.91223 6.68782 3.73228 6.6192 3.59503 6.48186L2.84194 5.72876C2.20753 5.04579 3.15328 4.09995 3.83625 4.7344L4.09219 4.99029L5.10127 3.98126C5.78409 3.3469 6.73008 4.29246 6.09562 4.97562L4.58939 6.48186C4.45209 6.6192 4.27214 6.68782 4.09219 6.68782Z" fill="#23AFA4"/>
</g>
<defs>
<clipPath id="clip0_272_37683">
<rect width="24" height="24" fill="white" transform="translate(0 0.777344)"/>
</clipPath>
</defs>
</svg>
