<svg width="24" height="24" viewBox="0 0 24 24" fill="none" xmlns="http://www.w3.org/2000/svg">
<g clip-path="url(#clip0_272_35172)">
<path d="M0 7.44437H24V9.9533H0V7.44437Z" fill="#23AFA4"/>
<path d="M21.909 6.03811L20.6471 3.51431L17.1328 0H13.1793L11.8074 2.74383L10.6774 1.61386H6.86725L5.25344 3.22767H3.49628L2.09106 6.03811H21.909Z" fill="#23AFA4"/>
<path d="M2.24072 16.4176H21.7595L22.977 11.3596H1.02319L2.24072 16.4176Z" fill="#23AFA4"/>
<path d="M16.5033 20.5647C15.5562 20.5647 14.7856 21.3353 14.7856 22.2824C14.7856 23.2296 15.5562 24 16.5033 24C17.4504 24 18.2209 23.2295 18.2209 22.2824C18.2209 21.3353 17.4504 20.5647 16.5033 20.5647ZM17.2064 22.9855H15.8002V21.5792H17.2064V22.9855Z" fill="#23AFA4"/>
<path d="M22.5111 17.8239H1.48889V19.3641H0V20.7703H1.48889V22.3499H4.37452C4.37405 22.3274 4.37278 22.305 4.37278 22.2824C4.37278 20.5599 5.77416 19.1585 7.49667 19.1585C9.21919 19.1585 10.6206 20.5598 10.6206 22.2824C10.6206 22.305 10.6193 22.3274 10.6188 22.3499H13.3812C13.3807 22.3274 13.3795 22.305 13.3795 22.2824C13.3795 20.5599 14.7809 19.1585 16.5034 19.1585C18.2259 19.1585 19.6273 20.5598 19.6273 22.2824C19.6273 22.305 19.626 22.3274 19.6255 22.3499H22.5112V20.7703H24V19.3641H22.5111V17.8239Z" fill="#23AFA4"/>
<path d="M7.49669 20.5647C6.54958 20.5647 5.77905 21.3353 5.77905 22.2824C5.77905 23.2296 6.54958 24 7.49669 24C8.4438 24 9.21433 23.2295 9.21433 22.2824C9.21433 21.3353 8.4438 20.5647 7.49669 20.5647ZM8.19982 22.9855H6.79357V21.5792H8.19982V22.9855Z" fill="#23AFA4"/>
</g>
<defs>
<clipPath id="clip0_272_35172">
<rect width="24" height="24" fill="white"/>
</clipPath>
</defs>
</svg>
