<svg width="24" height="24" viewBox="0 0 24 24" fill="none" xmlns="http://www.w3.org/2000/svg">
<g clip-path="url(#clip0_272_36018)">
<path d="M12.7031 19.0765C13.8512 18.176 15.5156 16.5736 15.5156 14.8125C15.5156 12.8102 13.2415 10.8133 12.0042 9.97705C11.0449 10.6328 8.48438 12.6345 8.48438 14.8125C8.48438 16.4789 10.0551 18.0996 11.2969 19.0818V16.5099L9.39349 14.6065L10.3878 13.6122L11.2969 14.5214V11.9531H12.7031V14.5214L13.6122 13.6122L14.6065 14.6065L12.7031 16.5099V19.0765Z" fill="#23AFA4"/>
<path d="M13.8174 5.625H16.9218V4.21875H14.3797L13.8174 5.625Z" fill="#23AFA4"/>
<path d="M2.85938 21.1406V24H11.2969V20.8209C10.2371 20.114 7.07812 17.7609 7.07812 14.8125C7.07812 12.123 9.68903 9.71997 12 8.32141C14.3101 9.71942 16.9219 12.1225 16.9219 14.8125C16.9219 17.7609 13.7629 20.114 12.7031 20.8209V24H21.1406V21.1406H16.9219V19.7344H21.1406V9.84375H16.9219V8.4375H21.1406V0H11.5241L9.27411 5.625H2.85938V8.4375H7.07812V9.84375H2.85938V19.7344H7.07812V21.1406H2.85938ZM13.4282 2.8125H18.3281V7.03125H11.7411L13.4282 2.8125Z" fill="#23AFA4"/>
<path d="M4.26562 2.8125H8.48438V4.21875H4.26562V2.8125Z" fill="#23AFA4"/>
</g>
<defs>
<clipPath id="clip0_272_36018">
<rect width="24" height="24" fill="white"/>
</clipPath>
</defs>
</svg>
