<svg width="24" height="24" viewBox="0 0 24 24" fill="none" xmlns="http://www.w3.org/2000/svg">
<g clip-path="url(#clip0_272_36875)">
<path d="M1.182 9.18359L0 23.9584H6.93842L5.36245 9.18359H1.182Z" fill="#23AFA4"/>
<path d="M1.46368 5.66211L1.29468 7.77468H5.21222L4.98688 5.66211H1.46368Z" fill="#23AFA4"/>
<path d="M22.0718 9.88867L18.3003 14.4481V9.88867H16.3735L12.3979 14.6676V9.88867H10.469L7.26831 13.774L7.75523 18.3389H9.91611V19.7473H7.90546L8.35614 23.9725H23.9999V9.88867H22.0718ZM14.1412 19.7473H11.3245V18.3389H14.1412V19.7473ZM18.3664 19.7473H15.5496V18.3389H18.3664V19.7473ZM22.5915 19.7473H19.7748V18.3389H22.5915V19.7473Z" fill="#23AFA4"/>
<path d="M6.25309 4.25443L6.72719 8.69923C7.45758 8.63407 8.15341 8.35573 8.72611 7.90293C9.36908 8.27761 10.1065 8.47957 10.8552 8.47957C12.0203 8.47957 13.1235 7.99833 13.9151 7.16701C14.4214 7.41282 14.9764 7.54065 15.5498 7.54065C16.3751 7.54065 17.1762 7.26564 17.826 6.77121C18.3689 7.11908 19.0007 7.30592 19.6575 7.30592C21.5343 7.30592 23.0611 5.7791 23.0611 3.90234C23.0611 2.02558 21.5343 0.498757 19.6575 0.498757C19.0721 0.498757 18.4994 0.650345 17.9943 0.933382C17.3188 0.352989 16.4567 0.0292969 15.5498 0.0292969C14.7265 0.0292969 13.928 0.302522 13.2794 0.794094C12.5732 0.297358 11.7326 0.0292969 10.8552 0.0292969C9.64024 0.0292969 8.50105 0.547111 7.70503 1.43894C7.28763 1.28355 6.84362 1.20295 6.39529 1.20295C4.56514 1.20295 3.03743 2.51912 2.70679 4.25443H6.25309Z" fill="#23AFA4"/>
</g>
<defs>
<clipPath id="clip0_272_36875">
<rect width="24" height="24" fill="white"/>
</clipPath>
</defs>
</svg>
