<svg width="24" height="24" viewBox="0 0 24 24" fill="none" xmlns="http://www.w3.org/2000/svg">
<g clip-path="url(#clip0_272_36930)">
<path d="M11.4141 17.3092C11.37 16.9564 11.0699 16.6914 10.7141 16.6914H8.77759C9.11707 19.414 9.56275 22.9864 9.56275 22.9864C9.60376 23.3162 9.56568 23.647 9.45728 23.9538H11.4469C11.6492 23.9538 11.8419 23.8668 11.9757 23.715C12.1097 23.5634 12.172 23.3614 12.1467 23.1605C11.9025 21.2108 11.6582 19.2596 11.4141 17.3092Z" fill="#23AFA4"/>
<path d="M7.04066 14.1631C6.99672 13.8099 6.69661 13.5449 6.34065 13.5449H2.5304C2.17444 13.5449 1.87433 13.8101 1.83039 14.1633C1.6189 15.866 0.869996 21.8643 0.708497 23.1611C0.683595 23.362 0.746034 23.5637 0.879884 23.7153C1.01373 23.8668 1.20636 23.9538 1.40851 23.9538H7.46291C7.66524 23.9538 7.85768 23.8668 7.99171 23.7152C8.12557 23.5636 8.188 23.3618 8.16292 23.1611C8.16292 23.1611 7.24666 15.8163 7.04066 14.1631Z" fill="#23AFA4"/>
<path d="M5.16833 10.6427C5.91998 10.1023 6.7901 9.82893 7.76496 9.82893H20.0552C21.881 9.82692 23.3656 8.3412 23.3656 6.51509C23.3656 4.68787 21.8789 3.20124 20.0517 3.20124C19.96 3.20124 19.8688 3.20508 19.7783 3.21259C19.7166 3.22797 19.6544 3.23475 19.5929 3.23328C19.0749 3.30506 18.5823 3.49787 18.1485 3.80219C17.8297 4.02595 17.3896 3.94868 17.1658 3.62971C16.942 3.31092 17.0193 2.87092 17.3383 2.64716C17.7144 2.3833 18.1218 2.17878 18.5492 2.0354C17.6977 0.748353 16.2519 -0.046875 14.6684 -0.046875C12.1436 -0.046875 10.0997 1.92975 10.0153 4.45313C10.0025 4.83454 9.6894 5.13502 9.31074 5.13502C9.30268 5.13502 9.29481 5.13483 9.28675 5.13447C8.89729 5.12165 8.59223 4.79536 8.60523 4.40589C8.61695 4.05543 8.65852 3.70991 8.7281 3.37263C6.72968 3.58411 5.16724 5.28187 5.16724 7.33833C5.16724 8.03907 5.1676 8.88081 5.16797 9.72255C5.16815 10.0316 5.16815 10.3405 5.16833 10.6427Z" fill="#23AFA4"/>
<path d="M19.5593 12.0859H12.5163C11.2787 12.0859 10.1839 12.6823 9.51302 13.7225L9.41982 13.8668C9.2087 14.1942 9.30282 14.6307 9.63021 14.8419C9.7485 14.9182 9.88107 14.9547 10.012 14.9547C10.2436 14.9547 10.4705 14.8406 10.6054 14.6317L10.6984 14.4874C11.1106 13.8485 11.7563 13.4968 12.5163 13.4968H19.5593C19.949 13.4968 20.2646 13.1809 20.2646 12.7913C20.2646 12.4018 19.949 12.0859 19.5593 12.0859Z" fill="#23AFA4"/>
<path d="M22.5221 12.0391H22.0048C21.6152 12.0391 21.2993 12.3549 21.2993 12.7444C21.2993 13.134 21.6152 13.4499 22.0048 13.4499H22.5221C22.9117 13.4499 23.2274 13.134 23.2274 12.7444C23.2274 12.3549 22.9117 12.0391 22.5221 12.0391Z" fill="#23AFA4"/>
</g>
<defs>
<clipPath id="clip0_272_36930">
<rect width="24" height="24" fill="white"/>
</clipPath>
</defs>
</svg>
