<svg width="24" height="24" viewBox="0 0 24 24" fill="none" xmlns="http://www.w3.org/2000/svg">
<g clip-path="url(#clip0_272_37328)">
<path d="M18.75 2.25015C18.75 2.4564 18.5812 2.62515 18.375 2.62515H16.875V1.87515H18.375C18.5812 1.87515 18.75 2.0439 18.75 2.25015ZM18.375 4.87515H16.875V5.62515H18.375C18.5812 5.62515 18.75 5.4564 18.75 5.25015C18.75 5.0439 18.5812 4.87515 18.375 4.87515ZM15.75 0.375152H13.875C12.0139 0.375152 10.5 1.88903 10.5 3.75015C10.5 5.61128 12.0139 7.12515 13.875 7.12515H15.75C15.9574 7.12515 16.125 6.95753 16.125 6.75015V0.750152C16.125 0.542777 15.9574 0.375152 15.75 0.375152ZM22.0856 6.91778L23.5856 3.91778C23.6437 3.80153 23.6378 3.66353 23.5691 3.5529C23.5005 3.44228 23.3801 3.37515 23.25 3.37515H21.6068L22.8353 0.917777C22.9279 0.732527 22.8529 0.507152 22.6676 0.414527C22.4827 0.322277 22.2574 0.396902 22.1644 0.582152L20.6644 3.58215C20.6063 3.6984 20.6122 3.8364 20.6809 3.94703C20.7495 4.05765 20.8699 4.12515 21 4.12515H22.6432L21.4147 6.58253C21.3221 6.76778 21.3971 6.99315 21.5824 7.08578C21.636 7.1124 21.6934 7.12515 21.7496 7.12515C21.8873 7.12515 22.0196 7.0494 22.0856 6.91778ZM16.0538 14.9417C15.1958 14.2652 14.2076 13.7908 13.1171 13.5313C12.9158 13.4837 12.7912 13.2815 12.8392 13.0798C12.8876 12.8784 13.0901 12.755 13.2908 12.8019C14.4878 13.0865 15.5741 13.6082 16.5184 14.3533C16.596 14.4144 16.6706 14.4827 16.7441 14.5543C16.7925 14.3462 17.391 11.6027 15.4279 10.577C14.7176 10.2062 13.8536 10.0183 12.8595 10.0183C10.2184 10.0183 7.50975 11.3229 7.39612 11.3784C7.29487 11.4279 7.22137 11.5194 7.1955 11.6289C7.16962 11.738 7.19362 11.8532 7.26188 11.9424C7.37775 12.095 10.1314 15.6932 12.6326 16.6145C12.9206 16.7203 13.2169 16.7743 13.5142 16.7743C14.7844 16.7743 15.7939 15.8109 16.3125 15.1907C16.2262 15.0958 16.1393 15.0092 16.0538 14.9417ZM23.3827 11.6822C23.349 11.6694 22.5469 11.3705 21.5974 11.3705C20.5898 11.3705 19.7715 11.7133 19.2308 12.362C18.4429 13.3052 18.6 14.4294 18.7605 15.0107C19.2394 14.51 19.7314 14.0904 20.082 13.9149C20.2673 13.823 20.4923 13.8973 20.5853 14.0825C20.6779 14.2678 20.6029 14.4932 20.4176 14.5858C20.1199 14.7343 19.6541 15.1498 19.2056 15.6347C19.4126 15.7044 19.8941 15.8428 20.4499 15.8428C21.2359 15.8428 21.8843 15.563 22.326 15.0335C23.3869 13.7612 23.6126 12.1509 23.6216 12.0834C23.6449 11.9102 23.5455 11.7437 23.3827 11.6822ZM18.0112 17.2952C18.1946 16.8452 18.69 16.1927 19.2038 15.6339C19.1437 15.6148 19.1025 15.596 19.0988 15.596C19.005 15.5585 18.9341 15.4873 18.8925 15.401C18.885 15.3819 18.8216 15.236 18.7612 15.011C18.3971 15.3898 18.0413 15.8169 17.76 16.2257C17.5275 15.5657 17.1746 14.9732 16.7438 14.5532C16.7438 14.5573 16.7396 14.5644 16.7396 14.5682C16.7321 14.6094 16.7137 14.6469 16.6909 14.681C16.6759 14.7069 16.5413 14.9132 16.3121 15.1907C16.7659 15.6857 17.1971 16.5294 17.2909 17.5457C17.3617 18.3669 17.238 19.5932 16.2334 20.7369C14.6325 22.3539 13.2375 22.8752 10.5 22.8752C5.32875 22.8752 1.125 18.6714 1.125 13.5002C1.125 8.57265 4.93875 4.5264 9.7725 4.15515C9.7575 4.02015 9.75 3.88515 9.75 3.75015C9.75 3.6339 9.75375 3.5214 9.765 3.40515C4.5225 3.78015 0.375 8.1639 0.375 13.5002C0.375 19.0839 4.91625 23.6252 10.5 23.6252C13.44 23.6252 15.0188 23.0289 16.7812 21.2477C17.9775 19.8864 18.1237 18.4464 18.0375 17.4789C18.03 17.4152 18.0187 17.3552 18.0112 17.2952Z" fill="#23AFA4"/>
</g>
<defs>
<clipPath id="clip0_272_37328">
<rect width="24" height="24" fill="white"/>
</clipPath>
</defs>
</svg>
