<svg width="24" height="24" viewBox="0 0 24 24" fill="none" xmlns="http://www.w3.org/2000/svg">
<g clip-path="url(#clip0_272_37112)">
<path d="M0 10.3239L0.843185 11.4486L2.8125 9.97283V22.6347H12.7851C11.8695 21.7404 11.2969 20.4969 11.2969 19.1191V15.5324C9.69417 15.2057 8.48436 13.7855 8.48436 12.0879V9.97852H9.89064V8.57225H11.2969V9.97852H12.7032V8.57225H14.1095V9.97852H15.5156V12.0879C15.5156 13.7855 14.3058 15.2057 12.7031 15.5324V19.1191C12.7031 21.0576 14.2804 22.6347 16.2188 22.6347H21.1875V9.97397L23.1568 11.45L24 10.3253L12 1.36523L0 10.3239Z" fill="#23AFA4"/>
<path d="M16.9219 3.29754L19.7812 5.40569V1.54102H16.9219V3.29754Z" fill="#23AFA4"/>
<path d="M14.1094 12.0879V11.3848H9.89062V12.0879C9.89062 13.2511 10.8368 14.1973 12 14.1973C13.1632 14.1973 14.1094 13.251 14.1094 12.0879Z" fill="#23AFA4"/>
</g>
<defs>
<clipPath id="clip0_272_37112">
<rect width="24" height="24" fill="white"/>
</clipPath>
</defs>
</svg>
