<svg width="24" height="24" viewBox="0 0 24 24" fill="none" xmlns="http://www.w3.org/2000/svg">
<g clip-path="url(#clip0_272_36778)">
<path d="M15.7495 3.65625C15.7495 2.49314 14.8032 1.54688 13.6401 1.54688H9.37451V0.703125C9.37451 0.314812 9.0597 0 8.67139 0C8.28307 0 7.96826 0.314812 7.96826 0.703125V1.54688H3.70264C2.53953 1.54688 1.59326 2.49314 1.59326 3.65625V4.54688H15.7495V3.65625Z" fill="#23AFA4"/>
<path d="M14.6147 10.8667C13.8742 11.4647 13.8794 12.5939 14.6246 13.1847C15.2657 13.693 14.9381 13.4332 16.028 14.2975H20.065L21.4682 13.1848C22.2158 12.5921 22.2162 11.4625 21.4783 10.867C19.4431 9.22427 16.5786 9.28141 14.6147 10.8667Z" fill="#23AFA4"/>
<path d="M11.7665 17.7206C12.1214 16.3837 12.8798 15.2367 13.89 14.3967L13.7508 14.2861C12.2977 13.1343 12.2913 10.9342 13.7315 9.77203C14.7407 8.95762 15.9668 8.44645 17.2472 8.29542C17.2467 8.30011 17.2495 8.39372 17.2495 6.75C17.2495 6.27534 16.7788 5.95312 16.32 5.95312H1.02275C0.565621 5.95312 0.0932617 6.27412 0.0932617 6.75V8.25C0.0932617 8.63831 0.408074 8.95312 0.796387 8.95312H1.64389L2.34331 18.3068C4.64478 17.5824 6.97315 19.2974 7.02968 21.6612C7.05007 22.514 6.77637 23.3332 6.25789 24H11.4844C10.834 23.1334 10.6198 22.0383 10.8988 20.9883L11.7665 17.7206ZM8.73162 17.9589C8.63623 18.3345 8.25429 18.5631 7.87704 18.4673C6.33818 18.0765 5.22659 16.8531 4.90076 15.4005C4.78062 15.4843 4.64018 15.5267 4.49946 15.5267C3.88104 15.5267 3.56286 14.7774 3.99584 14.3329C5.15895 13.139 5.14329 13.1314 5.29611 13.0552C5.51037 12.9482 5.77165 12.9556 5.98362 13.0886C6.07353 13.1452 6.0275 13.1093 7.23996 14.2904C7.51812 14.5614 7.52398 15.0065 7.253 15.2847C7.0107 15.5334 6.62937 15.5637 6.35239 15.3736C6.63471 16.2003 7.31515 16.8736 8.22322 17.1043C8.59957 17.1999 8.8272 17.5825 8.73162 17.9589ZM10.5252 15.6838C10.23 15.987 9.74061 15.9581 9.47407 15.6414L8.39131 14.5867C8.11315 14.3157 8.10729 13.8705 8.37828 13.5924C8.6172 13.3472 8.99131 13.3139 9.26721 13.4951C8.98409 12.6701 8.30431 11.9985 7.39765 11.7682C7.02129 11.6726 6.79367 11.29 6.88925 10.9136C6.98482 10.5372 7.36728 10.3096 7.74382 10.4052C9.28643 10.797 10.3996 12.0254 10.7224 13.4826C10.9941 13.2874 11.3744 13.3083 11.6224 13.5499C11.9005 13.8209 11.9064 14.266 11.6354 14.5441L10.5252 15.6838Z" fill="#23AFA4"/>
<path d="M23.8349 21.3492L22.9673 18.0816C22.7788 17.3717 22.445 16.7303 22.003 16.1854C21.7543 15.8788 21.3785 15.7031 20.9836 15.7031H19.8308C20.0734 16.1693 20.2455 16.7853 20.2495 17.5959C20.2514 17.9805 19.9581 18.313 19.5738 18.3276C19.173 18.3428 18.8433 18.0224 18.8433 17.625C18.8433 16.4055 18.3351 15.9331 18.0464 15.7631C17.7593 15.9322 17.2549 16.4005 17.2496 17.606C17.2481 17.9638 16.9916 18.2784 16.6365 18.3225C16.208 18.3758 15.8433 18.0429 15.8433 17.625C15.8433 16.8 16.0167 16.1749 16.2621 15.7031H15.1091C14.7141 15.7031 14.3383 15.8789 14.0895 16.1857C13.6477 16.7305 13.3139 17.372 13.1255 18.0816L12.2579 21.3492C11.9018 22.6915 12.9141 23.9999 14.2969 24H21.7594C23.2043 24 24.187 22.6765 23.8349 21.3492Z" fill="#23AFA4"/>
<path d="M2.14845 19.9544C1.58445 20.3554 1.21826 21.0119 1.21826 21.7509C1.21826 22.8923 2.09037 23.8898 3.22897 23.9918C4.5379 24.1091 5.62451 23.0285 5.62451 21.7509C5.62451 19.9617 3.59675 18.9258 2.14845 19.9544ZM3.42139 22.4768C3.03307 22.4768 2.71826 22.162 2.71826 21.7737C2.71826 21.3854 3.03307 21.0706 3.42139 21.0706C3.8097 21.0706 4.12451 21.3854 4.12451 21.7737C4.12451 22.162 3.80975 22.4768 3.42139 22.4768Z" fill="#23AFA4"/>
</g>
<defs>
<clipPath id="clip0_272_36778">
<rect width="24" height="24" fill="white"/>
</clipPath>
</defs>
</svg>
