<svg width="24" height="24" viewBox="0 0 24 24" fill="none" xmlns="http://www.w3.org/2000/svg">
<g clip-path="url(#clip0_272_36538)">
<path fill-rule="evenodd" clip-rule="evenodd" d="M14.3148 7.55078C13.571 10.2573 10.6014 15.1844 7.52214 15.1844C4.3828 15.1844 1.43683 10.1241 0.729674 7.55078C0.304687 7.55078 0 7.8128 0 8.25372V21.1507C0 21.5389 0.289489 21.8537 0.646544 21.8537H2.30529C2.56091 23.09 3.65514 24.0002 4.9442 24.0002C6.23326 24.0002 7.32768 23.09 7.58311 21.8537H14.3977C14.755 21.8537 15.0445 21.5389 15.0445 21.1507V8.25372C15.0445 7.8128 14.7398 7.55078 14.3148 7.55078ZM5.85552 22.217C5.04601 23.0265 3.65533 22.4506 3.65533 21.3055C3.65533 20.1605 5.04601 19.5846 5.85552 20.3941C6.35887 20.8973 6.35887 21.7136 5.85552 22.217Z" fill="#23AFA4"/>
<path fill-rule="evenodd" clip-rule="evenodd" d="M21.8174 14.7209H18.5576C18.1694 14.7209 17.8547 14.4063 17.8547 14.0179C17.8547 13.6297 18.1694 13.315 18.5576 13.315H20.9795L20.439 12.4081C19.7018 11.1708 18.5741 10.3192 17.2356 9.97313C17.0179 9.91692 16.8069 9.96031 16.6291 10.098C16.4515 10.2357 16.3567 10.4291 16.3567 10.6537V21.1414C16.3567 21.5285 16.6724 21.8444 17.0596 21.8444H17.535C17.7869 23.0851 18.8832 24.0001 20.1757 24.0001C21.4683 24.0001 22.5645 23.0851 22.8165 21.8444H23.2918C23.68 21.8444 23.9947 21.5296 23.9947 21.1414V16.9236C23.9947 15.6948 23.0395 14.748 21.8174 14.7209ZM21.087 22.2168C20.2775 23.0263 18.8868 22.4505 18.8868 21.3053C18.8868 20.1604 20.2775 19.5845 21.087 20.394C21.5904 20.8972 21.5904 21.7135 21.087 22.2168Z" fill="#23AFA4"/>
<path fill-rule="evenodd" clip-rule="evenodd" d="M8.12323 6.26814C8.4552 5.93617 8.4552 5.39784 8.12323 5.06587C7.58948 4.53212 6.67212 4.91169 6.67212 5.667C6.67212 6.42231 7.58948 6.80189 8.12323 6.26814Z" fill="#23AFA4"/>
<path fill-rule="evenodd" clip-rule="evenodd" d="M7.52214 13.7781C8.63524 13.7781 10.1272 12.4316 11.2835 10.7065C12.3523 9.11204 13.19 7.15593 13.19 5.66784C13.19 2.53765 10.6523 0 7.52214 0C4.39215 0 1.85449 2.53765 1.85449 5.66784C1.85449 7.15593 2.6922 9.11204 3.76098 10.7065C4.91711 12.4316 6.40923 13.7781 7.52214 13.7781ZM7.52214 3.4118C8.76799 3.4118 9.77818 4.42199 9.77818 5.66784C9.77818 6.9135 8.76799 7.92369 7.52214 7.92369C6.27648 7.92369 5.26629 6.9135 5.26629 5.66784C5.26629 4.42199 6.27648 3.4118 7.52214 3.4118Z" fill="#23AFA4"/>
</g>
<defs>
<clipPath id="clip0_272_36538">
<rect width="24" height="24" fill="white"/>
</clipPath>
</defs>
</svg>
