<svg width="24" height="24" viewBox="0 0 24 24" fill="none" xmlns="http://www.w3.org/2000/svg">
<g clip-path="url(#clip0_272_36740)">
<path d="M23.3237 10.9277H18.5288L16.386 13.0706H20.1428C20.3418 13.0719 20.5376 13.1199 20.7146 13.2107L23.3237 10.9277Z" fill="#23AFA4"/>
<path d="M12.4285 20.7852H14.1432V21.6423H12.4285V20.7852Z" fill="#23AFA4"/>
<path d="M21.4285 14.3559V22.2442L23.8714 19.8013C23.9536 19.7222 24 19.6129 23.9999 19.4988V11.4746L21.3115 13.827C21.3881 13.9929 21.428 14.1733 21.4285 14.3559Z" fill="#23AFA4"/>
<path d="M9.72858 23.2337L9.73631 23.2265C9.81394 23.1464 9.8573 23.0392 9.85716 22.9277V14.3563C9.85716 14.1196 9.6653 13.9277 9.42858 13.9277H0.428578C0.191906 13.9277 0 14.1196 0 14.3563V22.9277C0 23.1644 0.191859 23.3563 0.428578 23.3563H9.42858C9.54084 23.3566 9.64866 23.3125 9.72858 23.2337ZM4.28573 21.642C4.28573 22.1154 3.90197 22.4992 3.42858 22.4992H1.71427C1.24088 22.4992 0.857109 22.1154 0.857109 21.642V20.7848C0.857109 20.3115 1.24088 19.9277 1.71427 19.9277H3.42853C3.90192 19.9277 4.28569 20.3115 4.28569 20.7848V21.642H4.28573ZM8.57142 22.4992H7.28569C7.04902 22.4992 6.85711 22.3073 6.85711 22.0706C6.85711 21.8339 7.04897 21.642 7.28569 21.642H8.57142C8.80809 21.642 9 21.8339 9 22.0706C9 22.3073 8.80814 22.4992 8.57142 22.4992ZM8.57142 20.7849H7.28569C7.04902 20.7849 6.85711 20.593 6.85711 20.3563C6.85711 20.1196 7.04897 19.9277 7.28569 19.9277H8.57142C8.80809 19.9277 9 20.1196 9 20.3563C9 20.593 8.80814 20.7849 8.57142 20.7849Z" fill="#23AFA4"/>
<path d="M1.71436 20.7852H3.42909V21.6423H1.71436V20.7852Z" fill="#23AFA4"/>
<path d="M20.4382 23.2359L20.4429 23.2277L20.4511 23.22C20.527 23.1415 20.5701 23.0369 20.5715 22.9277V14.3563C20.5715 14.1196 20.3797 13.9277 20.1429 13.9277H11.1429C10.9063 13.9277 10.7144 14.1196 10.7144 14.3563V22.9277C10.7144 23.1644 10.9062 23.3563 11.1429 23.3563H20.1429C20.2531 23.3557 20.3589 23.3125 20.4382 23.2359ZM15 21.642C15 22.1154 14.6163 22.4992 14.1429 22.4992H12.4286C11.9552 22.4992 11.5715 22.1154 11.5715 21.642V20.7848C11.5715 20.3115 11.9552 19.9277 12.4286 19.9277H14.1429C14.6163 19.9277 15 20.3115 15 20.7848V21.642ZM19.2858 22.4992H18C17.7634 22.4992 17.5715 22.3073 17.5715 22.0706C17.5715 21.8339 17.7633 21.642 18 21.642H19.2858C19.5224 21.642 19.7144 21.8339 19.7144 22.0706C19.7143 22.3073 19.5224 22.4992 19.2858 22.4992ZM19.2858 20.7849H18C17.7634 20.7849 17.5715 20.593 17.5715 20.3563C17.5715 20.1196 17.7633 19.9277 18 19.9277H19.2858C19.5224 19.9277 19.7144 20.1196 19.7144 20.3563C19.7143 20.593 19.5224 20.7849 19.2858 20.7849Z" fill="#23AFA4"/>
<path d="M15.5717 2.92558L18.1809 0.642578H14.7185L11.9636 2.78542H15C15.1989 2.78673 15.3947 2.83478 15.5717 2.92558Z" fill="#23AFA4"/>
<path d="M9.98815 0.766003C9.96964 0.784987 9.94944 0.80219 9.92773 0.817425L7.12573 2.78542H10.5672L13.322 0.642581H10.2856C10.1739 0.642159 10.0667 0.686644 9.98815 0.766003Z" fill="#23AFA4"/>
<path d="M18.7285 9.51356C18.8102 9.435 18.8565 9.32681 18.8571 9.21356V1.18945L16.1687 3.54187C16.2453 3.70767 16.2852 3.88809 16.2857 4.07072V11.9603L18.7285 9.51356Z" fill="#23AFA4"/>
<path d="M4.41687 11.0512C4.39835 11.0701 4.37815 11.0873 4.35644 11.1026L1.55444 13.0706H4.79318C4.74241 12.9333 4.71574 12.7883 4.71433 12.642V10.9277C4.60263 10.9273 4.49543 10.9718 4.41687 11.0512Z" fill="#23AFA4"/>
<path d="M7.28564 10.5H9.00038V11.3572H7.28564V10.5Z" fill="#23AFA4"/>
<path d="M6.00011 13.0712H15.0001C15.1123 13.0715 15.2201 13.0277 15.3001 12.949L15.3087 12.9404C15.386 12.8606 15.4291 12.7537 15.4287 12.6426V4.07116C15.4287 3.83448 15.2368 3.64258 15.0001 3.64258H6.00011C5.76344 3.64258 5.57153 3.83444 5.57153 4.07116V12.6426C5.57153 12.8793 5.76344 13.0712 6.00011 13.0712ZM12.8573 9.64258H14.143C14.3797 9.64258 14.5716 9.83444 14.5716 10.0712C14.5716 10.3078 14.3797 10.4997 14.143 10.4997H12.8573C12.6206 10.4997 12.4287 10.3079 12.4287 10.0712C12.4287 9.83448 12.6205 9.64258 12.8573 9.64258ZM12.8573 11.3569H14.143C14.3797 11.3569 14.5716 11.5487 14.5716 11.7855C14.5716 12.0222 14.3797 12.214 14.143 12.214H12.8573C12.6206 12.214 12.4287 12.0222 12.4287 11.7855C12.4287 11.5487 12.6205 11.3569 12.8573 11.3569ZM6.42869 10.4997C6.42869 10.0263 6.81246 9.64258 7.28585 9.64258H9.00011C9.4735 9.64258 9.85727 10.0263 9.85727 10.4997V11.3569C9.85727 11.8303 9.4735 12.214 9.00011 12.214H7.28585C6.81246 12.214 6.42869 11.8303 6.42869 11.3569V10.4997Z" fill="#23AFA4"/>
</g>
<defs>
<clipPath id="clip0_272_36740">
<rect width="24" height="24" fill="white"/>
</clipPath>
</defs>
</svg>
