<svg width="24" height="24" viewBox="0 0 24 24" fill="none" xmlns="http://www.w3.org/2000/svg">
<g clip-path="url(#clip0_272_36808)">
<path d="M9.89062 2.85938C9.89062 1.69629 8.94434 0.75 7.78125 0.75C6.61816 0.75 5.67188 1.69629 5.67188 2.85938C5.67188 4.02246 6.61816 4.96875 7.78125 4.96875C8.94434 4.96875 9.89062 4.02246 9.89062 2.85938Z" fill="#23AFA4"/>
<path d="M2.85938 17.625H0V21.8438H2.85938V23.25H5.67188V16.2188H2.85938V17.625Z" fill="#23AFA4"/>
<path d="M18.375 4.96875C17.2976 4.96875 16.2167 5.27985 15.3041 5.87439C14.5638 5.28662 13.6597 4.96875 12.7031 4.96875C10.3768 4.96875 8.48438 6.86115 8.48438 9.1875C8.48438 11.0674 9.69635 12.6544 11.4232 13.1935C11.3394 13.4929 11.2969 13.801 11.2969 14.1094C11.2969 14.3635 11.3256 14.6175 11.3828 14.8667C9.9668 15.1187 8.84143 16.2208 8.55505 17.625H7.07812V21.8438H19.7812C22.1076 21.8438 24 19.9514 24 17.625C24 16.3616 23.439 15.195 22.4901 14.4053C23.4589 13.3713 24 12.0255 24 10.5938C24 7.49213 21.4766 4.96875 18.375 4.96875Z" fill="#23AFA4"/>
</g>
<defs>
<clipPath id="clip0_272_36808">
<rect width="24" height="24" fill="white"/>
</clipPath>
</defs>
</svg>
