<svg width="24" height="24" viewBox="0 0 24 24" fill="none" xmlns="http://www.w3.org/2000/svg">
<g clip-path="url(#clip0_272_36606)">
<path d="M14.3438 8.4375C16.2854 8.4375 17.8594 6.8635 17.8594 4.92188C17.8594 2.98025 16.2854 1.40625 14.3438 1.40625C12.4021 1.40625 10.8281 2.98025 10.8281 4.92188C10.8281 6.8635 12.4021 8.4375 14.3438 8.4375Z" fill="#23AFA4"/>
<path d="M8.76014 8.35634C7.87748 8.19327 7.07662 7.79394 6.42581 7.22656C3.50423 8.48314 1.45312 11.3895 1.45312 14.7663C1.45312 15.1546 1.76794 15.4694 2.15625 15.4694H4.7602C4.97302 12.5413 6.50353 9.97302 8.76014 8.35634Z" fill="#23AFA4"/>
<path d="M9.65625 7.03125C9.73598 7.03125 9.81483 7.02759 9.89325 7.02239C9.59119 6.38494 9.42188 5.67286 9.42188 4.92188C9.42188 3.14484 10.3686 1.58489 11.784 0.719484C11.1929 0.268547 10.4555 0 9.65625 0C7.71773 0 6.14062 1.57711 6.14062 3.51562C6.14062 5.45414 7.71773 7.03125 9.65625 7.03125Z" fill="#23AFA4"/>
<path d="M14.3438 9.84444C13.1086 9.84444 11.9784 9.38703 11.1133 8.63281C8.19173 9.88939 6.14062 12.7958 6.14062 16.1726C6.14062 16.5609 6.45544 16.8757 6.84375 16.8757H21.8438C22.2321 16.8757 22.5469 16.5609 22.5469 16.1726C22.5469 12.7958 20.4958 9.88939 17.5742 8.63281C16.7091 9.38703 15.5789 9.84444 14.3438 9.84444Z" fill="#23AFA4"/>
<path d="M23.4141 18.6094H21.0842C20.7607 18.6094 20.4983 18.8717 20.4983 19.1953C20.4983 19.5189 20.7607 19.7812 21.0842 19.7812H21.6585V23.4141C21.6585 23.7376 21.9209 24 22.2444 24C22.568 24 22.8304 23.7376 22.8304 23.4141V19.7812H23.4141C23.7376 19.7812 24 19.5189 24 19.1953C24 18.8717 23.7376 18.6094 23.4141 18.6094Z" fill="#23AFA4"/>
<path d="M7.61794 22.8246C7.61686 22.8246 7.61569 22.8246 7.61461 22.8246C7.34414 22.8261 7.00716 22.8275 6.72656 22.8279V19.1953C6.72656 18.8717 6.4642 18.6094 6.14063 18.6094C5.81705 18.6094 5.55469 18.8717 5.55469 19.1953V23.4105C5.55469 23.6958 5.76019 23.9397 6.04139 23.988C6.08372 23.9952 7.13752 23.9991 7.62117 23.9964C7.9448 23.9946 8.20566 23.7308 8.20383 23.4072C8.202 23.0847 7.94002 22.8246 7.61794 22.8246Z" fill="#23AFA4"/>
<path d="M9.84375 18.6094C9.52017 18.6094 9.25781 18.8717 9.25781 19.1953V23.4141C9.25781 23.7376 9.52017 24 9.84375 24C10.1673 24 10.4297 23.7376 10.4297 23.4141V19.1953C10.4297 18.8717 10.1673 18.6094 9.84375 18.6094Z" fill="#23AFA4"/>
<path d="M13.7578 19.7812C14.0814 19.7812 14.3438 19.5189 14.3438 19.1953C14.3438 18.8717 14.0814 18.6094 13.7578 18.6094H11.9802C11.6566 18.6094 11.3943 18.8717 11.3943 19.1953V23.4141C11.3943 23.7376 11.6566 24 11.9802 24H13.7578C14.0814 24 14.3438 23.7376 14.3438 23.4141C14.3438 23.0905 14.0814 22.8281 13.7578 22.8281H12.5662V21.8906H13.6268C13.9503 21.8906 14.2127 21.6283 14.2127 21.3047C14.2127 20.9811 13.9503 20.7188 13.6268 20.7188H12.5662V19.7812H13.7578Z" fill="#23AFA4"/>
<path d="M4.40077 22.3697C4.1528 22.1617 3.78323 22.1941 3.5753 22.4421C3.54038 22.4837 3.50273 22.5226 3.46331 22.5577C3.2618 22.7371 3.00342 22.8281 2.69531 22.8281C1.85531 22.8281 1.17188 22.1447 1.17188 21.3047C1.17188 20.4646 1.85531 19.7812 2.69531 19.7812C3.0007 19.7812 3.29508 19.8711 3.54666 20.0411C3.81478 20.2222 4.17905 20.1517 4.36017 19.8836C4.5413 19.6155 4.47084 19.2513 4.20272 19.0701C3.75666 18.7687 3.23541 18.6094 2.69531 18.6094C1.20909 18.6094 0 19.8185 0 21.3047C0 22.7909 1.20909 24 2.69531 24C3.291 24 3.82608 23.8038 4.2427 23.4328C4.32436 23.36 4.40189 23.2801 4.47314 23.1952C4.68108 22.9472 4.64869 22.5776 4.40077 22.3697Z" fill="#23AFA4"/>
<path d="M18.8695 18.6094C18.5458 18.6125 18.2861 18.8774 18.2892 19.201L18.3122 21.5807L16.4404 18.8702C16.1138 18.3972 15.3723 18.6284 15.3723 19.2032V23.4141C15.3723 23.7377 15.6346 24 15.9583 24C16.2819 24 16.5442 23.7377 16.5442 23.4141V21.0829L18.3235 23.6594C18.4934 23.9047 18.7778 24.0087 19.0476 23.9244C19.3227 23.8384 19.5004 23.5823 19.5004 23.2719L19.461 19.1897C19.4579 18.8661 19.193 18.6063 18.8695 18.6094Z" fill="#23AFA4"/>
</g>
<defs>
<clipPath id="clip0_272_36606">
<rect width="24" height="24" fill="white"/>
</clipPath>
</defs>
</svg>
