<svg width="24" height="24" viewBox="0 0 24 24" fill="none" xmlns="http://www.w3.org/2000/svg">
<g clip-path="url(#clip0_272_37403)">
<path d="M10.0059 18.1557L10.6499 12.9997H8.74995C8.14695 12.9997 7.78995 12.3187 8.13295 11.8227L12.6329 5.32266C13.0829 4.67366 14.1089 5.07666 13.9909 5.86066L13.3709 9.99966H15.2499C15.8329 9.99966 16.1919 10.6377 15.8929 11.1357L11.3929 18.6357C10.9769 19.3277 9.90495 18.9607 10.0059 18.1557Z" fill="#23AFA4"/>
<path d="M1.5 12.0003C1.5 6.21128 6.21 1.50028 12 1.50028C14.079 1.50028 16.055 2.10728 17.732 3.20728L16.22 4.72028C15.748 5.19028 16.081 6.00028 16.75 6.00028H21.25C21.664 6.00028 22 5.66428 22 5.25028V0.750282C22 0.0852822 21.194 -0.253718 20.72 0.220282L18.806 2.13428C16.835 0.765282 14.484 0.000282245 12 0.000282245C5.383 0.000282245 0 5.38328 0 12.0003C0 13.1733 0.173 14.3393 0.513 15.4663C0.632 15.8613 1.047 16.0873 1.448 15.9683C1.844 15.8483 2.069 15.4303 1.949 15.0333C1.651 14.0463 1.5 13.0263 1.5 12.0003Z" fill="#23AFA4"/>
<path d="M23.487 8.53367C23.367 8.13667 22.952 7.91067 22.552 8.03167C22.156 8.15167 21.931 8.56967 22.051 8.96667C22.349 9.95367 22.5 10.9737 22.5 11.9997C22.5 17.7887 17.79 22.4997 12 22.4997C9.92504 22.4997 7.95204 21.8957 6.27804 20.7997L7.78304 19.2777C8.25104 18.8037 7.91504 17.9997 7.25004 17.9997H2.75004C2.55004 17.9997 2.35704 18.0797 2.21704 18.2227C2.07704 18.3657 1.99804 18.5577 2.00004 18.7577L2.05004 23.2577C2.05604 23.9237 2.86904 24.2477 3.33304 23.7767L5.21104 21.8777C7.17804 23.2397 9.52304 23.9997 12 23.9997C18.617 23.9997 24 18.6167 24 11.9997C24 10.8267 23.827 9.66067 23.487 8.53367Z" fill="#23AFA4"/>
</g>
<defs>
<clipPath id="clip0_272_37403">
<rect width="24" height="24" fill="white"/>
</clipPath>
</defs>
</svg>
