<svg width="24" height="24" viewBox="0 0 24 24" fill="none" xmlns="http://www.w3.org/2000/svg">
<path d="M10.0627 13.8518C10.0628 14.2883 10.4179 14.6433 10.8544 14.6433C11.2909 14.6433 11.646 14.2882 11.646 13.8517C11.6434 13.636 11.3049 13.0592 10.8544 12.4652C10.4038 13.0591 10.0654 13.636 10.0627 13.8518Z" fill="#23AFA4"/>
<path d="M2.6582 0H7.51694V1.7512H2.6582V0Z" fill="#23AFA4"/>
<path d="M16.5652 16.6489H13.2445L19.5669 9.78469V8.78784H2.6582V18.4052H16.5652V16.6489ZM10.8543 16.0493C9.64258 16.0493 8.6567 15.0635 8.6567 13.8517C8.6567 13.533 8.74787 12.9825 9.53622 11.8858C9.92753 11.3415 10.8543 10.3068 10.8543 10.3068C10.8543 10.3068 11.7812 11.3415 12.1725 11.8858C12.9608 12.9825 13.052 13.533 13.052 13.8517C13.052 15.0634 12.0661 16.0493 10.8543 16.0493Z" fill="#23AFA4"/>
<path d="M21.0471 7.38852V7.38186V6.03027V5.9825H19.5669V4.568H21.0471V3.16199H1.17798V4.568H2.6582V5.9825H1.17798V6.03027V7.38186V7.38852H21.0471Z" fill="#23AFA4"/>
<path d="M21.3016 15.2429H22.8218L19.6364 11.7845L16.4509 15.2429H17.9711V24H21.3016V15.2429Z" fill="#23AFA4"/>
<path d="M1.17798 19.8112V21.2077H2.6582V22.6804H1.17798V24H16.5652V19.8112H1.17798Z" fill="#23AFA4"/>
</svg>
