<svg width="24" height="24" viewBox="0 0 24 24" fill="none" xmlns="http://www.w3.org/2000/svg">
<g clip-path="url(#clip0_272_36307)">
<path d="M21.1537 5.46766C21.4429 5.11051 21.5889 4.65851 21.5633 4.19963C21.5377 3.74076 21.3422 3.30785 21.0149 2.98516L19.9537 1.92391C19.8828 1.85531 19.788 1.81696 19.6893 1.81696C19.5906 1.81696 19.4958 1.85531 19.4249 1.92391L19.1587 2.19016L18.0974 1.12891L17.5687 1.65766L18.6299 2.71891L18.0974 3.25141L17.0399 2.19016L16.5074 2.71891L17.5687 3.78016L17.3024 4.04641C17.2676 4.08059 17.24 4.12145 17.2213 4.16656C17.2026 4.21167 17.1932 4.26008 17.1937 4.30891C17.1932 4.35829 17.2025 4.40727 17.2212 4.45299C17.2399 4.49871 17.2675 4.54024 17.3024 4.57516L18.3637 5.63641C18.6478 5.92284 19.0176 6.10863 19.417 6.16549C19.8164 6.22235 20.2234 6.14718 20.5762 5.95141C21.8328 7.71755 22.5055 9.83257 22.4999 12.0002C22.4984 13.7232 22.0732 15.4194 21.2619 16.9395C20.4505 18.4595 19.2779 19.7568 17.8472 20.717C16.4165 21.6772 14.7717 22.2709 13.0576 22.4458C11.3434 22.6208 9.61258 22.3716 8.01742 21.7202L7.73242 22.4139C9.44149 23.1121 11.296 23.3793 13.1327 23.1921C14.9694 23.0048 16.7318 22.3687 18.2648 21.34C19.7978 20.3112 21.0542 18.9212 21.9236 17.2925C22.7929 15.6638 23.2484 13.8463 23.2499 12.0002C23.2562 9.65629 22.5226 7.37023 21.1537 5.46766Z" fill="#23AFA4"/>
<path d="M4.875 12C4.875 13.4092 5.29287 14.7867 6.07578 15.9584C6.85868 17.1301 7.97146 18.0434 9.27338 18.5826C10.5753 19.1219 12.0079 19.263 13.39 18.9881C14.7721 18.7132 16.0417 18.0346 17.0381 17.0381C18.0346 16.0417 18.7132 14.7721 18.9881 13.39C19.263 12.0079 19.1219 10.5753 18.5826 9.27338C18.0434 7.97146 17.1301 6.85868 15.9584 6.07578C14.7867 5.29287 13.4092 4.875 12 4.875C10.1109 4.87669 8.29956 5.6279 6.96373 6.96373C5.6279 8.29956 4.87669 10.1109 4.875 12ZM12.375 8.25V10.875H14.25C14.3139 10.8752 14.3767 10.8917 14.4325 10.923C14.4882 10.9543 14.535 10.9994 14.5685 11.0538C14.6019 11.1083 14.6209 11.1704 14.6235 11.2343C14.6262 11.2982 14.6125 11.3617 14.5837 11.4188L12.3337 15.9188C12.3026 15.9806 12.2549 16.0326 12.196 16.069C12.1371 16.1054 12.0693 16.1248 12 16.125C11.9709 16.125 11.9419 16.1212 11.9138 16.1138C11.8318 16.0944 11.7587 16.0479 11.7063 15.982C11.6539 15.916 11.6253 15.8343 11.625 15.75V13.125H9.75C9.68608 13.1248 9.62326 13.1083 9.56752 13.077C9.51179 13.0457 9.46498 13.0006 9.43154 12.9462C9.3981 12.8917 9.37914 12.8296 9.37646 12.7657C9.37379 12.7018 9.38748 12.6383 9.41625 12.5812L11.6663 8.08125C11.7045 8.00651 11.7668 7.94679 11.8431 7.91165C11.9193 7.8765 12.0052 7.86797 12.0869 7.88742C12.1686 7.90687 12.2413 7.95317 12.2936 8.01892C12.3458 8.08466 12.3745 8.16603 12.375 8.25Z" fill="#23AFA4"/>
<path d="M6.69754 19.9537C6.7324 19.9196 6.76001 19.8787 6.7787 19.8336C6.79738 19.7885 6.80677 19.7401 6.80629 19.6912C6.80678 19.6419 6.79742 19.5929 6.77874 19.5472C6.76007 19.5014 6.73246 19.4599 6.69754 19.425L5.63629 18.3637C5.35221 18.0773 4.98233 17.8915 4.58294 17.8347C4.18355 17.7778 3.77652 17.853 3.42379 18.0487C2.16714 16.2826 1.49448 14.1676 1.50004 12C1.50158 10.277 1.92675 8.58073 2.7381 7.06068C3.54945 5.54063 4.72209 4.24338 6.15277 3.28318C7.58345 2.32297 9.22828 1.72925 10.9424 1.55432C12.6565 1.37938 14.3874 1.62858 15.9825 2.27999L16.2675 1.58624C14.5585 0.888036 12.7039 0.620806 10.8673 0.808082C9.0306 0.995358 7.26817 1.63139 5.73519 2.66017C4.20221 3.68895 2.94572 5.0789 2.0764 6.70761C1.20707 8.33632 0.751579 10.1538 0.75004 12C0.743785 14.3439 1.47737 16.6299 2.84629 18.5325C2.55703 18.8896 2.41102 19.3416 2.43666 19.8005C2.46231 20.2594 2.65778 20.6923 2.98504 21.015L4.04629 22.0762C4.1172 22.1448 4.212 22.1832 4.31066 22.1832C4.40933 22.1832 4.50413 22.1448 4.57504 22.0762L4.84129 21.81L5.90254 22.8712L6.43129 22.3425L5.37004 21.2812L5.90254 20.7487L6.96004 21.81L7.49254 21.2812L6.43129 20.22L6.69754 19.9537Z" fill="#23AFA4"/>
</g>
<defs>
<clipPath id="clip0_272_36307">
<rect width="24" height="24" fill="white"/>
</clipPath>
</defs>
</svg>
