<svg width="44" height="44" viewBox="0 0 44 44" fill="none" xmlns="http://www.w3.org/2000/svg">
<path d="M38.4513 25.8354L35.2343 23.3198C35.2751 22.9319 35.3101 22.4784 35.3101 21.9986C35.3101 21.5188 35.2765 21.0653 35.2343 20.6773L38.4543 18.1603C39.0522 17.6878 39.2155 16.8492 38.8349 16.1507L35.4895 10.3625C35.1321 9.70919 34.349 9.37375 33.5543 9.66687L29.7582 11.1908C29.0305 10.6658 28.2678 10.2225 27.4788 9.86812L26.9013 5.84169C26.8065 5.0775 26.1415 4.5 25.3555 4.5H18.6472C17.8611 4.5 17.1976 5.0775 17.1043 5.83L16.5253 9.87106C15.7611 10.2153 15.0101 10.6528 14.2503 11.1937L10.4441 9.66544C9.73089 9.38981 8.87776 9.69894 8.52339 10.3494L5.17364 16.1448C4.77846 16.8128 4.94177 17.6804 5.55283 18.1646L8.76989 20.6803C8.71883 21.1717 8.69408 21.599 8.69408 22.0001C8.69408 22.4011 8.7189 22.8284 8.76989 23.3213L5.54989 25.8384C4.95195 26.3123 4.79008 27.1509 5.1707 27.8479L8.51614 33.6361C8.87346 34.2879 9.64927 34.6262 10.4513 34.3317L14.2474 32.8078C14.9736 33.3313 15.7363 33.7746 16.5253 34.1304L17.1028 38.1554C17.1976 38.9225 17.8611 39.5 18.6486 39.5H25.357C26.143 39.5 26.808 38.9225 26.9013 38.17L27.4803 34.1304C28.2445 33.7848 28.994 33.3487 29.7553 32.8062L33.5615 34.3346C33.7453 34.406 33.9363 34.4425 34.1332 34.4425C34.699 34.4425 35.2196 34.1333 35.4821 33.6521L38.8421 27.8333C39.2155 27.1508 39.0521 26.3123 38.4513 25.8354ZM22.0013 27.8333C18.7843 27.8333 16.168 25.2171 16.168 22C16.168 18.7829 18.7843 16.1667 22.0013 16.1667C25.2184 16.1667 27.8346 18.7829 27.8346 22C27.8346 25.2171 25.2184 27.8333 22.0013 27.8333Z" fill="#4DA7B0"/>
</svg>
