<svg width="44" height="44" viewBox="0 0 44 44" fill="none" xmlns="http://www.w3.org/2000/svg">
<path d="M33.2328 11.2856C32.9861 7.84704 30.1097 5.125 26.6094 5.125C25.5141 5.125 24.4374 5.3986 23.4799 5.90969C21.6487 3.4718 18.7571 2 15.6719 2C10.2871 2 5.90625 6.38086 5.90625 11.7656C5.90625 12.9903 6.13969 14.2063 6.58813 15.343C5.44328 15.9081 4.42875 16.7406 3.65539 17.7632C2.57242 19.1953 2 20.9035 2 22.7031C2 27.2264 5.67993 30.9063 10.2031 30.9063C12.0736 30.9063 13.8399 30.2864 15.2813 29.1412C16.7226 30.2864 18.4889 30.9063 20.3594 30.9063C22.3856 30.9063 24.3137 30.1617 25.8064 28.831C27.5707 30.2776 29.7575 31.0625 32.0782 31.0625C37.5491 31.0625 42 26.6116 42 21.1406C42 16.0601 38.1621 11.8592 33.2328 11.2856ZM19.1937 19.884C19.0649 20.0376 18.925 20.1819 18.7777 20.3131C18.0263 20.9823 17.0604 21.336 15.9844 21.336C13.292 21.336 11.1016 19.1456 11.1016 16.4531C11.1016 13.7607 13.292 11.5703 15.9844 11.5703C16.9627 11.5703 17.907 11.8588 18.7151 12.4048C19.1621 12.7067 19.2796 13.3138 18.9777 13.7606C18.6758 14.2076 18.0687 14.3252 17.6218 14.0232C17.1378 13.6962 16.5716 13.5234 15.9845 13.5234C14.369 13.5234 13.0548 14.8377 13.0548 16.4531C13.0548 18.0686 14.369 19.3828 15.9845 19.3828C16.5824 19.3828 17.0852 19.2051 17.4788 18.8545C17.5556 18.7862 17.6289 18.7103 17.697 18.6292C18.0435 18.2158 18.6594 18.1617 19.0728 18.5082C19.486 18.8548 19.5402 19.4707 19.1937 19.884ZM24.8125 21.336C22.1202 21.336 19.9297 19.1456 19.9297 16.4531C19.9297 13.7607 22.1202 11.5703 24.8125 11.5703C27.5049 11.5703 29.6953 13.7607 29.6953 16.4531C29.6953 19.1456 27.5049 21.336 24.8125 21.336ZM33.8092 25.2298C33.0324 25.2396 32.4651 25.244 32.0473 25.244C30.9725 25.244 30.8847 25.2147 30.7548 25.1714C30.4446 25.068 30.2027 24.822 30.1077 24.5134C29.9482 23.9949 30.2017 23.663 30.5527 23.2035C30.8235 22.8489 31.3275 22.1891 32.1726 20.9814C32.4313 20.6119 32.5382 20.3552 32.5815 20.1962L32.5905 20.1259C32.5688 19.928 32.4005 19.7735 32.1969 19.7735C32.008 19.7735 31.8446 19.9073 31.8084 20.0916C31.7044 20.6209 31.1911 20.966 30.6619 20.8616C30.1327 20.7576 29.7879 20.2443 29.8919 19.7151C30.1076 18.6171 31.077 17.8203 32.1969 17.8203C33.4922 17.8203 34.546 18.874 34.546 20.1693C34.5428 20.2957 34.5178 20.473 34.4943 20.5973C34.3839 21.0731 34.1479 21.5651 33.7728 22.1012C33.4432 22.5721 33.1639 22.9623 32.9287 23.2853C33.211 23.2832 33.503 23.2803 33.7845 23.2767C34.3252 23.2695 34.7665 23.7017 34.7732 24.241C34.7802 24.7803 34.3485 25.223 33.8092 25.2298Z" fill="#4DA7B0"/>
<path d="M24.8125 19.3828C26.4305 19.3828 27.7422 18.0712 27.7422 16.4531C27.7422 14.8351 26.4305 13.5234 24.8125 13.5234C23.1945 13.5234 21.8828 14.8351 21.8828 16.4531C21.8828 18.0712 23.1945 19.3828 24.8125 19.3828Z" fill="#4DA7B0"/>
<path d="M25.1725 37.6557C24.7148 37.1981 23.9729 37.1981 23.5152 37.6557L23.1719 37.999V34.5781C23.1719 33.9309 22.6472 33.4062 22 33.4062C21.3529 33.4062 20.8282 33.9309 20.8282 34.5781V37.999L20.4849 37.6557C20.0272 37.1981 19.2853 37.1981 18.8276 37.6557C18.37 38.1134 18.37 38.8553 18.8276 39.313L21.1714 41.6567C21.629 42.1144 22.371 42.1144 22.8286 41.6567L25.1724 39.313C25.6301 38.8554 25.6301 38.1134 25.1725 37.6557Z" fill="#4DA7B0"/>
<path d="M36.11 37.6557C35.6523 37.1981 34.9104 37.1981 34.4527 37.6557L34.1094 37.999V34.5781C34.1094 33.9309 33.5847 33.4062 32.9375 33.4062C32.2904 33.4062 31.7657 33.9309 31.7657 34.5781V37.999L31.4224 37.6557C30.9647 37.1981 30.2228 37.1981 29.7651 37.6557C29.3075 38.1134 29.3075 38.8553 29.7651 39.313L32.1089 41.6567C32.5665 42.1144 33.3085 42.1144 33.7661 41.6567L36.1099 39.313C36.5676 38.8554 36.5676 38.1134 36.11 37.6557Z" fill="#4DA7B0"/>
<path d="M14.235 37.6557C13.7773 37.1981 13.0354 37.1981 12.5777 37.6557L12.2344 37.999V34.5781C12.2344 33.9309 11.7097 33.4062 11.0625 33.4062C10.4154 33.4062 9.89067 33.9309 9.89067 34.5781V37.999L9.54739 37.6557C9.08973 37.1981 8.34777 37.1981 7.89012 37.6557C7.43246 38.1134 7.43246 38.8553 7.89012 39.313L10.2339 41.6567C10.6915 42.1144 11.4335 42.1144 11.8911 41.6567L14.2349 39.313C14.6926 38.8554 14.6926 38.1134 14.235 37.6557Z" fill="#4DA7B0"/>
</svg>
