<svg width="25" height="25" viewBox="0 0 25 25" fill="none" xmlns="http://www.w3.org/2000/svg">
<path d="M22.6321 13.6078L21.6321 14.6078L19.5821 12.5578L20.5821 11.5578C20.6849 11.457 20.8232 11.4006 20.9671 11.4006C21.1111 11.4006 21.2493 11.457 21.3521 11.5578L22.6321 12.8378C22.8421 13.0478 22.8421 13.3978 22.6321 13.6078ZM12.9321 19.1978L18.9921 13.1378L21.0421 15.1878L14.9921 21.2578H12.9321V19.1978ZM12.9321 14.2578C8.51213 14.2578 4.93213 16.0478 4.93213 18.2578V20.2578H10.9321V18.3678L14.9321 14.3678C14.2721 14.2878 13.6021 14.2578 12.9321 14.2578ZM12.9321 4.25781C11.8713 4.25781 10.8538 4.67924 10.1037 5.42939C9.35356 6.17953 8.93213 7.19695 8.93213 8.25781C8.93213 9.31868 9.35356 10.3361 10.1037 11.0862C10.8538 11.8364 11.8713 12.2578 12.9321 12.2578C13.993 12.2578 15.0104 11.8364 15.7606 11.0862C16.5107 10.3361 16.9321 9.31868 16.9321 8.25781C16.9321 7.19695 16.5107 6.17953 15.7606 5.42939C15.0104 4.67924 13.993 4.25781 12.9321 4.25781Z" fill="white"/>
</svg>
