<svg width="24" height="24" viewBox="0 0 24 24" fill="none" xmlns="http://www.w3.org/2000/svg">
<path d="M23.0001 10.41C22.9439 10.6414 22.8991 10.8768 22.829 11.1041C22.3778 12.5681 21.4173 13.5332 19.9677 14.0217C19.8121 14.074 19.7547 14.051 19.6933 13.8908C18.769 11.4853 15.6309 10.8969 13.8925 12.7989C13.5601 13.1629 13.3281 13.5877 13.1783 14.0539C13.1398 14.1727 13.0922 14.2072 12.9716 14.2072C10.1292 14.2037 7.28681 14.2158 4.4444 14.2003C2.76227 14.1911 1.54114 13.2427 1.12147 11.6742C0.66276 9.96049 1.53655 8.26171 3.20146 7.64627C3.35475 7.58943 3.40757 7.52341 3.42766 7.35347C3.65673 5.38486 5.10405 3.74808 7.04798 3.2377C8.15256 2.94777 9.22614 3.02872 10.2618 3.51442C10.3726 3.56666 10.4157 3.54255 10.4783 3.45299C11.3859 2.15723 12.6122 1.3552 14.1721 1.06585C14.2639 1.04862 14.3747 1.08996 14.4505 1.00098C14.5366 1.00098 14.6222 1.00098 14.7083 1.00098C14.9374 1.03715 15.1664 1.03715 15.3955 1.00098C15.4673 1.00098 15.5384 1.00098 15.6102 1.00098C16.271 1.01992 16.891 1.20191 17.4807 1.48667C19.2357 2.33348 20.3173 3.70559 20.6842 5.62828C20.6911 5.6633 20.698 5.69889 20.6985 5.73449C20.7031 5.99398 20.834 6.14096 21.0579 6.28448C22.0339 6.90911 22.6597 7.79955 22.9358 8.92767C22.9795 9.10679 22.9823 9.29567 22.9766 9.48169C22.9766 9.55173 22.9766 9.62119 22.9766 9.69066C22.9898 9.8583 22.9496 10.0282 22.999 10.1942C23.0001 10.2665 23.0001 10.3383 23.0001 10.41Z" fill="white"/>
<path d="M23.0002 10.196C22.9118 10.0284 22.9749 9.84924 22.9611 9.67586C22.9761 9.66094 22.9893 9.66323 23.0002 9.68103C23.0002 9.85211 23.0002 10.0238 23.0002 10.196Z" fill="#282421"/>
<path d="M23 9.67852C22.9868 9.67794 22.9736 9.67622 22.9604 9.67392C22.961 9.60158 22.9621 9.52867 22.9627 9.45634C22.9759 9.45519 22.9886 9.45749 23 9.46437C23 9.53499 23 9.60675 23 9.67852Z" fill="#645C57"/>
<path d="M6.60431 15.4365C7.85931 15.4359 8.92543 16.4676 8.89213 17.6991C8.85137 19.2199 7.75195 19.9892 6.59857 19.9886C5.30396 19.9875 4.30961 18.9816 4.31764 17.6824C4.32568 16.455 5.36195 15.4371 6.60431 15.4365Z" fill="white"/>
<path d="M16.4703 17.2823C15.2297 17.2829 14.2881 16.343 14.2836 15.0995C14.2795 13.9238 15.2699 12.9449 16.4634 12.9443C17.6593 12.9438 18.6732 13.918 18.6462 15.0932C18.6135 16.5583 17.5496 17.2834 16.4703 17.2823Z" fill="white"/>
<path d="M13.9424 21.0377C13.9458 22.1486 13.1191 22.9816 12.0226 22.9989C11.1017 23.0138 10.0643 22.4041 10.0425 21.0279C10.0258 19.9819 10.9473 19.0989 11.9984 19.1035C13.0651 19.1081 13.9389 19.9779 13.9424 21.0377Z" fill="white"/>
</svg>
