<svg width="44" height="44" viewBox="0 0 44 44" fill="none" xmlns="http://www.w3.org/2000/svg">
<path fill-rule="evenodd" clip-rule="evenodd" d="M24.9163 21.9998C29.7487 21.9998 33.6662 18.0823 33.6662 13.2499C33.6662 8.41746 29.7487 4.5 24.9163 4.5C20.0839 4.5 16.1664 8.41746 16.1664 13.2499C16.1664 18.0823 20.0839 21.9998 24.9163 21.9998ZM29.2918 24.9162H20.5419C17.8355 24.9193 15.2408 25.9958 13.327 27.9096C11.4133 29.8233 10.3368 32.418 10.3337 35.1244V38.0411C10.3337 38.4278 10.4873 38.7988 10.7608 39.0723C11.0343 39.3457 11.4052 39.4994 11.792 39.4994H38.0417C38.4284 39.4994 38.7994 39.3457 39.0729 39.0723C39.3463 38.7988 39.5 38.4278 39.5 38.0411V35.1244C39.4969 32.418 38.4204 29.8233 36.5067 27.9096C34.5929 25.9958 31.9982 24.9193 29.2918 24.9162ZM9.30208 15.139C9.57556 14.8656 9.94649 14.7119 10.3333 14.7119C10.72 14.7119 11.091 14.8656 11.3644 15.139C11.6379 15.4125 11.7916 15.7835 11.7916 16.1702V19.0869H14.7082C15.095 19.0869 15.4659 19.2405 15.7394 19.514C16.0129 19.7875 16.1665 20.1584 16.1665 20.5452C16.1665 20.9319 16.0129 21.3029 15.7394 21.5764C15.4659 21.8498 15.095 22.0035 14.7082 22.0035H11.7916V24.9201C11.7916 25.3069 11.6379 25.6778 11.3644 25.9513C11.091 26.2248 10.72 26.3784 10.3333 26.3784C9.94649 26.3784 9.57556 26.2248 9.30208 25.9513C9.02859 25.6778 8.87495 25.3069 8.87495 24.9201V22.0035H5.95832C5.57155 22.0035 5.20062 21.8498 4.92713 21.5764C4.65364 21.3029 4.5 20.9319 4.5 20.5452C4.5 20.1584 4.65364 19.7875 4.92713 19.514C5.20062 19.2405 5.57155 19.0869 5.95832 19.0869H8.87495V16.1702C8.87495 15.7835 9.02859 15.4125 9.30208 15.139Z" fill="#4DA7B0"/>
</svg>
