<svg width="44" height="44" viewBox="0 0 44 44" fill="none" xmlns="http://www.w3.org/2000/svg">
<path d="M37.754 34.7057H14.3497C13.3851 34.7057 12.6033 33.9239 12.6033 32.9593C12.6033 31.9947 13.3851 31.2129 14.3497 31.2129H37.7534C38.718 31.2129 39.4998 31.9947 39.4998 32.9593C39.4998 33.9239 38.7186 34.7057 37.754 34.7057Z" fill="#4DA7B0"/>
<path d="M37.754 23.7448H14.3497C13.3851 23.7448 12.6033 22.963 12.6033 21.9984C12.6033 21.0338 13.3851 20.252 14.3497 20.252H37.7534C38.718 20.252 39.4998 21.0338 39.4998 21.9984C39.5004 22.963 38.7186 23.7448 37.754 23.7448Z" fill="#4DA7B0"/>
<path d="M37.754 12.7839H14.3497C13.3851 12.7839 12.6033 12.002 12.6033 11.0374C12.6033 10.0728 13.3851 9.29102 14.3497 9.29102H37.7534C38.718 9.29102 39.4998 10.0728 39.4998 11.0374C39.4998 12.002 38.7186 12.7839 37.754 12.7839Z" fill="#4DA7B0"/>
<path d="M6.84544 13.517C8.14079 13.517 9.19088 12.467 9.19088 11.1716C9.19088 9.87626 8.14079 8.82617 6.84544 8.82617C5.55009 8.82617 4.5 9.87626 4.5 11.1716C4.5 12.467 5.55009 13.517 6.84544 13.517Z" fill="#4DA7B0"/>
<path d="M6.84544 24.3432C8.14079 24.3432 9.19088 23.2931 9.19088 21.9978C9.19088 20.7024 8.14079 19.6523 6.84544 19.6523C5.55009 19.6523 4.5 20.7024 4.5 21.9978C4.5 23.2931 5.55009 24.3432 6.84544 24.3432Z" fill="#4DA7B0"/>
<path d="M6.84544 35.1733C8.14079 35.1733 9.19088 34.1232 9.19088 32.8279C9.19088 31.5325 8.14079 30.4824 6.84544 30.4824C5.55009 30.4824 4.5 31.5325 4.5 32.8279C4.5 34.1232 5.55009 35.1733 6.84544 35.1733Z" fill="#4DA7B0"/>
</svg>
