<svg width="44" height="44" viewBox="0 0 44 44" fill="none" xmlns="http://www.w3.org/2000/svg">
<path d="M37.754 34.706H14.3497C13.3851 34.706 12.6033 33.9242 12.6033 32.9596C12.6033 31.9949 13.3851 31.2131 14.3497 31.2131H37.7534C38.718 31.2131 39.4998 31.9949 39.4998 32.9596C39.4998 33.9242 38.7186 34.706 37.754 34.706Z" fill="#4DA7B0"/>
<path d="M37.754 23.7455H14.3497C13.3851 23.7455 12.6033 22.9637 12.6033 21.9991C12.6033 21.0345 13.3851 20.2527 14.3497 20.2527H37.7534C38.718 20.2527 39.4998 21.0345 39.4998 21.9991C39.5004 22.9637 38.7186 23.7455 37.754 23.7455Z" fill="#4DA7B0"/>
<path d="M37.754 12.7831H14.3497C13.3851 12.7831 12.6033 12.0013 12.6033 11.0367C12.6033 10.0721 13.3851 9.29028 14.3497 9.29028H37.7534C38.718 9.29028 39.4998 10.0721 39.4998 11.0367C39.4998 12.0013 38.7186 12.7831 37.754 12.7831Z" fill="#4DA7B0"/>
<path d="M6.84544 13.517C8.14079 13.517 9.19088 12.467 9.19088 11.1716C9.19088 9.87626 8.14079 8.82617 6.84544 8.82617C5.55009 8.82617 4.5 9.87626 4.5 11.1716C4.5 12.467 5.55009 13.517 6.84544 13.517Z" fill="#4DA7B0"/>
<path d="M6.84544 24.3432C8.14079 24.3432 9.19088 23.2931 9.19088 21.9978C9.19088 20.7024 8.14079 19.6523 6.84544 19.6523C5.55009 19.6523 4.5 20.7024 4.5 21.9978C4.5 23.2931 5.55009 24.3432 6.84544 24.3432Z" fill="#4DA7B0"/>
<path d="M6.84544 35.1733C8.14079 35.1733 9.19088 34.1232 9.19088 32.8279C9.19088 31.5325 8.14079 30.4824 6.84544 30.4824C5.55009 30.4824 4.5 31.5325 4.5 32.8279C4.5 34.1232 5.55009 35.1733 6.84544 35.1733Z" fill="#4DA7B0"/>
</svg>
