<svg width="44" height="44" viewBox="0 0 44 44" fill="none" xmlns="http://www.w3.org/2000/svg">
<path fill-rule="evenodd" clip-rule="evenodd" d="M33.7188 42H10.2812C8.34266 42 6.76562 40.423 6.76562 38.4844V5.51562C6.76562 3.57703 8.34266 2 10.2812 2H25.5156V10.2031C25.5156 12.1417 27.0927 13.7188 29.0312 13.7188H37.2344V38.4844C37.2344 40.423 35.6573 42 33.7188 42ZM29.0312 18.4844H14.9688C14.321 18.4844 13.7969 19.0085 13.7969 19.6562C13.7969 20.304 14.321 20.8281 14.9688 20.8281H29.0312C29.679 20.8281 30.2031 20.304 30.2031 19.6562C30.2031 19.0085 29.679 18.4844 29.0312 18.4844ZM29.0312 23.1719H14.9688C14.321 23.1719 13.7969 23.696 13.7969 24.3438C13.7969 24.9915 14.321 25.5156 14.9688 25.5156H29.0312C29.679 25.5156 30.2031 24.9915 30.2031 24.3438C30.2031 23.696 29.679 23.1719 29.0312 23.1719ZM29.0312 27.8594H14.9688C14.321 27.8594 13.7969 28.3835 13.7969 29.0312C13.7969 29.679 14.321 30.2031 14.9688 30.2031H29.0312C29.679 30.2031 30.2031 29.679 30.2031 29.0312C30.2031 28.3835 29.679 27.8594 29.0312 27.8594ZM24.3438 32.5469H14.9688C14.321 32.5469 13.7969 33.071 13.7969 33.7188C13.7969 34.3665 14.321 34.8906 14.9688 34.8906H24.3438C24.9915 34.8906 25.5156 34.3665 25.5156 33.7188C25.5156 33.071 24.9915 32.5469 24.3438 32.5469ZM36.5477 11.3755H29.0312C28.3847 11.3755 27.8594 10.8502 27.8594 10.2036V2.68714L36.5477 11.3755Z" fill="#4DA7B0"/>
</svg>
