<svg width="25" height="25" viewBox="0 0 25 25" fill="none" xmlns="http://www.w3.org/2000/svg">
<path d="M16.9321 17.2579V19.2579H2.93213V17.2579C2.93213 17.2579 2.93213 13.2579 9.93213 13.2579C16.9321 13.2579 16.9321 17.2579 16.9321 17.2579ZM13.4321 7.75787C13.4321 7.06563 13.2269 6.38894 12.8423 5.81337C12.4577 5.2378 11.9111 4.78919 11.2715 4.52429C10.632 4.25938 9.92825 4.19007 9.24931 4.32512C8.57038 4.46017 7.94674 4.79351 7.45726 5.28299C6.96777 5.77248 6.63443 6.39612 6.49938 7.07505C6.36433 7.75398 6.43364 8.45772 6.69855 9.09726C6.96346 9.7368 7.41206 10.2834 7.98763 10.668C8.56321 11.0526 9.23989 11.2579 9.93213 11.2579C10.8604 11.2579 11.7506 10.8891 12.407 10.2327C13.0634 9.57636 13.4321 8.68612 13.4321 7.75787ZM16.8721 13.2579C17.4869 13.7336 17.9899 14.3383 18.3458 15.0294C18.7017 15.7204 18.9018 16.4811 18.9321 17.2579V19.2579H22.9321V17.2579C22.9321 17.2579 22.9321 13.6279 16.8721 13.2579ZM15.9321 4.25787C15.2438 4.25403 14.5706 4.45982 14.0021 4.84787C14.6096 5.6966 14.9362 6.71415 14.9362 7.75787C14.9362 8.80158 14.6096 9.81913 14.0021 10.6679C14.5706 11.0559 15.2438 11.2617 15.9321 11.2579C16.8604 11.2579 17.7506 10.8891 18.407 10.2327C19.0634 9.57636 19.4321 8.68612 19.4321 7.75787C19.4321 6.82961 19.0634 5.93937 18.407 5.28299C17.7506 4.62661 16.8604 4.25787 15.9321 4.25787Z" fill="white"/>
</svg>
