<svg width="24" height="24" viewBox="0 0 24 24" fill="none" xmlns="http://www.w3.org/2000/svg">
<path d="M10.985 18.0533C10.954 18.0596 10.9325 18.0678 10.911 18.0678C8.3575 18.0653 5.80332 18.078 3.24977 18.0533C1.9553 18.0407 0.774599 16.9731 0.550216 15.6944C0.421274 14.9606 0.540103 14.2748 0.913022 13.6295C3.04182 9.94515 5.1624 6.25641 7.29879 2.57652C8.47696 0.548223 11.2498 0.551383 12.4286 2.57779C13.8584 5.03463 15.2742 7.49969 16.6957 9.96159C16.7267 10.0147 16.7513 10.0709 16.7842 10.1354C16.6736 10.1923 16.5889 10.1228 16.5093 10.1C16.1901 10.009 15.8633 9.9559 15.5352 9.93504C15.3703 9.92493 15.2919 9.86172 15.2142 9.72646C13.9576 7.54204 12.6979 5.35951 11.4338 3.18015C10.9022 2.26302 9.86561 1.96342 8.98388 2.45959C8.69565 2.62203 8.4757 2.85463 8.31136 3.13906C6.18319 6.82464 4.05123 10.5083 1.92938 14.1977C1.19619 15.4732 2.04442 16.908 3.52914 16.9131C5.64151 16.9206 7.75388 16.9257 9.86624 16.9055C10.2423 16.9017 10.4711 16.9706 10.5931 17.3574C10.6709 17.6045 10.8485 17.8188 10.985 18.0533Z" fill="white"/>
<path d="M14.4469 9.87703C13.2144 7.74191 11.9825 5.60616 10.7474 3.4723C10.6172 3.24665 10.4213 3.09306 10.1666 3.01911C9.66472 2.87437 9.21658 3.06335 8.93342 3.55257C7.92337 5.29834 6.91586 7.046 5.90708 8.79304C4.80413 10.7031 3.70117 12.6132 2.59758 14.5234C2.46106 14.7597 2.36182 15.005 2.41555 15.2844C2.52047 15.8305 2.9193 16.1642 3.47679 16.1648C5.64414 16.1667 7.8115 16.1655 9.97885 16.1655C10.0332 16.1655 10.0869 16.1585 10.152 16.1547C10.0237 15.5637 10.0054 14.9746 10.0813 14.3868C10.1027 14.2225 10.0971 14.1738 9.91186 14.182C9.41189 14.2054 9.03202 13.8237 9.06299 13.3553C9.09523 12.8768 9.5048 12.5557 9.99908 12.6158C10.2045 12.6411 10.3505 12.7725 10.5016 12.8882C11.334 11.2455 12.6481 10.2702 14.4735 9.9592C14.4621 9.92127 14.4583 9.89726 14.4469 9.87703ZM10.6349 8.9264C10.6122 8.9264 10.5888 8.9264 10.566 8.92577C10.5389 9.6577 10.5123 10.3896 10.4845 11.1216C10.4706 11.4869 10.2007 11.7517 9.85244 11.7448C9.51113 11.7378 9.26146 11.4818 9.24882 11.1203C9.19699 9.69563 9.14516 8.27095 9.09459 6.84564C9.07753 6.37033 9.3076 6.13077 9.78418 6.12256C9.83917 6.12192 9.89479 6.12192 9.94978 6.12256C10.4181 6.13077 10.6387 6.35958 10.6368 6.82289C10.6324 7.52511 10.6349 8.22544 10.6349 8.9264Z" fill="white"/>
<path d="M23.354 21.2163C22.4875 20.3674 21.6152 19.5243 20.7417 18.683C20.5805 18.5275 20.3738 18.5117 20.2025 18.6444C20.0767 18.7418 20.0243 18.7 19.9377 18.6134C19.6084 18.2854 19.2797 17.9567 18.9384 17.6413C18.8227 17.5345 18.8196 17.4618 18.8998 17.3316C19.4542 16.4347 19.6507 15.4569 19.506 14.4172C19.2089 12.2795 17.3544 10.681 15.1751 10.6709C14.8755 10.6709 14.5771 10.6873 14.2839 10.7543C11.8675 11.3036 10.4283 13.4773 10.8637 15.9196C11.2082 17.8524 13.0539 19.4042 15.0152 19.432C16.077 19.4471 17.0264 19.1501 17.8639 18.499C17.9505 18.4314 18.0061 18.4074 18.0965 18.4984C18.434 18.8397 18.7791 19.1747 19.1249 19.5085C19.1969 19.578 19.2184 19.621 19.1508 19.7202C19.0067 19.9319 19.0288 20.1133 19.2121 20.2928C20.0679 21.1303 20.9256 21.9659 21.7878 22.7971C21.9944 22.9962 22.2365 22.9956 22.4388 22.7958C22.7529 22.4861 23.0595 22.1682 23.3603 21.8465C23.5468 21.6474 23.5487 21.4072 23.354 21.2163ZM15.1542 18.1463C13.4483 18.1375 12.0748 16.7507 12.0798 15.041C12.0849 13.33 13.4641 11.9546 15.1719 11.9572C16.8734 11.9597 18.2501 13.3483 18.2469 15.0587C18.2438 16.764 16.8501 18.1546 15.1542 18.1463Z" fill="white"/>
</svg>
