<svg width="24" height="24" viewBox="0 0 24 24" fill="none" xmlns="http://www.w3.org/2000/svg">
<g clip-path="url(#clip0_221_5046)">
<path d="M0 7.44434H24V9.95327H0V7.44434Z" fill="white"/>
<path d="M21.9089 6.03811L20.6471 3.51431L17.1328 0H13.1793L11.8074 2.74383L10.6774 1.61386H6.86722L5.25341 3.22767H3.49625L2.09103 6.03811H21.9089Z" fill="white"/>
<path d="M2.2406 16.4174H21.7594L22.9769 11.3594H1.02307L2.2406 16.4174Z" fill="white"/>
<path d="M16.5033 20.5645C15.5562 20.5645 14.7857 21.335 14.7857 22.2821C14.7857 23.2293 15.5562 23.9997 16.5033 23.9997C17.4504 23.9997 18.221 23.2292 18.221 22.2821C18.221 21.335 17.4504 20.5645 16.5033 20.5645ZM17.2064 22.9852H15.8002V21.579H17.2064V22.9852Z" fill="white"/>
<path d="M22.5111 17.8242H1.48889V19.3644H0V20.7706H1.48889V22.3502H4.37452C4.37405 22.3277 4.37278 22.3054 4.37278 22.2827C4.37278 20.5602 5.77416 19.1588 7.49667 19.1588C9.21919 19.1588 10.6206 20.5602 10.6206 22.2827C10.6206 22.3054 10.6193 22.3277 10.6188 22.3502H13.3812C13.3807 22.3277 13.3795 22.3054 13.3795 22.2827C13.3795 20.5602 14.7809 19.1588 16.5034 19.1588C18.2259 19.1588 19.6273 20.5602 19.6273 22.2827C19.6273 22.3054 19.626 22.3277 19.6255 22.3502H22.5112V20.7706H24V19.3644H22.5111V17.8242Z" fill="white"/>
<path d="M7.49666 20.5645C6.54955 20.5645 5.77902 21.335 5.77902 22.2821C5.77902 23.2293 6.54955 23.9997 7.49666 23.9997C8.44377 23.9997 9.2143 23.2292 9.2143 22.2821C9.2143 21.335 8.44377 20.5645 7.49666 20.5645ZM8.19979 22.9852H6.79354V21.579H8.19979V22.9852Z" fill="white"/>
</g>
<defs>
<clipPath id="clip0_221_5046">
<rect width="24" height="24" fill="white"/>
</clipPath>
</defs>
</svg>
