<svg width="24" height="24" viewBox="0 0 24 24" fill="none" xmlns="http://www.w3.org/2000/svg">
<g clip-path="url(#clip0_221_5089)">
<path d="M1.18201 9.18262L0 23.9575H6.93843L5.36245 9.18262H1.18201Z" fill="white"/>
<path d="M1.46368 5.66211L1.29468 7.77468H5.21222L4.98688 5.66211H1.46368Z" fill="white"/>
<path d="M22.0719 9.88672L18.3004 14.4462V9.88672H16.3736L12.398 14.6657V9.88672H10.4691L7.2684 13.7721L7.75533 18.337H9.9162V19.7454H7.90555L8.35623 23.9705H24V9.88672H22.0719ZM14.1413 19.7454H11.3246V18.337H14.1413V19.7454ZM18.3665 19.7454H15.5497V18.337H18.3665V19.7454ZM22.5916 19.7454H19.7749V18.337H22.5916V19.7454Z" fill="white"/>
<path d="M6.25302 4.25346L6.72713 8.69825C7.45752 8.63309 8.15335 8.35475 8.72604 7.90196C9.36902 8.27663 10.1064 8.47859 10.8551 8.47859C12.0202 8.47859 13.1235 7.99735 13.9151 7.16603C14.4213 7.41184 14.9763 7.53967 15.5497 7.53967C16.375 7.53967 17.1761 7.26467 17.8259 6.77023C18.3688 7.1181 19.0007 7.30494 19.6575 7.30494C21.5342 7.30494 23.061 5.77812 23.061 3.90136C23.061 2.0246 21.5342 0.49778 19.6575 0.49778C19.072 0.49778 18.4993 0.649368 17.9943 0.932406C17.3187 0.352013 16.4567 0.0283203 15.5497 0.0283203C14.7264 0.0283203 13.928 0.301546 13.2794 0.793117C12.5731 0.296382 11.7326 0.0283203 10.8551 0.0283203C9.64018 0.0283203 8.50099 0.546134 7.70497 1.43797C7.28757 1.28258 6.84356 1.20197 6.39522 1.20197C4.56508 1.20197 3.03737 2.51815 2.70673 4.25346H6.25302Z" fill="white"/>
</g>
<defs>
<clipPath id="clip0_221_5089">
<rect width="24" height="24" fill="white"/>
</clipPath>
</defs>
</svg>
