<svg width="24" height="24" viewBox="0 0 24 24" fill="none" xmlns="http://www.w3.org/2000/svg">
<g clip-path="url(#clip0_221_5076)">
<path d="M8.5007 23.7416C10.1072 23.7416 11.4096 22.4392 11.4096 20.8327C11.4096 19.2262 10.1072 17.9238 8.5007 17.9238C6.89418 17.9238 5.59183 19.2262 5.59183 20.8327C5.59183 22.4392 6.89418 23.7416 8.5007 23.7416Z" fill="white"/>
<path d="M17.8204 17.8952C16.2061 17.7363 14.7686 18.9162 14.6098 20.5305C14.4509 22.1449 15.6308 23.5823 17.2451 23.7412C17.4364 23.76 17.6291 23.76 17.8204 23.7412C19.4348 23.5823 20.6146 22.1449 20.4558 20.5305C20.3185 19.1358 19.2151 18.0324 17.8204 17.8952Z" fill="white"/>
<path d="M23.8076 6.82486C23.6631 6.60847 23.4182 6.48072 23.1581 6.48596H19.9385V6.42948C19.9387 3.01363 17.1699 0.244361 13.754 0.244141C10.3382 0.24392 7.56895 3.0128 7.56873 6.42865C7.56873 6.42892 7.56873 6.4292 7.56873 6.42948V6.48596H5.1682L4.3492 2.75808C4.25824 2.37886 3.92017 2.11073 3.53019 2.10852H0V3.80301H2.85239L5.47886 15.8621C5.54819 16.2586 5.89542 16.546 6.29786 16.5399H21.0682C21.4582 16.5377 21.7962 16.2696 21.8872 15.8904L23.9771 7.53089C24.0383 7.28196 23.9752 7.0188 23.8076 6.82486ZM13.7536 10.9199C11.2737 10.9199 9.26322 8.90943 9.26322 6.42948C9.26322 3.94952 11.2737 1.93907 13.7536 1.93907C16.2336 1.93907 18.244 3.94952 18.244 6.42948C18.2286 8.90304 16.2272 10.9044 13.7536 10.9199Z" fill="white"/>
<path d="M13.0758 6.51466L11.5226 4.93314L10.3082 6.11928L12.4545 8.29388C12.611 8.45351 12.8241 8.54485 13.0476 8.54805C13.2682 8.55886 13.4832 8.47695 13.6407 8.32212L17.1991 4.96138L16.0412 3.71875L13.0758 6.51466Z" fill="white"/>
</g>
<defs>
<clipPath id="clip0_221_5076">
<rect width="24" height="24" fill="white"/>
</clipPath>
</defs>
</svg>
