<svg width="24" height="24" viewBox="0 0 24 24" fill="none" xmlns="http://www.w3.org/2000/svg">
<g clip-path="url(#clip0_221_5059)">
<path d="M21.1537 5.46766C21.443 5.11051 21.589 4.65851 21.5634 4.19963C21.5377 3.74076 21.3422 3.30785 21.015 2.98516L19.9537 1.92391C19.8828 1.85531 19.788 1.81696 19.6894 1.81696C19.5907 1.81696 19.4959 1.85531 19.425 1.92391L19.1587 2.19016L18.0975 1.12891L17.5687 1.65766L18.63 2.71891L18.0975 3.25141L17.04 2.19016L16.5075 2.71891L17.5687 3.78016L17.3025 4.04641C17.2676 4.08059 17.24 4.12145 17.2213 4.16656C17.2026 4.21167 17.1933 4.26008 17.1937 4.30891C17.1932 4.35829 17.2026 4.40727 17.2213 4.45299C17.24 4.49871 17.2676 4.54024 17.3025 4.57516L18.3637 5.63641C18.6478 5.92284 19.0177 6.10863 19.4171 6.16549C19.8165 6.22235 20.2235 6.14718 20.5762 5.95141C21.8329 7.71755 22.5055 9.83257 22.5 12.0002C22.4984 13.7232 22.0733 15.4194 21.2619 16.9395C20.4506 18.4595 19.2779 19.7568 17.8472 20.717C16.4166 21.6772 14.7717 22.2709 13.0576 22.4458C11.3435 22.6208 9.61264 22.3716 8.01748 21.7202L7.73248 22.4139C9.44155 23.1121 11.2961 23.3793 13.1328 23.1921C14.9694 23.0048 16.7319 22.3687 18.2648 21.34C19.7978 20.3112 21.0543 18.9212 21.9236 17.2925C22.793 15.6638 23.2484 13.8463 23.25 12.0002C23.2562 9.65629 22.5227 7.37023 21.1537 5.46766Z" fill="white"/>
<path d="M4.87497 12C4.87497 13.4092 5.29284 14.7867 6.07575 15.9584C6.85865 17.1301 7.97143 18.0434 9.27335 18.5826C10.5753 19.1219 12.0079 19.263 13.39 18.9881C14.7721 18.7132 16.0417 18.0346 17.0381 17.0381C18.0346 16.0417 18.7131 14.7721 18.9881 13.39C19.263 12.0079 19.1219 10.5753 18.5826 9.27338C18.0433 7.97146 17.1301 6.85868 15.9584 6.07578C14.7867 5.29287 13.4092 4.875 12 4.875C10.1108 4.87669 8.29953 5.6279 6.9637 6.96373C5.62787 8.29956 4.87666 10.1109 4.87497 12ZM12.375 8.25V10.875H14.25C14.3139 10.8752 14.3767 10.8917 14.4324 10.923C14.4882 10.9543 14.535 10.9994 14.5684 11.0538C14.6019 11.1083 14.6208 11.1704 14.6235 11.2343C14.6262 11.2982 14.6125 11.3617 14.5837 11.4188L12.3337 15.9188C12.3026 15.9806 12.2549 16.0326 12.196 16.069C12.1371 16.1054 12.0692 16.1248 12 16.125C11.9709 16.125 11.9419 16.1212 11.9137 16.1138C11.8317 16.0944 11.7586 16.0479 11.7063 15.982C11.6539 15.916 11.6252 15.8343 11.625 15.75V13.125H9.74997C9.68605 13.1248 9.62323 13.1083 9.56749 13.077C9.51176 13.0457 9.46495 13.0006 9.43151 12.9462C9.39807 12.8917 9.37911 12.8296 9.37643 12.7657C9.37376 12.7018 9.38745 12.6383 9.41622 12.5812L11.6662 8.08125C11.7045 8.00651 11.7668 7.94679 11.843 7.91165C11.9193 7.8765 12.0051 7.86797 12.0868 7.88742C12.1685 7.90687 12.2413 7.95317 12.2936 8.01892C12.3458 8.08466 12.3745 8.16603 12.375 8.25Z" fill="white"/>
<path d="M6.69748 19.9537C6.73234 19.9196 6.75995 19.8787 6.77863 19.8336C6.79732 19.7885 6.80671 19.7401 6.80623 19.6912C6.80672 19.6419 6.79736 19.5929 6.77868 19.5472C6.76001 19.5014 6.7324 19.4599 6.69748 19.425L5.63623 18.3637C5.35215 18.0773 4.98227 17.8915 4.58288 17.8347C4.18349 17.7778 3.77646 17.853 3.42373 18.0487C2.16708 16.2826 1.49442 14.1676 1.49998 12C1.50152 10.277 1.92668 8.58073 2.73804 7.06068C3.54939 5.54063 4.72203 4.24338 6.15271 3.28318C7.58339 2.32297 9.22822 1.72925 10.9423 1.55432C12.6565 1.37938 14.3873 1.62858 15.9825 2.27999L16.2675 1.58624C14.5584 0.888036 12.7039 0.620806 10.8672 0.808082C9.03054 0.995358 7.2681 1.63139 5.73513 2.66017C4.20215 3.68895 2.94566 5.0789 2.07634 6.70761C1.20701 8.33632 0.751518 10.1538 0.749979 12C0.743724 14.3439 1.47731 16.6299 2.84623 18.5325C2.55697 18.8896 2.41095 19.3416 2.4366 19.8005C2.46225 20.2594 2.65772 20.6923 2.98498 21.015L4.04623 22.0762C4.11714 22.1448 4.21194 22.1832 4.3106 22.1832C4.40927 22.1832 4.50407 22.1448 4.57498 22.0762L4.84123 21.81L5.90248 22.8712L6.43123 22.3425L5.36998 21.2812L5.90248 20.7487L6.95998 21.81L7.49248 21.2812L6.43123 20.22L6.69748 19.9537Z" fill="white"/>
</g>
<defs>
<clipPath id="clip0_221_5059">
<rect width="24" height="24" fill="white"/>
</clipPath>
</defs>
</svg>
