<svg width="44" height="44" viewBox="0 0 44 44" fill="none" xmlns="http://www.w3.org/2000/svg">
<path d="M18.2186 5.5H7.90616C6.57934 5.5 5.5 6.57934 5.5 7.90616V14.0936C5.5 15.4207 6.57934 16.5001 7.90616 16.5001H18.2186C19.5457 16.5001 20.625 15.4207 20.625 14.0936V7.90616C20.625 6.57934 19.5457 5.5 18.2186 5.5Z" fill="#4DA7B0"/>
<path d="M18.2186 19.25H7.90616C6.57934 19.25 5.5 20.3293 5.5 21.6564V36.0939C5.5 37.4207 6.57934 38.5 7.90616 38.5H18.2186C19.5457 38.5 20.625 37.4207 20.625 36.0939V21.6564C20.625 20.3293 19.5457 19.25 18.2186 19.25Z" fill="#4DA7B0"/>
<path d="M36.0939 27.5H25.7814C24.4543 27.5 23.375 28.5793 23.375 29.9064V36.0939C23.375 37.4207 24.4543 38.5001 25.7814 38.5001H36.0939C37.4207 38.5001 38.5 37.4207 38.5 36.0939V29.9064C38.5 28.5793 37.4207 27.5 36.0939 27.5Z" fill="#4DA7B0"/>
<path d="M36.0939 5.5H25.7814C24.4543 5.5 23.375 6.57934 23.375 7.90616V22.3436C23.375 23.6707 24.4543 24.75 25.7814 24.75H36.0939C37.4207 24.75 38.5 23.6707 38.5 22.3436V7.90616C38.5 6.57934 37.4207 5.5 36.0939 5.5V5.5Z" fill="#4DA7B0"/>
</svg>
